<mxfile host="app.diagrams.net" agent="Mozilla/5.0 (Windows NT 10.0; Win64; x64; rv:139.0) Gecko/20100101 Firefox/139.0" version="27.0.8">
  <diagram name="Page-1" id="gyChWqWY7TKUFXaUj11w">
    <mxGraphModel dx="2246" dy="1323" grid="1" gridSize="10" guides="1" tooltips="1" connect="1" arrows="1" fold="1" page="1" pageScale="1" pageWidth="827" pageHeight="1169" math="0" shadow="0">
      <root>
        <mxCell id="0" />
        <mxCell id="1" parent="0" />
        <mxCell id="j0UZT5C_kKvuFqQEt79w-1" value="" style="shape=image;verticalLabelPosition=bottom;labelBackgroundColor=default;verticalAlign=top;aspect=fixed;imageAspect=0;image=data:image/png,iVBORw0KGgoAAAANSUhEUgAAAnoAAAMeCAYAAACKuKn0AAAgAElEQVR4Xuy9DXiTVbr3++eao83sGSDzTuciim6C4xzi3mrjbLDx2ItGQQmKNNs6JRWBsGFKBKnh00hfIOApRD5jOcXQKWNAgdAtmjIgAQFTdt2mwmjK6DZs3RDeESe8MmcizLvf1JmzPfeTj+ajaZu0T6FN71zXzIXp86xnrd9aaf5d677v/5Dv6AV+MQEmwASYABNgAkyACeQcgSEs9HJuTnlATIAJMAEmwASYABMIE2ChxwuBCTABJsAEmAATYAI5SoCFXo5OLA+LCTABJsAEmAATYAIs9HgNMAEmwASYABNgAkwgRwmw0MvRieVhMQEmwASYABNgAkyAhR6vASbABJgAE2ACTIAJ5CgBFno5OrE8LCbABJgAE2ACTIAJsNDjNcAEmAATYAJMgAkwgRwlwEIvRyeWh8UEmAATYAJMgAkwARZ6vAaYABNgAkyACTABJpCjBFjo5ejE8rCYABNgAkyACTABJsBCj9cAE2ACTIAJMAEmwARylAALvRydWB4WE2ACTIAJMAEmwARY6PEaYAJMgAkwASbABJhAjhJgoZejE8vDYgJMgAkwASbABJgACz1eA0yACTABJsAEmAATyFECLPRydGJ5WEyACTABJsAEmAATYKHHa4AJMAEmwASYABNgAjlKgIVejk4sD4sJMAEmwASYABNgAiz0eA0wASbABJgAE2ACTCBHCbDQy9GJ5WExASbABJgAE2ACTICFHq8BJsAEmAATYAJMgAnkKAEWejk6sTwsJsAEmAATYAJMgAmw0OM1wASYABNgAkyACTCBHCXAQi9HJ5aHxQSYABNgAkyACTABFnq8BpgAE2ACTIAJMAEmkKMEWOjl6MTysJgAE2ACTIAJMAEmwEKP1wATYAJMgAkwASbABHKUAAu9HJ1YHhYTYAJMgAkwASbABFjo8RpgAkyACTABJsAEmECOEmChl6MTy8NiAkyACTABJsAEmAALPV4DTIAJMAEmwASYABPIUQIs9HJ0YnlYTIAJMAEmwASYABNgocdrgAkwASbABJgAE2ACOUqAhV6OTiwPiwkwASbABJgAE2ACLPR4DTABJsAEmAATYAJMIEcJsNDL0YnlYTEBJsAEmAATYAJMgIUerwEmwASYABNgAkyACeQoARZ6OTqxPCwmwASYABNgAkyACbDQ4zXABJgAE2ACTIAJMIEcJcBCL0cnlofFBJgAE2ACTIAJMAEWerwGmAATYAJMgAkwASaQowRY6OXoxPKwmAATYAJMgAkwASbAQo/XABNgAkyACTABJsAEcpQAC72EifUYZXjAZcQFnwnyHJ3w6zWsgEMHtcGFQPiBGtiDDmjD/w7CqVNB75LA4PbCorxePeLnxAh0Pjd9y+hGPbdvR8WtMwEmwAT6NwEWeu3z44RW8o9obBuOWe8FYVf374kbEL1z6yF9aBe+QTFe+84NfbjTDmiGlOMo/Stv2hGEHJoBMZSc62TaubkOo7xRz70OQ+NHMAEmwAT6IwEWerFZcWoh+cdGtAkCpORthOi/+dVLAj4j5He9gotJQg8IuCwwOiUwmo1QyXr5DL69ZwQ6mZueNZbFXTfquVl0kS9lAkyACeQSARZ64dkMwqaWwewDLl8WpF4hXv2TBwZpLk31DRgLf6nfAOgZPvJGzc2Nem6GWPgyJsAEmECuEWChJ8yo3wKFwgOLSwbDQztwWZB6r/4JnjRKLxgIIBRbBRIZZNIQgoFg9D0JZLK4Oszm2vaFFQoi4PPA5Q1CrtJApZBCEhWjgUD7k8PvSKQySCWJzw+/SX2K3BGWsAEfvG4P/FIlNCol/SzTJUz9oAA7Kd0Qb627e5NZSINmKFJ29ELBAIKxYaT0FcLY/V64PX7Q4Km/Chpfumcmj1kik0Hid8Pp9kOq0kEjo3bik0RzIonOUfL8dPs86mtyOwQv4T3huRGcCf1JGlNKP1PnK/HatO0mjl1oywePy4tgl2w6m6Pu56b7Ndjd/Ed+Lsyxz+OCNyBJWcP0w06FntA/f2StUoSsSqOCIt3kC2173YgsEQ2U8MAr0UAtT1nv4TYoANTjhUSjToi57Y5j/OcBmfCZkcLvCUJBbWX80ckME1/FBJgAE7guBFjoEWaPQQZtyIGAnRIEZA9gh6D0xryAz3wkAJOmIQCHQQezvQnnaONvxLQXoPa5ITVZoHXpMXnXxfCxb4COfaWUhpD5tZGH+G0k7J49CumsfXCYZHAZNHjRo8B6+rIyyb1w2u2wWl5Bk9C/4YXYSl+KRqUHVqUWi1pJnJaoIFMZ4TSpSZC4YVBrsMOvwnqnDZqAGdry/QhNexs+h9C/rl5+SpIYjRepzUzj6IJuIzTaV+CVz4PNaoDca4beQskYtEPalnB067FqYbQ0okUYQ/Fr+I5itoRXkPgpJzsh2+qiZA1JeOyzG4MoWE9f5KaEjA2vBSr1i/Sc5+F06OEzqLCoqQ3Di7fCgEV42TMNe+xSNFidaBQeMqIYk2R+hEgwNrVE5kc4ls/keQGHATqzHU2RycYLah/cUhMsWhf0k3fhYl4J9rkp0YSSTjRWI2DWhPsy6vmP4bcKfaa50RphaWwJ//FQPG89Qh4PdInXvvAeJaqYYAJd197uJOwLuKCLTZKf5k/1LI5KZ2GfwwSZywDNix4oUtl0MqWZzk23a7DbxBlKrlGp8WKLBCXr7TBraR71WrzoVcXHk07oBYmncjKcsq1wOXWQCOOb3YhgwXrSaSYSc5GXj5gqLTLYXPawmPdadNC+0grVa9/BrffR50AJi8wGl10DWZD6otPilVZVPD60O47UD51CC5/OSZ8/EnY0BwbNbDTieXwcsLb347r8ZuaHMAEmwAREIsBCD5QkIDVA5vHBQqrOT/83+sVzgpLqNCnDZ5Tjrlcu0jUFWP8ZiTBBDQYsUN7yIlrp2HcrHfsao1/SmV4bJPEhE2IEC7fiDx4jwqFrQRvUP3oWTSMSvmi8FPd2nxD3loeSt0Nwar0wytXw0bmzSx8LePORMLwLL18cjmlHSHBqIttigqB9YEeQ9FWAvhi7knoB+tK8JSweBWEk9K3LXb1Yn0bMwnt+O9SxizsJvG9nkiD0HJohKBcyNOh534XjI9Mlx5AAVZAAPZcwN0KG9F0vk+iahiPESxlEZFe1XVCQAN76B7ikOvxodlP7eJwZPU9QF7E4Q5rt9Z+R6AxPNgnhW8JCGHmUaBIQ1hD9OzZeEoBvh6j/0Q9p+9iE94PCuOgHLhI0k/eHY0LjwpBCCFQ/wrMt9HfG+gvwmeS0Buh6mZAkROvqD7SuIguDQg3ouqYReP5jYa66+G2QxdxkvAbTPo6yqbUy/GNjW5i3kMFOQKCTPIT9NMhJ+74Thpx+R48ScoZEJh9vfxfh5iRIQlvDZ72HYDgzikSYZDIh/gABmyragwgvh4GEnkzgSfPwQYDei/3YBtWPHDAIiUAZcDS5lLjlRSle+990feIaJsXtZqEn0lcON8MEmMD1JsBCTxAx9OXtje3excQVzUT8SyZ5WtqFComyP5Eoi0imWDZp8pdvZtfGv+BHPf8Z7QbF9hFjgm0Unv/Mj9jbQfpilNEXY1teIUpUdDSrdNFuhyouxtoFFu0MfUdfkLHu01iHkJikb118F/7W7eoVOeoj1dTtkZWLduAm07d5hySWTo7p0gk9+J0wWn3QGGhnUCF8y/pIwN4FQU8Xh3dsOmMc406i+w8kutu1bkygjcH6CwLHlLFm9LxEYZIs4GPiLWmNdDLerq9N3+4I2hUMkIILkmr5kaD8Rj2Pz/zW9h1mQQTe9fJFejtxvXScz8znJrs12OFJ7X/oJPMO+VxweKXQUEmd8NSkZeSH02iFT2OAUaMIr+OOayQi9Pa35aFgngUW2llXyoW1SaEA1LLMExXOeQWYZ7HAoFNCLgj+6BoW1F93HD0kFm8R1PuIEqynXVetWmgjfFqfZQjD9f41zs9jAkyACXROYJALvcjOiNFfCI0yphBC8LuPovUbgpayMxPDmFaodCf0EnavOorC2JeYcNI4D9qE8+KAxwG3X0Z15+hoKrZTQR3x0q7ifYIKGk47WQESOwlbbgEqThf+wsobgxK9OvIFK7yCtOsnxHiprPDTUak4MUdxQRYTJ+3LLRuhF+6fl47d7LBTrB2FP8KzoxHC3mpc6MV2smK7mQnCgYTQxySE2je3Mgn67/Z5nQkTmsHojmDSmLsRej25NibUhCPoeckLAw7iJNNHRH76VzZzk/0aTHpm+65cYimdNL3qdF7oKJaOZO12N/yRyUdjZPLjx/sUciAvb6RyPfFXXvvxbhAOrRzljUk/bT/6z4yjhHbn78PLwnPbXyMw7W0ftS3Op4W/jJgAE2AC15vA4BZ6wu6djOKDhNidRPIUIySnGKFw/m2apAzxhR4dv8ruwysUyNV+ZNfNShCOs2R0FBkuB0NfhgFhFy92D/1sCP2sM6Eq7iKL7TqSSI3uQvVE6AlHovfRN2xe8XoSe0YKrven2dGjlmmcMoplE3Zx9GYdnZib4ZHpYXVaoZMnqN1uhF7Gz+sD8Rbmk2G7XjoCvS+yMHpQyDubucl+DSato9hucUopnQ5rLd24KQ5Pcd/LOEfH4OtJ7Bkps8IfC49I+gOJWqOEHa9bEIQOOJ0tuEgfgMSd5BCJd7fwx4LDCSfFZNI+czjEwezOnGOQEntcDgds1EZTazhgN/2usLgfJG6NCTABJtAnBAa10BPi8RQeS5oYNCqtEkvKSDqejcyB+EIvXUxSfL79LkoUoWxSSgCMvIS4K0oMMLt1cKhm4ygdZyXF3QlZxKNfpN2w5GPB8L1BDxweGXQaedcLStjtcgYg12kQPknt4hWJ/bvc86NbGofkIYpXS4xhSzq6vQADzRPMNkiNEphVAYoB62aHpSuhl8XzdMH0tQCv144eBatF6jsOp/jHIMU/Js6Dn45FAyro2hdGx0nKZm46xsV1sQZTH9Ue8pAmtjVAWeQBBe2aJ8ZOxnb+YnF8giAT4vwiiy3xM3bBQBnxtFfrL6cd288isbTRDwL9MUB/IIVoN5eO/e8zK5MTqKLxiSHhDxC1uVuOSgcle9CucGINzdgfVJGEjz75HcyNMgEmwAT6lMAgFnqCmNOSM0MgrQtGPCljDF5I+nLpG6FHgXlQjl6E1sTg/nZRR/F5gWgQP1mJaeS0AxI+yqUvxfbkDIrj+5iui55duiiAfPL+bxIC/cMqj44c5bCohUzW5Hzi5FUW391JPDrrdCXGvuRTjrrbj5dTdnk6COXYbpBwDC2ML9xVIZD+WVB0GgX3H4HKYqDdPD80ZooHdCowy0K7fglaT0aZx2oSEu2atCuhl8XzrJQNm67o83UTelRsxEoZ0ItaU8Q8Ikk4fmugXRylnZ9s5ibTNdjJQojNd/IOMwkzpQoec7SfHeaF1vUQSjah5KdpR4T1GVmnsaQUmnwcUVHMHZZD8coSeNqTMyLXWSkZwySjhCGdDd8v9yQnUAWttIYoSzksIIWkla45WtwKSrKSJSVTRRJs6HdFyu+APv2tzI0zASbABEQkMAiFHn3xqFSw+EL45hs62Bk+HDIqp+C3qaNYoz/3fgP6cfiVN6qYdiMU0NmM8Gvp3tjPhhdgkloPs94Djd4Zbo+uxqhCDTTGJZBbn8jwWhtsOopLooxVndYEZ2sI8mI1Bd774QsqYHLYKWvQDCV9mfkufhM+jipY7w2LtQDFZ8kXtYSPcKmjKNZQmQ4nOU7Ql6Cbyk8YzEdxTkZJGxSDGPD5INVbYTdRMkeXi0j4YpRT1uM3VGXmY/gyMaSlvmvVBjQG5JhGpVFCVEctSMHwXiotEg53HFMMi92GkDGFn84EO5WV8Rk10L1CZUgoFu15nRxUhYScM6QwT34lHKc3ouQ1eJ10bEvJL3I1ZR1H5yZpGBRE/7bPCQUF3qss3uh8DEfBJDVU+ijj8A3EJoPn/bPKhidS2tGb9fBo9HB+I8yDgJziO4m5UW6Ftg+utdl0NFd+2KlUiMnZipC8GGohO9xHtd1MDtj1keSFLl8ZzY0bNDVdr8HutnapnqBQPkdnOoqLUiFRSIKANwCZmcqVUD/9ltR50cFEa0JD4k+je4VK7oxA8fM6yCOTD6l5Ml6JTD5e89Lu9S0G+AukVIdRBSOVP/FarFTuRgc7HdtrqMzNEIMfBVKqaUklhkxKKq9ipdJHOjuc1th675pj+LjYKUUBHQ9LdZSMQZm+VrsPSivtnGbCubt54J8zASbABG4AgUEo9G4AZX6kOASEzOi7XoR/Eok+uxaKcPVnobCzn4SbFuX7L3aaKS1OB7gVJsAEmAATYAIDiwALvYE1X4O6t7Hj9HgWbgKO8DHdIrSkBu8PamI8eCbABJgAExjsBFjoDfYVMJDGT/F7Wnk5Gskh4oibjvxiWbYhPx2tqWhHDxSjRcdz7RWbB9LguK9MgAkwASbABMQnwEJPfKbcYp8SEOqtUbydzYMAecfKwl6/IcgoVlJPNQOV6c1x+7RH3DgTYAJMgAkwgf5KgIVef50Z7hcTYAJMgAkwASbABHpJgIVeLwHy7UyACTABJsAEmAAT6K8EWOj115nhfjEBJsAEmAATYAJMoJcEWOj1EiDfzgSYABNgAkyACTCB/kqAhV5/nRnuFxNgAkyACTABJsAEekmAhV4vAfLtTIAJMAEmwASYABPorwRY6PXXmeF+MQEmwASYABNgAkyglwRY6PUSIN/OBJgAE2ACTIAJMIH+SoCFXn+dGe4XE2ACTIAJMAEmwAR6SYCFXi8B8u1MgAkwASbABJgAE+ivBFjo9deZ4X4xASbABJgAE2ACTKCXBFjo9RIg384EmAATYAJMgAkwgf5KgIVef50Z7hcTYAJMgAkwASbABHpJgIVeLwHy7UyACTABJsAEmAAT6K8EWOj115nhfjEBJsAEmAATYAJMoJcEWOj1EiDfzgSYABNgAkyACTCB/kqAhV5/nRnuFxPo5wT+8z//E88/vxBffPFFP+8pd48JMAEm0P8J/PWvf8Vzzz2HadPKRe0sCz1RcXJjTGDwEPj000+hLZmCX+1YPXgGzSNlAkyACfQRgdbWc/jnt5rQ3Pyvoj6BhZ6oOLkxJjB4CAhCb9q0UnzifWvwDJpHygSYABPoIwJNp05j9dqdcLtPifoEFnqi4uTGmMDgIcBCb/DMNY+UCTCBvifAQq/vGfMTmAATyIIAC70sYPGlTIAJMIFuCLDQ4yXCBJhAvyLAQq9fTQd3hgkwgQFOgIXeAJ9A7j4TyDUC2Qq9wNF6GKrq4fYPhWbnAThKhkWRNEN/51I4g7dCXTYT5u1aKNPACnpPwI1x0CqHobdtdWz+Ety7LkE+637Ic22ieDxMgAkMCAIs9AbENHEnmcDgIZCt0BPIOB7/e5Qfo3+MWYQLn8wNiyr/hikYXXWB/vUg9v2lDrq0CK/C9uADsBT+Bv4td4Sv6HlbaR7QtAKyiVdg7fT5g2deeaRMgAncGAIs9G4Md34qE2ACnRDoqdCzSR6G52AzNG9+DGdJM3S37UdozEk0nooKPf870D1Vj0CBAmg5C+my9TBc3gx91WkECyZDX6aFeXkR3CQau25rHaRzKqBrvAbFqm3wFOyHfPppqDc8C6zbCcnMIvh2N0A214RQ/Ro0nstH8S+LoK9YDXXrQmiqrkBZ2AZP4DE4a4fC+MxWeENDIQ1eg6RkExrG70dZ4jXvz027E8kLiAkwASaQCQEWeplQ4muYABO4bgR6KvTsM49B/dKjeFGyCB9UnIDOVw3LuSdop08QeusQGFuMRcEZ+OwLE7D4Edy1bSjW/34u3Lcvg29h8o5e120Ju4MnoP1hJVzFG+EpricBtxjBCickE5shHz8Z2pkTYJxWhOAK4TmjIzuKgXoob9+KwMwd8FZfhfHuZfCv+wDGxgdQ3lKC1w7cD/zhP2Cd8esO13gqYsfR120a+EFMgAnkCAEWejkykTwMJpArBHou9D6FAxWQPfM+2vLG4dUv7ZBOF450BaFngvfOJ/AyEoUe8MLvFsF7jyD0amAvGBqOpfPQjp59ZldtRY6B/RueDB8N5w0fDfOZt2BCM2zHrkASbIZl7RGEKn8DV2heWOi9enoaZP7TMP7idYTCQk+BUPASQtICeOdQH89F+qXwbYH8np0drlHIcmV2eRxMgAlcbwIs9K43cX4eE2ACXRLIVugFvU7on6qCt+AF2DcXwFH0NJxT98JXcYWORSux69xozKpfhcUyJ6aWNtNx60xI6mrhLdwE7x46Os2fDYf0VsikM3CwfhhWZdCWOZxcQcfDP5xHx8Q7ENpTBOyvwJBnLmDa5hkI1WwHNh+D7eI83LLkCkaNaYNq8yEYmuZBW9cG3ar74a/5EMoaEwLLZ2NXYBy2Hq+BkbJF3CtSrnnzLVjSZZHwOmICTIAJZECAhV4GkPgSJsAErh+BbIXe9etZ7EmX4JhvgVtZAP9iOsL9ch8M0uvfC34iE2ACTCATAiz0MqHE1zABJnDdCPR/oXcVrhVVsJ0bClWlCaZijp+7bouDH8QEmEDWBFjoZY0s/Q2HDjVi7969+N73vidSi9wME8iMwF//+lcsWbIMY8eOy+yGfn5V/xd6/Rwgd48JMAEmkECAhZ5Iy0Gh+D8xa8bjuP02jpoWCSk3kyGB3370bzj3+WW8844rwzv692Us9Pr3/HDvmAATGFgEWOiJNF/33PP32Pf6Otx9989EapGbYQKZEWg8eBKv7T4Gp/NgZjf086tY6PXzCeLuMQEmMKAIsNATabpY6IkEkpvJmgALvayR8Q1MgAkwgUFDgIWeSFPNQk8kkNxM1gRY6GWNjG9gAkyACQwaAiz0RJpqFnoigeRmsiaQi0KvqOhBSCQ3Zc2Cb2ACTIAJMIFkAt9++xf87d/K8fHHXlHRDPmOXqK22M8by0roUYFXw0u74Wj6CvLiyVCNuAbvsVaEChfAuUdLhVjJBP1Bsmu6PAMfULV8VZqx+5uc8I/SQi2nH5JxunTiEajqm+Ca1TelHtxzVHho/7147cs66LlmWL9ajbko9J56Sov33t3ZrzhzZ5gAE2ACA5HABx4vttY04NSpZlG7z0KvO5zhKvrvY9Ibn8I1jS4OUeHV/Eo0Khbhwpm5wFEn3BgH/aSRaVr6EPrbZiOwOXpvsBWOxkuQlzwGVR+JsGDLO3D6R0I7rQB99IjuiPHPOyGQi0Jv2rRSfOJ9i+ecCTABJsAEekmAj257CTB2e1Y7esJNqUKP3nKQx2b5sVvxwnsm+A1VcA2fC8/7k+EpnQdLcDSkF31A5Qtko2SF4eAFyMaXQTNzGgyXV0Cz4Suod3rgKHgHuqfqEShQAC1nIV22A+bLC8M/l8oUkI+4Cs9lBRzN6yCrezLN+2T4vuRp6FpuhWbEBXilC+A6QNePrYDFfz/sn2jhmrICjmAepMFrwJj5cO0ZBtOULfTMAoRarkD35j6Y2LJJpJXVfTMs9LpnxFcwASbABAYrARZ6Is28mELv+d+9C9WSiNH5vkffQfmvRuLVr3dAUbcWjlGLYCt4nYzPX4cithvos0T/uwmajXTkG0w0bh+K9e/dD9tDrwMLfwN/oSW+k1gQuS/1fcs3S0lYlsEi2Y7RS1ox7dDHMB99JGzOvu8vdVAuFv6dj/XH50IW+D9wYeN8rA2U4MiZxQgumYJy/yL86f1pvPMn0trqrhkWet0R4p8zASbABAYvARZ6Is1974XeeZjufgIvk8D64MvV8Au7eyT06gr3o6KhAK/9xQ492hAMtNFO2vaIsKs9AMMIQD3GCWVY+P0GyipqA4lCD3jh4AQ4pkaFIRKOjKNCLywYY+/vqIFkeSVcZBDvKTmJ+5acDh8vW1tShV5E9OlA/b6TnhmKCD1l6Cr8oWFQKfJFIsvNdEeAhV53hPjnTIAJMIHBS4CFnkhzn5XQ838I+0trMXv3BYyZWQ3TmFbYdh9BYLgWtgMmaCQ+GItK8UpgHF47OQOuJ5fCXbAARuyHY8w2eCs/hOr2lxEYNZoSOEzwPFoP5dzTkC08gKOTdqO4tBmKVTMhqauFt3ATDj76OsYLP59ZA8vwrfjHbfRcuraBhF6H9yuW46f7N+C3hYugC+2G7dQfIZu6Gs8Ft2DZqXw8f9IMufk5LKJ/zzq+A/bikQg2bYGmtAGhsvlQX3yd+kp9XEdHx/y6LgRY6CVgDl5FUDos7W5ysKUeuun18I2ZC0vJVbiPNsMZeAzu9+dC4a+H4mcnYPx6HwztQaiXYC9dCKvkMRgLr8DZ2AzPxQewZ/P/wpI5J4GSaux+/hLWPbkdHmrTurkMWoWQDNUGf+MaaMPXrIK50Ef3noQrVAbviZno6J3TBuf0UlgKa+CpvCPtmgnSuKQ0Ln4xASbABLIlwEIvW2KdXJ+V0BPpmdwMExAIsNCLrwPH44/As/ldWNP+nXEeRtp9dk6lEIYtgqCipKY7G6D7YhOk88fjgV/9EWOqj8G3XEiAugpnaTFlmO9AcOf9kQdQdrtszjC4v7gXxpuWAeHQidQ2Y315B5rYNSQqg6HT0BedhvkTE9KFr4aCVxBEPmRpM52orTvPwkoZ+PznE3/mmQATyJYAC71sibHQE4kYNyMWARZ62Qq9A/DI10DlXw3v8lshkflgGHsEmrLTKK8rwmeCoArQLvntWyF/81M4S2LtX4K78RqUJeehy1DohTY3wewrh6X4XTiKr9KzhkESay7wDgwLTkO9eS7FtuphkpjgqzgNLe3Io1gBGe3iqVa9COX+hdAeHA3rzhnQFN8PudBAy25oNwCmAzPTll8Sa21xO0yACQx8Aiz0RJpD3tETCSQ3kzWBQS/0aDcsEIpgc0x/ksTbW7AUCP91M2WaJwgriicVdvQcxTvgGmGBNlQT2dlrXAhZw2QKiTgLddE7UDefgm34lnAcrIoSkRyT4lMSOUJtju/WddjRo6z2ppspdHEAACAASURBVCtQFvugJTGYKPRck1KPla8iEPiWxF8+AkKC07lF+O4wqG0LFKdPwbA7+t7ms5BPAVyJO3oUCxsIImV8WS8dvoEJMIFBQICFnkiTzEJPJJDcTNYEBr3QSyCW8dHtOhJXlDQkHJU6Hn8S/tq3YJJfhW3CAzDKdiC0ZzQsYx+FvSx2lEsPCe6HauI1OM/cCn1nO3pCrN+CW+ELC7bo8a5wdCuI0Al6BA/QczoG6cGXJPS2QkGZ94a6ZKFnq26DT76a4gWzXiJ8AxNgAoOYAAs9kSafhZ5IILmZrAmw0Isj60rohfxUY3LsMriLN8KzcwIU0jZ4d62FdsElGD/ZByMJPc/8p/HA7qHY2ryD/vs0XW9BaOU22CgZw7pkN6TVdTBgC1TjyLXjl3vhWk73httcBUcZJVVs3Arn+H3wzXwncs2yA3BOOg9PYwMJt3w4/7wJmlh3SRQqf0Z9+rwOcqEs0bky+N6k/I17GiiDvgaauko8e7kMnx3Op1jCI5QU1QYZ7VbaBKF3dCkkUy7B8nvqdxrhmPUi4huYABPIWQIs9ESaWhZ6IoHkZrImwEIvjsw5vRy+lVSwW8SshXCiROhmyOgYuD+97BOeRGBP+h3C/tRP7gsTYAI3lgALPZH4s9ATCSQ3kzUBFnpZIxv4N/idMB5TwFohoqId+FR4BEyACaQhwEJPpGUxerQcP/ibm/D977fn1InUMjfDBLomICQIjJL/FMePU922HHh9+umnYK/bHJhIHgITYAL9ggALPZGm4e/+ToHVVb/ET++8XaQWuRkmkBmBpqYzcP/Lp/jNbygDIAdeLPRyYBJ5CEyACfQbAiz0RJoKProVCSQ3kzUBPrpNQNaVM4bvHRifWQvnCBP8h7VR94xmSnQg5xlytnDsmQuVVHDDWAr7qMnQy87CshuwHK+G/Oga6KtOIkhJF949j0Ea+pBq7y0lR4x5WF3+KdYYUl0wnsRv1v0XVj5ej0CFnZxiRsNTtxSGtZegrN0Ge4lQlDn1dR6WByvhW7UX9knp4gEpezdIrh9piypnvWz4BibABAYJARZ6Ik00Cz2RQHIzWRNgoRdH1nV5FaGUCnlIHxuN9Z8fonIqVDGlTo8fUdHiUQsFt4x82B58AGbFawhE3TCCdeX40drReO/LdZCtoHInNQq8/eU2aANboFxyB9xhwdiZC8a9MP2wCu42QBuux9e9w0UwcIWK4+VDmi4CZH8F5C0kUsOuHvxiAkyACWRGgIVeZpy6vYqFXreI+II+IsBCLxuhp4dD0grPCDsC2/NpB80Cj+QkvAUk9JafJDeMWigSiySHHTJi752HiQouWwvmQH/RB9XxOrJIE54dEXodXTCaoSXrMtNKHzQLbob9Sy3sY9NYmcVcLmoVcJRWwlNih0NaC/WGS5AXjoQkkAe9RQv37IVwjjHBXlkENXlMC1rQU7MQFsyFszJcIZpfTIAJMIEOBFjoibQoWOiJBJKbyZrAoBd6GTtjCDt6FcCqkTBOuAIb1acz79fCdPFpmMaQ0KtwkhtGA9THPbAXR6ch1QrNZwk7Zsg2fwBPZex4taPQi7hgNEMX9qidD+/j5JuLcVCeuwP2VM/aBJcLJ+04RvrSQM/xwfwXOyTR91yYRzX4diTt6EU8codS4ee8rNcN38AEmMDgIMBCT6R5ZqEnEkhuJmsCg17oJRDr/uiWhN7h1fDf/SjM/nthpkLJ8gVRcbUFEYu0R/fSbl90h4yOS4fMAfZ9WQddwu4d3vgUrmmxB6cc3dLbEReMuXAXRXfwgiegva0SjbIZES/dTmZZOFqOCz2K2ftLHZAk9FbDEjoP+Xb2uM36g8I3MIFBSoCFnkgTz0JPJJDcTNYEWOjFkXUl9IJ0RKorrQeWk9OFZCtG75+MP+1RwDTxaTjGbAwnWcgD+6Epqod08w5Yx9CO3BQnFHvssBVHdu8CLWvID7ch7HjhWacIJ3QEvVGnjBQXjB172rB6+hVoD2+ClY5a0bQCsjnD4E4VeoLLRSngvDIf7rFPwDamBi1lThQ+cwGG46sQXDA73L9Txa+jYH8+StryYTqzGip6tmv6fZjsX4Q/vD8TbJCR9UeHb2ACg4IACz2RppmFnkgguZmsCbDQiyMTyxlDSIoI4WZIyQ2jf1fGdEI99gocZ+ay0Mv6k8M3MIHBQYCFnkjzzEJPJJDcTNYEWOhljSxnbvDvssBVYIJBmTND4oEwASYgMgEWeiIBZaEnEkhuJmsCLPSyRsY3MAEmwAQGDQEWeiJN9R13jMbIW/8bfvjDvxGpRW6GCWRG4H/+zz/iv/34Frz77onMbujnV7EzRj+fIO4eE2ACA4oACz2Rpuuuu8bg+ed0kMvTVbwX6SHcDBNIQ+ADjxdnPvLj8OF3coJPr4Rel84Yu2GYsh2ewvmwT/0WtjoSxjM3wTErH/7GNdDOEdwtqrF71gUs/6d6+Mgtw1JyFe6jzXAGHsNByspdNT31/UexZ/n/wJLovc7aCZTQ4YT2qd2QlFFmbOAEnMda4X/4ZVj/10boG6l48s7NeFG6H7NKnQiVrIJt5QSo5FQeJXQJzgULI9fULoCqle492IxQxVtwV+anmVt20siJBc+DYAJ9TICFnkiA+ehWJJDcTNYE+Og2jqzr8irnw+VTnFMFFwzBXcJH/10K7/IP4K5oDhc9jpRNSb3uQ7JJa4CO6uG5ku6Pvf8wrLF7JwllVKogPRyvxeeeMx764Xb4Cy0Y8gyVaqGSKbpEN432Mi3UJaGcS/QaLYnWUFMVVE0L4NuSviALO2lk/XHhG5jAoCPAQk+kKWehJxJIbiZrAiz0eir0AO/i8bjvoJZq2ylg7CD0qISKfA1U/tUkBm+FRHYl7IzhnJr6PjlgRO+1X3wSt1SNxNt/IZu0WLf8H8IZVEB7bmmGQu9bbP39fPiozIv6i01QB/OSCyKzk0bWnxG+gQkMZgIs9ESafRZ6IoHkZrImMOiFXsbOGKk7dbSnt5j8aw9OIKF3bweh5yjeAdcIC7ShmugOYOT+ju/HCyZbWwU/3AIc+fMmcrGIvcglIzgM0qPx3bqOO3qX4G7Jg9q/gsRgotCrg4Z29qTSmAsHtclOGll/RvgGJjCYCbDQE2n2Weh1DTLYcgK+URSLxFVdRVpx8WYGvdBLIJrd0e1V2B58AOYCwQnjUvqj23X5CISG0Y6a8JAEoZj0foIzRiF54/7MCd3nh2CSRzoWrCunXblt8I4SRFwnR7eNC6FsWgRvwvGucHQLHIF64jU4O6mTx04aon+cuEEmkHMEWOiJNKU9F3rRv/bDXyQpr+B5WBfMg7mlAOadDyNU1wAK84ZjjxZy+tKxPFgJ36q9sE9K+Gs/2kSwfRegu4DtngEINS6FcsO9cFJF/s7snNpb9lqgrFLAfVgbdhLo1SvYCsv0pbCcGw1T9QQEm5rhOngFuuPVwJw0PEI+WEsrsAgmfHf4seij2+CcXgpLYQ35lQqxWlm+yM5KN3E/ZAuL6Et8O3ZdLqMdocVQ0E5LELRz06HCbt/MQazXLPTi89eV0Av534Fu7DK4i1fBUZYH78F62ENz4TpA6zLmbvHLvXAtvwRj+LqN8OycAEXURzZ+f/L77c4YdK+brNMkwmdjSRvMb5J7xeXdMNYMg+VwGbDiady3EZjXbIclbzdU43aSw4bgwOGDrWorgtUfwHoucs0Lp2ugOXcWzro1sMm2IbSnKD5IdtLI8gPLlzOBwU2AhZ5I899joUfB1/IWU5JReWKX4kdLEX9MLx013dc6F386QRHcVL0f0vw0woJ2GMJm6pF7ugzY7un4o8dHMnIO6Pp1CZa7y+HfeQq2wp4+LPm+VCbuOY/AVvYubAXpeYSvP7coQejR6VfYDD4/ulOTXb98Kx6hL/BqBHfeD/jroZh4BU5iDXqOsfDdBA/UeLt9MgfR5lnoxTmL5YyR3YpId3Ubfe6uISTp2Rrr/fM7a4GdNPqOLbfMBPonARZ6Is3L9RJ6oN0x2bgT0L9XjdALlfCU7IWn4grtctXDI/0WgeElWIqdeObgaFh3zoCGlJ716YTrFjTARztOoTFlsM0EzKWVcGEclLJrCFLZCUe695bTbtz0SthH5CN47l5YDkyDbPdSqFfkwfrJZDgnVsFDoilI7TgOFMA2X6jnRhZSVLrCOekIlHfTzuSVdVAHPoQx9XnL70dw1woYj+VBEmqDZvNqqI9R2xsuQV5IpWr8bVAoqG1BmBXOhYOuD0Tjqj5uvhWGoq9go2Mt+TfnYU4cZzuPGaiRWFDYMBTTCukYDhNgo90R93Q9TBITgrVDI+wk3yI4aj52FDtRMucsIKNjs/Gb4N1+f7sFlqdmISyYC+f4I5CPc1L5jLkwVzwMdcFISP201zplLQJlO2CZORqKY1VQ1l0hW6o2yPTPQXlkPc2VHQ5pbfvYJIE86HduogxMOuqbcwIh6TUELtJzH11NPqoFGa9MFnoZoxr0F7KTxqBfAgxgEBJgoSfSpGcn9K4iEPg28uQGOuahHTpvdeQAVJKyQ5e6ewWfBfJ7qITD796FasnfwzRmH0yt5bAUUMmIVdfgOApoCkhcTSHD8+iOXiSOh46QTs2Eo+IDEoYIxybZpjXBdLQYxjEHEKhwUrt0xEilH0DXJ7+3GrJdpxEqIME3t5RKUXwEz/itSdebxuylzMRhsE2ZAvt4OsKqbIX2Z80wHhoG/YJ8eBP6ktT2cfp56c1wCUKQTN+lj39L8Uj50N/jg/kvdkg69KUOSkHoNYzDkUP5MD5F1yeNsyOPO1qWorB1Ab47cTPFYW2FgtgZ6iK7fEekVdAGV9OOIxnFj10D6fFF8N1D1zQfIGax2KzIVEV2AYdGMiCDFDx/9AisdOTmIsP5AB0Lu6iv9plCeQ66ODxPJD6/Xgct7eq4SoU5oDmqaKD342MT3rNfLoWOym8ECrdiyMYiXPiEhGsW65KFXhaw+FImwASYwCAjwEJPpAnPTuglPDTLo1shsPtHaxX44EsSJ2EB9yp0B5+Fq6KJhFZ+WIyEAhQQTkLPVt0Gn5xE2lrhuo3QNCyDr/pTuGcB9gn0XsEBigkqTRAgcaEXFyX03tcUF3jnVkj32KHa8CgcJBCdKnrGP8SvjwicSLC6d2XkGeG+CEebTwHuJDEWEzznsbb2W8yi8Xz8pQnK8G6lD5bfKWBOEJ1JfSEhGhZ64UzJRZAF2sLG88IrImg78ji7thyF4aNbEsEpQm8flkVErVCnTBBykg+hG+qEPlzrLP1LEN/tR7TB/VD9pBkmKqcRCgu9vdA0XYKu8ixUHcR2fNwxQS2MzVewFvJt+VCOuAr18k0wFXd3HJ7cLxZ6In2IuRkmwASYQA4SYKEn0qT2idCjSvkOShoobxqHV/dMhqT1JCy722A6tA162XnagXoCtjE1aK04geIF12DZOQ72Fd/CeuBm6G8/AtlUOjZ8fhOk86PXzTyC4pduJgE4DKYFV2Bung/PROFnG+mItQFaes9wZhNAz0x6z/UkXCWHoKGgdc/0l9H0zY8xw1yAg+YLMHxCsWqPPw0XlaLw7CyKBKJX0ZHwsnxyHsiH/fBQ6KNCSBuK9Tnheb9bB+mcJSQSq6Gn4rC2wm1wjqqF4hlq+zT15ZlIX9xllH0ovHdmG5Qk3AQm+5qroVUMixyttredyuNrFEv+GSsoYeK92mswTDwCxRu7oGuYhfJzZbjwxjByMWiGrvpheDaexdOWoVg+uRnqQ/soySXZjcA1/T5KhaHsyRFrSGgq8BoF2ytPLYW2ZS78wnHwHBV0wXGQB4uwi1gXLGiD5YwdRvml9rlqKXOiUBjH8VUILpgNB42tZWoDCqro2JqOliWjJsNMx7bOokdpl/a1SBxgNy8WegmAunLGaKmHLupsYaUQBddBcp5oUaB+z2jUz9kONygM4cwCBKaXw0jJPvrN1TBIdkJHDhaYWQ2T4gSsu76Ffs8maC930tah0Xgj6r5hKTgLG7lc6HdWQ3VQD3XjSGjlV+A6SmEJk4og85+An47zPcvTJAT56qF6inaEm9dBky6DqdPEn+5WC/+cCTCBwUaAhZ5IM95joUfCSHWOBFe6X/Yi9e3GNnOVdtqm0JHxKThLbmxPRHt6VExIEo9ye9w4uTPcVoHQgUiyimf++LCYDFSQIKVjXF9itmUnz2ChFweTeXmVSNynrWgtZJ/YoafdZPm4d6A+vg3SFSSyDm+DLiywEkqn0JF8OJSiTqiTl+iSkdjWKngT3DPCO/CLR2LlpFZcXfkurBQvGgu9sIZoB7vq3vCxf8eXEN5BuVa0W90hiZsuTtpV7vHa4xuZABMYDARY6Ik0yz0WeiI9v183E3wH2omnYTxDiRb9uqM3pnOBo/UwNVyCRLA7bRtJu4szINldi2DFYmgzqEfDQi87oScUPHZTvTudbxU8q4ZREgxlrlMT/g1PYnTVBRTXN1HoQez4PFHoXaWQh2IYpJsQODAa5mjx5OS2robfD9usrcqDrZTK+Mg3wbNZEYm/TYixtSpIzKW4XsQSfmwUZ6stpTjXE7Qjv1YPy8WRUI26GQGJFjuWXcPz7Yk/CmiUws7zFTjmr6GSMKsp9jadL+6NWdv8VCbABG48ARZ6Is0BC71uQPJRk0grrWMzg17oZemMkSj0vFT4OFb7MEhFi+VPnUTo0UhyTURjR4SeXzi6HX8zZYIXQRUOF4i7ZMSEXqQtCom4O+Ke4Z75IQzTm6E69BYsyui8JQm9jnMZT/g5kRxPmpJMJCRitSf+RJsRSvj0v3IufbbsuWEmwAQyJMBCL0NQ3V3GQq87QvzzviIw6IVeAtjsjm6HwbskUoPRUUi7zo+fhfnAveRnuwzBLUJ2urCrl3x0G39Uop2acHQba2sHZAuiO3pb7ggnCOmlO+IFj7sRevH2hecmZ4gnJhNFhF408Wf7Y1TGh19MgAkwgfQEWOiJtDIGnNBL6xghEoxsmqGEE3fNGug3fAXt4UOwRosq+2vKKemiDdqd22DFVsr27cSFQ7h/BSVE7BaC3udC0bQfjnP3w7xnLtRdHnu2wd/0Ogxz6uGfugO+LdG6dX5yLBi7HaGSajhrJ0CeJkAq7jqSyUC7c8Xowhklk+bpGhZ6cVCZOWOQs8XKYfCccsK85Dymva7Fxf/+Mrxlx+BbN5TiJJ/GA79qw7Q3BNcKKjAsOFhEXS9igirJJSOhrTn/Ohe/nUyuGgV0LHx4GoIrxuOBgwUooRqJ2uM1UDZUQr3AB2WtHc6Zig7FzmMJP8GVH0J5TwMUb+6DbjclH1HiUDyZ6BDVnZzSnvjjouLpUlBh8rGZJ/BkuLT4MibABHKAAAs9kSZxwAk9Gnc6xwiRcGTXTHiX43UEptZQUsIEurcVhtuexo7LD2KfUOakOxcOKlET9xClKim79BTkPhouKkGj7rInkV2ZVwIP4+0/b6MkiEgyxAO/+iMmvRGth9fh/mTXkUwG2qUrRjfldTJpn4VenFL/ccaI9+m6HalSQkmmCTyZrCu+hgkwgdwgwEJPpHkc2EKvAPY5Frjy8igZoAjW2nFwkXNEYgC4fQ9lBu5aCv1BqltHMVH+b4CiuQU4898pYPw4BYy/1InTRMlJzBKCyhOu8ZWdgDrRfaLyJLRVl+A/eA3Gr+0wNC2EinboAvQsC9WnU9XFXDjK4E7jrCFNEXogpwn1TVWQvvkBlckgX9wWGldwJMy/JueOxScgH3MN9iYqYfL+w7A9vhX+iycRrPyACkGfhvZBKqVxmeK0qN6ga9qlZC5UPsY3Xw9tzHWkgEraLEhsj3YUY+upZTe0GwBTrQIO6nNaVwyLFu7ZC+EcY4K9sgjq4pFpMyy7W6Is9LojNBh+3gb3hswTeAYDER4jE2ACEQIs9ERaCQNZ6L0nuENIdoRrtgm14DShGqoVV4W7kgLAqxEYuxTSE6egWvH3sEyiY67lrZk7TSS4UbTHGsXcJwIWaOoehrZ1NqyTDsB41AKsUsAyMVKQWRd1mUjv2kE/7yD0onFVyybTsfBV2L5YRzt8T8Jw7e8Q+Nf/gnnzNCgkI6EuuRnmx6l+YIkPD9UU4eNKcvLAfCg3zA4XljYdpLp5KVxCK09CHiuE3LQUkumUZdneHh3FxdZTdBdSKI/hDBdyTu+K4cI8aLCjU6/jTJYnC71MKPE1TIAJMIHBSYCFnkjzPnCF3nN4NbQCZnLJENwhvIvH477WxfisoDZsERYPAD8E5YJHYJUpIAveD1M4Bq5jwHh6p4l0QeUJ7hMk5DR1ZVR0eSsJp2ZIJ1H5iurT7RZrqUIv1Smjg9AjKzXZxK9grrsZz668I+K6ASplcfa38PzhBwge3QpT3UjYhVpoJPQMh8fB9MOlcEmL4PhyEdx0nOur/gjaup934PJdrS8s9MKuI3kUw/f9mxPa20SireMr4tiR3hUjIvRWw0IFn+XbZ0LVg/XIQq8H0PgWJsAEmMAgIcBCT6SJHnhCj44lJ5RiNjlGfPZr8pt9mtwhdtJR4hyy9HpzG+QvTUkJAN9HwudJmEJUXkKWB3nZfFimXYPptoUIbF4HSdU87JLMCbelE9qKOk3oj8+A++7ka7zbr6FkQsx9og2uOQsxuVWBI29qyRFiKXDgXRhb50ElOHWc3kvHr1URp4xPaoDSFCeP39kpWF2P+zYCLxwyQXGuGfa6Vgp2p0D64q8oQH0hXGWLyL2iHp47pNj/tgxHBF/bOdewurYNa6ZQYLzgNNJYTpZn2+Cv9EFDRXQDFQfgKWuGRnDNaOdCProyStaIuY78PB87Xstvb8/2xeq4UDtKu32ldIh8ZT7cUQeTdK4Yp4pfR8H+fJS0UZ/eHAnDz8ha7rgH9uLMFyYLvcxZ8ZVMgAkwgcFGgIWeSDM+8IRelgMXfGintMFJCQ6qcLLEQhJkETcHfolHwLt4Ch2LH4JjUuZtstDLnBVfyQSYABMYbARY6Ik04zkv9KgQrGvDFjj8eZQw0IaQ/DFYlpNfp0j8uBkiEPoQlrXkx7tuQjzWLwMwvRd6QQR8tItodkJutUF3gyf1008/xbRppfjE+1YGo+dLmAATYAJMoCsCLPREWh+5L/REAsXNiE5AFKEXoCPwW6xQfuaHtT11WPSuZtSgIPTU6vG486e3Z3Q9X8QEmAATYAKdE7h67c+QSIbht7/9SFRMQ76jl6gt9vPGWOj18wkaQN0LtJyAf8wEqDLwuRWG1XuhJ7TigGYIxTj2E6Gn1T6B1+3VA2jWuKtMgAkwgf5J4OOPP8Mex3E0N/+rqB1koScqzj5obAA5Y9hKMqgvFzwP64J5MLcUwLzzYYTqGqianhaOPVrIu8KXgTNH+udn6Wjhq4fqqfMwN6+DJp2AS/QCDu6HuugCrJ8I2cLdv3JR6PHRbffzzlcwASbABDIhwEe3mVDK4JqBuKM3YJwxMuAvXBIez8EJ+OwL2pmi//bSf9/XOhd/CltEdfHqzpkj3a1ZO1pQeZcAINTVS+OqFu67sfBdKtIceZjg0GGQ74N3+chuR89Cr1tEfAETYAJMYNASYKEn0tQPbKHXn50xqCCytx6al6jOXOgroGITrAU+WF/aD8+YGTBKXofVNw7GVTMh25As9CBkCo87Af371ZCuofIqkm8RHDUfu4qP4PmDI6EIOuEurIFnagM0nTpz0PPJRzTJOaQ6n4o5xx0tlMF6GBLbW35H+6ry1CyEBXNhKzgCreAQcoJcRNYmu47sWHYNz0+hki5lO2Ah/1ONMp9Kma+AdMkd8J2Z223CS++FXhB+twmahxxQ7KOkDG1HD1aRPiYZNcPJGBlh4ouYABNgAhkRYKGXEabuLxrIQq+/O2NovCfguDiUHDsaoFwyNOxhqyIRJ594AhgzDvbD66h4c8cdPYR36k5AqaGM4f9aDb9QP2/sGvz5vito/q8FsFaMhmTUOHK/2N6lM4dsekeHDME5JOZo4aaf64IJ7SmHtS+YENnFBTEUMumJZBeRJNeRd6Fa8vewz0zw1xX6PvYKbH9OX4Q5cUXGhN6vf22nYNvf4qOPPkJrayueeOIJlJeXd794+9kVLPS6npAgxXD6RlEM5w3Oju5ny4a7wwQyJ0AF6l1NedBM6v7EJPNG+++VLPREmpuBK/T6vzOGYsUUqJvI53bdBWjmUNpA8yKoZV/BeHcpbKEZ8NBRrRDLlnp0G6wrx4/WKrC2oAG1YyLOHyDhdfZfWvHVsGtwrdgCm3wdQiupMHKnzhzbEJzQ0SFDcA6JOVrkUQzh9yUJ7e0pSrOqOrqIxF1HYkJvLzRNl6Db/hhkgtCbSAWXw64eXb8EoWdcshFffvkVfvKTn6CgoAATJkyAVqvFnXfeKdIKv37N9EroBSl2Ujos7VF90PcOjM+shXOECf7D2ug1zdDfuRTuMXMpnnNu2gSYILUppTZBcaCOJUthaMyH9Ys66KPxAK45j0DXNJrcYjbBVBgX+Z0Ra2+vJ0jpDxxllQLu9v5n00i6uNIT0P6QfKEPR4p0+zaUQ904Elo5/XF09BLkk6iEkp+Sg0rs8CTsVGfz1N5dexVO8t22jZgJzTf7Yd5NRdTJTtEip7GA5rlDHATZJj5YCd+qvbBP6n4usupbd3G2WTXWxcXdPScxnjfDZwYbl0Ip2DX+mdZt9J4gFZHXTa+Hj9a+dSbgOngCzhby5qbC7+oM2836sh7HRGfyJKrzOr0UFuGUpjJ+qpJ4Z+Jnzz2HapY+upfCZUReJ5l09Tpfw0JPJOADT+gNHGcM9cZHoQ+ZYJXWo3z3BeDnUzH7/3Ph32YeoC/dUhgwDc7tMxBcUYrypnF4dc9kSFpPwrK7DSbB9YKOVpWCw0XUreOnPz6CA7ftgH3EFvrZfNjatnfpzGFBAyVSJDtk6E+V45aoo8U/jGjATlmsPdo53F7Qvqpcwm4gOW4EV34I5T0NULy5j5w8ylNcRw7BeGwK7QqOgzxYq/onRQAAIABJREFUBJcQU9i4EEM2FOFP73cTX0hPEoTeTvsR/OAHw3Ds2DE8+OCDOHv2LIYMGUJlStTh/z300EP427/9W5FWe9820xuh53j8EXg2v9tpiRjBjq782Gis//wQTHLSbnV6/GjBaYxaSBZ1W9J9OZBAv/MsCbtI3CfCvsrvY0y14PVMuwFC4sxP1qJp1Iz22NCu6aS0lxXKS7DcXU470z0sVJ4mrjQ2/rypNQgdmABn6SNwryR+kshuuJZElTVEIRBV9yJw+LGseivKxb4tkBddgf0K7dpTCIXlbj0Cb74LQ11yTGvSl3ngCgXD5qcRgb3tUddxtr1tPX5/dvG8mT1X+EMzwXYyfNN5GMnu0TlVWPv5CNIfwTZyBZJ9Ym8Xg5m1neVVPYmJzvARkROUfDpBSXdDymdP+OzeeRqmK92fmmT4+H57GQs9kaZm4Am9LAfOzhhZAuvd5c7S8bCVHcror83EGL19+/bhuedol/bVV3H//ffD7XaH//fee+/he9/7XrvwE8RffxV+fSv09HBIWuEZYUdgO8VaPmih2M2T8BZEhJ5/1woS3VQUPNQGzebFFPeph/bgaFh3zoCm+H7IGyugbsiDpyUfbgohkNEOmLElD41k4fdZ88NwVr0Oz3AtbJVkD7jkQ6iM4+G1noJ8zDXYm+7EkoJ3sbC9PQX8NUthoftDwZEwb6cwhNIqeOiLKohxcBwogG0+hSdQsfLQzE1wTjoC5d2UXS6InsCHMJZWwkXXKWVX4JMoyLHmWjjhR7dzE3TyruNK1cVCJvtV2CZUAjOHwji3Dfa/1EFLX5QhQSRFwx7CQk/xNU6vWYJHXv9/KV60DbJK+qNmeH0CJ9oBOrYU6hV5lClOO+/UL09JLcWmHoC1hewVa+mPsCoLxcPq8XRwB7Z0Nt4z1E5sh65lN7QbANOB++G4sxR2yWSYVpZBW0xe24Ej0LXHtI6G4lgVlHVXIn3TPwflkfX0/L1wFjZQXGwzINxDu7KqVbTjSvG9FtrFckvzEPRfoMLvc+GizPzUU/BAk6XDvXpsj8TZOhcBr6XO8+MIWna1xwE7V1Hh81InZLJr8BUugrMiH3bamTRJTPBVnI6000yWigk1K3scz5v6qyZpbVxDsHA+HMuvQHeTBcGZ5M8dvAZl5SqYiq+EhZ6jeAfNDe3u+VbBs2oYQqFWGCfG1uHPYX36f8Dw6yjfys0wh/6fhDVLa/6fhPm2wyGtja6ByXC23z8O//ez13DoP2gOTu2mP3hPwTGGvM27ionOMCZbHZu0wDsw0B9r6s1zEVySyDhx7l+Ecv/C5M+yhNb/g8Vwr/o4Kyei3v1mvzF3s9ATiXvOCz12xhBppXTfTIh28xR1k+GlHZRMSumlJmOcO3cuHKeXGp934cKFduEniD9B+Ak7fbFdv9tv7x8FirMWeiROAqEIV8f0JylT+S1YwpuqN3fIcnY8XgGsGgnjBNq9OJwP834tTBefhmkMCb2S7eRPfDNcgpASkmEe/xbOM/nQT6FjrYQdPQ0WQE5fKAHyU5a9dAT6ZZfwQNUd4R09mbBDWFOEC4dIcC0ZTUdIRyARjsw2T4NCMhLqMU4oY+2F/ZDpy+aLdbRj9iQMw+2wnHuC+rKXxjAMtilTYB+/F+5KEgU/a4bxEImmBfnwRvsi7E4ahZCECnI0uccH81/skNB7wljsl0sp9nQHgjtJ7M9RUXxrDRLjSsOw/PVQPHUVjkN3wHRnFUJbPoC7InqMlST06Nrwf1N5oK/XQXuadvjK03Cin1tILCLaB/8q+vL9yevQfL4DmG6BYlUedJ2Od3R4rtpfdDwZCMay1K/C39QMR81WvHh0NPZ9Sc+YnhDTmtg3ST5cpREG/i3kW03iRnH6FAy7KVHr3CL8YVI9bmmcif+92Qf5uEuw/WUb7bh3svuTcm9iqIX5VPI8myVLSSTH44Clu6qh/PJbKAs+hH7caRiu7SMRFOlDYjuJxcl7HM+bpvvJa0OYFy3sN22FQhDuJMGF9WL6ehV85MOdKPS864Q/MoZFGQrrkOYluD0+9/8izH26NUu8KxrC18XXQGQd26c8CXvBIpin0h8XBRNoLZLQq3sY2tbZsE46AONRC30mFZTgFrk305js+LCFHdBvIZHlIyBUXmhnnDz3320+C3niZ1n4fUFr1VLcRP2kBLgcfrHQE2lyc1/oiQSKm+mWQIh2H0AxYenKsKS7uadZt4LwE3b6Yrt+N910U9JR72233dZtX/vigqyFXkInuj+6JaF3mL6Q734UZv+9MH+yD/IFEWHgU6zF9ymm82MhLjKcsU27P79TwExfDrbqNvjkq2H0V1BsZh1sF6dg9NpLKFx1CJ5RazAkKvQUEGLelsJDu2LaA+9SbFkznOduRvDoVpjqRsJOwtEQa++LS1j06h2R59HuWiCYB/f0n0eTciLHat6Vn8I9i9zxhJ22sDAD3AlCLyxoOnzBHoCptRTmgkhcqnfxeCoztBiJcaXy7TMhXfwk7eq8BWdJpJzPAx/OxB9iWd7phF70S1JOYjYtp1ShRzukztL7YLg4GrL7V8NbXIshlEmefrydrCShH0vupZhK4dhY2IF5AK7ln0JXJwi9aExr5VmoEr7AhS/vuNCLiBvhqDcsAEh8KqZfgIL+EJBMrYZjVmfB+F3H1FoVwjyvgV+RD1XtW1CvjYruaBzwxUNrUGAeCsfxAlh+RjuQv6/BAxtKoexC6MUJZBnP24nQS14bCUJPth+qn9RD/bsdCE1JPLodBu+SR+gk4V1oa1KEdIyvELqQZg7TrcNIctlVeBvPIiDxwb6glnYzD8E7lcR/pzHRdcg0JjvdiomXDENy8pvAPSr02j/L5NMurBVbWeQzlssvFnoizS4LPZFAcjNZE+ip0Et90Pnz55OOevPy8pKOeq+X8OsroRek40BdaT2wfBtskq0YvX8y/rRHAdPEp+k4aSO8e+6AY8JC+nKqhr6pCrbCbfDMpOPX249ANpWOBZ9dDcXWSLkcZ20eTMIX+NeboFyhxwMNtNN0RjgyzYN/A4nAxhmR+Erhi7EqH0eEjO8512BrHg1jrL3l60hk0vPKFkFLgfEe3VJIX/wlXHSU5tlZBIkQQF8FmJflw1ZHR3+Hh0L/k2aYhF0oyho00W6MjfrtLjsC9TMXYDi9CXiGEpToPd/Kr6DtIq501uY8vPL4O5AdOETHVsPgJ/GmXHAJ2kN22IqHwre7EuoFPihr7XBSyZ/Qfj31tQ2WM3YYFRfoyDuFU4WPdu/2Q3Ocju0efxm+SdSHA5RU1LIGsqLTMIZjIkk4j+18vEnHp+HdTkpGEoSxkDlfT3NGu2O6p87C9MUmSGiXMhbTumvmERTE+kZH1hEuNfBVt0ItxMW+UUPCohLPXi7DZ7/+FuqHm6GYRDtVI8bBRGWZgkvuw2Q/7fa9TyWaoh+KEMUGhmNqE+717gWm/YMQZ3uMxPGwiDg+NRMXPpkLOR03JsYBP/aL86j85yJid5Z2dk/jmxFlOFZ9AY/WFeG9aZSBv4QSy944BOe0+E5Sj+J5l5+GbArFLv5+H4ztnY+vDeckOr5eICSwVMB7DyWeba6hPwIsFNe8GJ6VV2EYuwzu4o30bxrPKSfMS87D8Dn9IUSfidg6xK6UuU+cw5m0HpqmQHvZRMfrWzF5dx5eoCP4YKk+ev+tsNDRu5eO+w1Na2Gbuh6mU6u7jInOKCZ7J5WDkkcni/4AUv7sHeg+r6M/CqaE4599bwIlqXNPO/j6O6OfZdr1txUSpzufRmBnJBEpl18s9ESaXRZ6BNLfDFeIfoGeuwJFSUFGx44i4R/UzYgl9FIh/sd//EfSUW9M+MWOe0eO7JvSBL0Res7p5SRykmOfrtviiJZskB0lMTjprT6I+6Fj1senwFFxKrwLNzhe0UxhiqeKH+X2dOQUh0gZ9PaZH9EODsVFkoD5/u7J+N8nqMwGlTJyZFCzsqdP7sv77BOeRGDPWzBxuZ3sMAs75BOvwBkLy8ju7gF1NQs9kaar50Ivcyut4NEVUJWehuZM51mFoIDk9Cnmnb/vb3odhjn18E/dAd+WaMaofzdUY7cjVFJNuxcUwNvhHDGl30E6bph4lv7iN0E42lH5KOhYOMbI4OWlgHbDuckw0DGXueZ9KPd8Sl9knXHpPoU+g0fm1CV9JfQ6E36x497vf//7STt+Ygm/3gi9GzqxPtrRmrMfoYIFlAU+oW/+0KHPmXYi7ZAJiQs3dLAD8+EhnxPGja1AHvW/DVAtM0HdshWuAhMM3dUx6o9D9tN4jimoJmhmv2v74xBuTJ8oHnBsJQL1h2AdiPOeJTQWelkC6+zyHgu9rKy04rEbiUG8qX3qLMW889TzSDzQK4GH8fafI8HJ4WOJX/0Rk95IKOKb+KCUfguxONZJTdFg7lYYblsDeTP9lSnvDjDFutxE8SJf09EDZR4I7djKPqZswgrIW6jeWZqSF12n0Hf3vNz7+fUSeqnkvvjii6Qdv7/5m79JEn633nprj2APWKHXo9H24KYe1FHrwVP4FiaQwwQy32DJBQgs9ESaxb4Sev5dS6E/SIHDFKCv3ayFc1wVfOMnUPD2JSiWk2XWJCrbMMcCF8VThdqKYK0dB1c0jd9fRsVgY9ZcP6+C/iNKqaf0/uBmQJ+Q/u44M4ME1lb4L55EsFLIvKP0/wedwOWTCFULQq+7Ug0XoP8hpdZ/uQ+GaJqokOlnHEOBt4nZTLE0+NrV0LUfMwjHUcUUVzEOz1fOhL5MATkoIyzBYkwRpOLEc84CMkpS+L9MWPDHrVjZXqagZ+UTRJr2ftHMjRJ6qYP//PPPk4TfD37wg6TkjltuuSUjXiz0usbEzhgZLSO+iAkwgSgBFnoiLYXshF4kHTz8aqCA69a58FZHtt4liYU+w4HMl2CllHPVUSdVML8Z1p8lp4x3al9GWUbCzxKtuRS7S6Op54+Fs40iZRyEsgZUT+lxCtot8eEhKg3xcSWVcsB8KDfMpoDmT2E62LUFGO1/Q3n7hxQkLvjCRl5C9pPy8mqEklwi4mnwyWVD2hD0noa9rhbmX12B/jRlyVE5hJjFGBDdyWymbMIxwxBc23kKfeblE0Sa+H7QTH8Rel0JP+G4d+jQoUk7fp0Jv14JPXbGyHxFkkuBk5JB9I2AtnYuFFTCxHXqJGTVe+mzn8ZdIkQe06UVWAQTlQiJFU/ubSjFjXC+aIOXPKg1SxD+3Rr7nZU5OLqyW5eUaihqZnfp0pDueSEhAWfDvXBSYki6w9juMvIzC+/pYqT9yLkiq/ngi7skwEJPpAWSndBLeGhXR7eCO8L0PBwJ+50KwchuyrrbllAuoGv7sguVeVRINW7N5R2xJknoxb1V6eiWhJ7hMGWhUWkIl7QIji8XwU3Hub7qj6Ct69oCTL59GEw3UdHKFKGnJkeIsO1Yl6/kauXCTqB+BNnShOa1W4zJqbCtOaGqe5cp9BmXTxBp4vtBM/1V6KWi+fd///ekHT9B+CXW8ZPJItu8vRF63ZdXGcTOGOnWatjpA9gX/ewKtoHq4Da4yRIrnbtE/LMXd8noVSjFjXK+iNbeE+q29UjoCSy7cUmRd+nS0Mkvjmj9QFliTcH2S4UQGwtUZL/XeZ8zC+/p8tdWf3Gu6Ae/W3OlCyz0RJrJPhF6ZFFjfXAepX6vhoWOL+tG34F/W3EipVwAFVF9OtGeaxvkL0VSzGtG7cTmdmuu52G5/EL4/QtnJpCVUDx9PkRJHtopVEpBsAtrLKdfItvgr6Rio2SHE6g4AA8dAWu6KNVgOjMZtvwqyJrJgzKq65xUtNQy6QN4YgVYBc7tafCJsXvCL6a1CC7cBDuVOLM8RWUNDr0F3cG4xdiiWmBWUTPUh/aRfyXVPirtIoU+TfmEXDd/HyhCL53wS6zjN3z48PCO309/+lPs2lWPT7xvZ/3p7F7o5aIzRsz94H6gqZ5qxp2nGozfQlGxiqysBDeHaHhDgN4nH2R8QwWmMRn2PY9BHhN612bCeRu5UXy5CeqLVAYl7Hawlz6/V8JOEh7ptwgMn4EaskYrbBiKaYVUnBYTYKMde3c0VCRYOzRyreRbBEfNh3P5tQSHBXL6ENX5IurEsIH8eAupEG8gD3rBEQRO6OacIHcPcgm5SKEej66GZ13ckrB9QSUIPVWSG0rU5SOTdsnvulOXlE9mtHOJOGGkhJgUJ/qrUsbv/DVU5sQE0zeWJIeRiPOJML+/RJV0F35BpVJ0hxZDX1BE76f7eMSFnvlyF2uhK6eQlT7o+4VzRdYff76hEwIs9ERaGj0WerRVrzo3/wYZhos0eGpG+EtfK7NH/D+ForG37YfuE/rLs1trBzq2FSrgS9vaq5t3e0un3e6sfMK0jIsPi0fk+rU0UIVeKiHB0UMo3tzY2IiL/i/w6VmKE83kxc4YEUeC3xfBQjX6DJTYZIBQFJc+g78ni6/bE8I9WhfguxM3txeTtbYKO3rfYuvvyLqsiETSlchuUSS0g8rUtJaTywgVZSZLL8dR4I6WpShMaSNWjPgIhYokuUMcfxeqJYkhIiI7X4QLRXd0BNGRw0igcCuGbCSHEqHGXbo1FBN6x+kP5XRuKJm0SyK5K5cUdOXSkOIbHCR/3hC5esgCEQeSmLtE3Pkk5m6R6lebOrio0HuPhOZD3ayFzpxCiE1/ca7I5OPP13RPgIVe94wyuqLHQi+j1gfCRZRAMZZ+SR0nW6g5Uyhz9kBGPq1ijyxd+QS9QqilkLuvXBF6sRnq26PbHHbGaCZrtyIqZkxWaHra2VLfRLvjp6nM0bgUd4jDcdeAiNCLHN1qAlfJRiriyBIReq/SzvqzcFVELKKEI9qza8tRmOLuEBN6+7AsYskWdYcIRu3I4iEiaT6DvXG+6OAIQu4mBWsh35YP5YirUC8nb9uknbOE50eF3trabzErnRtKistH2nbDQq9zl5RkoZc6B/Gj7yQqCTuN7VZy7eMU3C1I6DXTLqr/MdgSii3H24gKvTco/IaKaHe7FtKFuoSFXhkVPN5K9n3NkE7ahED16XYBej2dK3L3t/b1HRkLPZF4s9ATQAop6xFRJSXTcH5dHwIs9OKcuzq6zVVnjLj7gR2ql8phllCox/AtMFxeQI4HMXcIO3QN+nDoxsdvkA/vOMH1YR/MrQtx30bghdN2mJT5kdp/7a4bNWitOIHiBddg2TkO9hVfo1jyz1hBDhPv1V6DYeIRamMXtTsrEhLyxrCIG0f1w/BsPAv9oRlwFcVDRMR2vmgpc6JQcAQ5vgrBBbPD7iYtUxtQUNUGDR0tS0ZNhpmObZ1Fj9Ku5Gth39/Yy0/FkpVzBceIdZDOWZLkhuIcVQtFd+3SyYVrTlcuKSZgSWnnLg1nFpP3caw35Gwx9lE4yo7BNYp2X4Vnf1IDlEacT+Lz+yICRS8iWDwSwUk7YGoq7uDoEaQEPlWRMC/7qOJCRSdroSunkAkIVi3sB84VFIK0oOO8XZ/fqLn3FBZ6Is0pCz2RQHIzWRNgoRdHxs4YWS+fG3yDmM4XPhhvq0DowCmyt4rUAtUKCWEVJHzoGNeXVAEgm2F30u72NLF/2TTb62tp17ZXjh79PNSF/KZ7N2+9BpwzDbDQE2kqWeiJBJKbyZoAC72skfXNDeyM0Tdcs2g1cLQepoZLkNCBQqhtJO0uzoBkdy2CFYuh7XnwLzq2OxeaG2w55t9F9VN76ejRf0Nd2uDe0Pt5y2Lp5PSlLPREml4WeiKB5GayJsBCL2tkA/sGdsYY2PPHvWcC15kACz2RgI8b93PceYeMYtMS0+ZFapybYQJdEPj97/+AHwzNx/79B3KCU2+SMXICAA+iHxK4Ak8juRGVFPSNh3E/HDF3KXcIsNATaS7Pnz+PY8eOidQaN8MEsiPwi1/8Aj/+8Y+zu6mfXp07Qo9KYjyYxmFCdO7dPacHvp7BE9CNXYrgSvKdnhXtcLCV6uQtheXcaJjIjhFHT8J5sBXKPe/CViz6oCIN9qlTAzWfhRNFsE4PlY+ymLstAt9HLLhZJtBDAiz0egiOb2MCTKBvCOSO0COnLKqPls5hQmxyXT6nK/edLjoilFhJLY0SdsY4OAGffWGCjIruBuqehmHEIbhjYlDsgQnt9aFTA7JyomiF4bY1kDcnFnzviwFzm0xAXAIs9MTlya0xASbQSwIDUegFmiwd3Q/GULZmqeAwUQsLDsDaQsV5a2dQ+QoL3IV6PB3cgS0teVSfbiTMB+ZTiZBK2EfkI3juXlgOTINs99Ikl4SwU8XyO+J0W8jJYgNgqlWQW4zwnDRuERYt3LMXwjnGBHtlEdRUmqO9qkesJdo1s5G7heXiSKhG3YyAhOq1kWuGh4SeMVgCrZycGQpmwLb8fgQEodcwDkeOF8BCZUBszfMhDV6DfXopbJfzaYssH/+0+FbsXXUWkJEzxfhNaCxswLyD9LBAG/S/NiG0Qg+ThHbGwo4RrdCe2AQsjt8/b/FotPx2JBRBJ3GqgYdKpvz/7L0NWJNnmvf97+5WMs+uNrObvmZqexjc9iF9+5F0RoROeYRRK/idLS5irZiODM3IQPGzqawY6SNNEYXC4gYGdyJWDWzpREcLWnGCS3dA3ClYuw1POxqP1m48yhxNpc8zwT7v9j3vJEACAYkhEODMHHNY4L6vj/913ck/53Vd5y9pOFKDEH1MNkNKBAlrzGaYUyJgpI38DV8vhHYlUT5qp0G9N5P60Zvy6e5JFAKiMSfqlCuvIL9YgYmiABu9iTJS3E5WYIooMBGNHiAkqvUiULiSCi/1JB4WyBJtSLj/CJI+qQDW0XV5EWRObsHwaQGkuc9Bc98bMCpuwqmQw5KeDEvG79Eyv9iHkqCNonIOeBk9TzRKTEmOza4Ex/R3P7SIBgjc6ArfewfMJVekbgDxwk21EOoEMVZXkLn5HQzWZF+jd2kzRfbIw+UvJ452Jr46tICSLjdDdS8lCG6ug1ZMJu1xSgPSbEROaxYiz6zHx1HFHuZ2f+Jmd9Jl9/0Xt8YjzZGJkoxIyoUXDZXo4LCkhlTbRRibbkOpuAh1dBs03UQGcQoMbT2s0jnQnjJCI/Pt8N2SKASdlDd3w3nXqVqmyEPM3QwrBdjohdVwcGNYAVZg4hq9wfQDN2HCbdDMyU9Bcz0S0nm70R5fjnu2zsEHn2uhpETj9usWaH5UBvFRSnpcSMlz1zTBHFsF5Y/6cViDjJ7XVOmrxw8twm30KIkyJUKWHUxDrJ8p5jJ6A4gX/UZPAsMzT0Mf/xs0OF/yWboVdxANp3IpGmbu8TKTgun1oLpcy65uTJkahDukqJ69kMyiH7pGrxm1nWmEVdSNhp0HYJAVwLmLWNvDkBqSarIgy50OkxBlfKSesG+lUFPqE9OyxXix9Ukc/3QYFGOAJApBpwQhNx/v0+M3qgmkABu9CTRY3FRWYCooMBGNntNKuLEnBNqEF3WgmZZA4wS6QSlsdQshJmqBNK4NOZ+cglZGS4pzs9CQshmq1iq0JCXBurkBSXUqtKx7A01f/w1eqt8C65IaJJ1bQhG7N2BN3Adr3VL0pW87sw2iZMDctQmWue56/NEiLsQfgaJGglU9EmjfngXNI2Qgz7XA2HeAgpYyk5e7KA79xItTSK2Op8jYKzDvoCXoTEDfnEnLy0R7aIrGcfpvcStF0l6jdmW8g5wzqXTtZrQ3pkHWsQfyuGYknDoOY+I0mGlZV4tMaGfWwCDdS6YwH9+vjMNv1zQiaes1JBFdQ1XZf397MpljaQUtYx+A2rEJhp6Dw5IaNBfUkFfHwZx2Galb2/C1JAE///GHOCYuQkPENjx9dh5+dTQP6pjejAh3R6KwZFDklNqmT/wdWui/+cUKTBQF2OhNlJHidrICU0SBiWj0JtLQtG9ZTmblFEyJE6nV4dDWRqgerEHqlWEihOHQTG4DKzBAATZ6PCVYAVYgrBRgoxfC4XBehD6fOLUFFGEMYTWTr+geiuYthyGljri4HM2bfOM7uXvERm9yjy/3jhWYcAqw0ZtwQzYFGkz7C+nQiVjce3J3CnSZuzhpFGCjN2mGkjvCCkwOBdjohWIcbxHZ4RpkRHYYZ0RrKDrHZbICY6KAvbURtqiFiJ1g4XA2emMyPbgSVoAVGKkCQRk9SuLrIAyh3/dhaxViV1+FrrkASYMuoKU5OjSgF/K2Zc+h3HaUA47KEd0tmaGPR9sDW9MRaDZWwbaygqgKCrcMtmrEzj0I56q9MJcvhGxQcrsBagXJt23f8hy0CiNRLgJfduzTwqtJtsLliDyxHl+9v4a0pjx2DxbDkRgNUUc9LIhGqoKg9GdmQP95EYihMfavdhrrzKtIzZCg4bUjOKMownd0IMZfX1yNG3ZuBNN833kVTEnD33vnehw0pwNDdPagvfAlJFRSyh9KkK10NYDm84k9UG08D6zKgy7GCvOJ83QaO8V1ECdUXyIc1neR80I+zDO1sJ1WeZ7vZqgf3gZLVDpMR9Pv3nzdaey9nz1HDRLirqHkSq8edzmifuq0Hc5CQmYPdN9U0gn10X2x0RtdPbk0VoAVCFKBYIyeadmzaNn/Hkrk/hpBaUzs5N8o75w/X+V0dMEBCaTiq5Q3To9YIS2HywQIKUKOwL6yFE4yC4BASHgeFTefwfFvPdcMqE5Iw5ET8x7t5xL+IJS3Am/aF+DX35S5jE/Lpvl4+pd/ROJbH3muGV403/ICFNhWRadgb8D4+W6/qVWGL22AFq6Le/sfideFE8TOA5BlzoGtUeXKG7gW+1w5BI0Ln0V7+VBjEWAfArzcdTo2nk7HZpOxPZEFUeUSOE/LfcfVp8zh50aA1ftc3j+vginlzvcOX4+QV/AySsiw+X00hipemPvLgQaf+4T0OdsBYe6uoi9Wzjao6TS5Lljzc4cuuubWWc+ckxF1hpB0389sw+ysAfkl7yzVgCuGH/uBz57w7Gpkxymv5KyAa+psqX6vAAAgAElEQVS/wV+dXmmJgijZ361s9EZZUC6OFWAFglMgVEbPTa9wkxjE+QNIEIcUaCA6hFa0FZb4d5CU2YXUU1ugVsRB6dDfgcxABxwyayn3G4EholJQsvga1MvzYU+pgD5NjiTlLeQsK4bt+nk4sn9HyZCJCPGMGbh5Hs69v4cBxcipvYWkXVsgP7sHJXYVfiGvxz9a5ZBeqMYfX8hEd5FXeeJmpG5sJJG74EwrQMnNPVBWdlE0pQfSbEpLct9BqHtJFEfLkFT7HOSdWjgOEdnCm+BhvwqRgiKMX3fBjiUuGoa4qQqaSvo9bkOe8QqSOnN9tRBCNk07oayJQ+qF7TAsFj5kJbA7IsggR/gYPWfnr/HT5DfwezLPDorymShNTMvWfp0MaYDOm+ixMwKFlxbg37bWU3QwE/qoZmhKu6DWEvlDO3R/LRSBdb96iReUMxA7ISVyR0LWeuSkLYVSNh322qz+vkRFomGjF81jtxzvbh5ibpAuOLyNNO0hCkgXbF9Toufy4xT9HTDP/RFGvOZV+8r2QeOcq6jHdq+xUtZmQNc5C04boDlKxrzTM2fP0Zx9zU0UcRwVvmx4XvZ3oSGzk7A/HY6t3sSRZiCe5g9F8WLzXqXxyoLqZCRKDq1HUvw8vxFkv3SXmQchm9sMZdqTEN2MQNL+3VDL3EbPub8JOutaMtTvwRT/JW5Wb0dM7zxUvwiZiaLjvWNfp4Bhk9cY9hwYRH0xR1UhYWMvUSUbmV834Q8KCSyl3dBRZNi5TA2TqAMtM42wH5QQR1qPFtF5tCvcc9C8zpsssxSi6iroztyCasdCikzWQ5S2GbpV/WSYltIsmifpMNAYDPW+ULG9Gy/7PMtERKH5L6YcmNZL6V4RzN659wukXj88gIKTiVcjqvHK2QhaIeghDWlF4bpnXJspufdNeuZKrRRtvQFz9XSUDPHlMZh3VTZ6wajH97ICrMCoKxCw0aMPX7vT3QzTuufom/Y70LtWSKcNiN4JH1BeSY0HkCDcdAaBaCEQGzwJf4ViKKqRVLkAqo4XUZJYRznj9ECeHPpFQjLjAtjnxsOUIeRWgyuxsIGSHWvPxHtxYikqtqwWqlVW/KQ0Dh9kNyMHm6AsfBHWvUJET4iQqWEvb4G6Wg3r/jKIVj9LpAz6YFpJH0yKhZS/rpc720X596js+cdgySZj8giV9SHRH56gJekvC6D6migUD/uSKOrFucSjrfOQMQYQPLw1+O16WH5SD82X9OGDGsTeT6lEPktHw0NeWpAc5uT5MKVQ7rxWNZ4mHNrvvCKF3hE913i4EkYfozGZAePy5X516id6uJNDyyhikkD0CUca9aMzA6ra1KH7K5JA7BWe7SNe0NK802GFpboGuvxa2NOE/l/1GVd3kugBNI8P3yOjO5ASspfGeBvEjRcQu1PIo3cW1iGiOf4II/3zinIYeo+zdiFMP/Yeq9X4IOP/wiaOg7MyGTn3VZChueE7Zz3Elf6HTogM3SYaCZltn6TXAygt+y/7icwNfHT90F2E+2huCeOSSszke7bOovGOhm6A0WtIpMie/SDlkvTMQxqXBiEfomfsDTT2/uasUC76kopb3X11EVXMSPqRGcoCQtfNjoByVRwh+egBy5uFnIVdMJyWQFejgvb6856E5BGwHG7zJctk9LiSZud0SiDfUUFfsHwjcO4I6HT6gkL5HId5XxASh/swn4Uo51xqwzdFlCS8/9U39+jZ8aHgFAgUnGlo6CpAgmASl92G+ZsF0At1vp+O9mcoryXNuxKynX1aj/K7Khu9URaUi2MFWIHgFAjY6HlVN/zS7QCj54fO4GP0muNgsS2lb/xVw5AZMmGhZVzBsFk2gJYr6cNNQVzbzmT6cDiGpKYbSD1IppCMnuZ0NLR/tQ0N9EFu+nwzLLSc6zZ6tGVP2PNWegszozJhbVxC+6AuE3PWCmNmOSUkpuXRpsWe8j7Af5zdh/+1y12f8GHltNMHRe/ymh8ShVA2pW72MnoDCR4eFNlb1C6KguldFAsyIPdSEug2YtJGk9Hr1WLNRSTN/QIGimbIhP1K9+shPfVBX04+f0bP/SHpXu71p9NAo5cqLDU/8i4Z3BnQnMuDlZJBtw/V3yGmms88ED5cN0rQ8ikt3QoG3tOXnNa1A2geQ+jy4SkoM59FiVSIkM2DlvaDJQyxGd8fYaTf6C11jzOxdxX3rYGl/BoZI29qyIf05eEXZEiM0FszaAyK0FJAEc37BxNX/HV72Lo9Rs+wtwdW2W7aVuCvBD/Ph7fRE3RcRFzjb5fA4L10Kxj6hWo43pgHg7p/mVeYC+6xd29dGDSGHgPpa/Q8XyrIpJtbu2jPpxma/KvQXHmHtgeQ0Tu9G7bHF0Nne5KWio/T7zzkmTwrVA8X+5Jl0ij6RuZUln4ZsW+dHSYtzvDvC26j1/ssU8Jy4RlbRF94XFQb/y9vCk6Lshjfy5e7KTjt9LxEU7L0b1NgEozeSUqGvrINWuHLlZ2NXnCfHHw3K8AKTBgFQmX0+ugVbx8n6sPaASSIw0it3eD63bUrcdBJtsERP4uWEHXQtr46LJlBez0fytemwbB3BrS05Ku7RMtsW2OR6ogmMxSHyh0dSFtuhfJUGdQn1tK+vzLYsil6EUfLsRl19GEudx1oUP3VHohPXyBihfDBmIx2WobVNOXDsNII3YXlfeXVZLchPpeWPbcTmqxSgn0ZzXiWNnHrLxFPVu7elO9DoqCI3vfPpLsPI/QRPIzUX7Wrvx+8BaRGC1SP47Q8SUuHIlr6vO8ALSllov3odOT0avE/tkLd9io0tvWwvk8EDAeZt7jnaan4FbScFn6+CO3yF4mqS4SNU5uRIL0GzePPoyG+Ai2H4iA6sW2QTtL8+VDd1MIoKsaS6gi88mEd9NQHw8KnkSN274l0CPcN2V/vdCf9xAvBGGsc62E6lALsyybzXUF63oC6b1wLoK4hxnAvzYOAvi6yid+5cZzIHXSYxRmHWGkEZCmbaNn2PGJHRBjxnldb+syx+O0PYKb9bb5j9RxkhWW0JKqFeN92HO6k1dfyX0KZr4WdlvtEuS/hsGgjPr5ES/y9UUwyxUoyxamfUCR0q5tuYn2bzkkMpLRQBEz9cD2kK2l5f0cZGaTFFPX+lWs5v/fll+5y7DZF1gTKSR5FoHNhWlWBhvlmxEYfArbXwZx4lU5z05cYmof/XN6Fn/bOQyK/DBp7rzE0Uns0FDH2pr6076Al6F6iyuwqipoRkeV0Ciy0LWJx4QKczKgCqO0GmiuRNUvw1VE5tIuehylqH9rJEKsoAthPlhFjheaHuHic0HinKaImlFtVBMMGRd9BrYZ1T9EXoDI4dl0cZuxPIeds/7PX0EiHj2jP5z2FcZ6DSL3q9c891969gRScZ4iCs2Yv1E25MMSUwbLyXU+ddVDTcyg8cyWKciLF0JaRc3X0HhD4oanh3uA5ojdhPv64oazA1FAgGKNnXrcW1l3HQdu6JszL3toM28xb0K/7AiW0lCMb7ZY7KGLxOC3Jfu4+CDIVXr2na512injSMqI0mHQYQhRmORlo1xK1EJnMAuouQFMzgQkj1Cf5vjhYj8ZNhekwqn0Uti4YUk5NqMTZbPRGdQpwYawAKxCsAsEYvWDrHvv7b6FhE22i75gDTXkRNEOtBQXZMAdtxk9oWo/2g/0RnCCLnEK3d6Gh8ABMNtpMTwdenLKl0GdPg3HCEkYo9U1hORwZW6AKxgBPoRnQF/WkaJ6cTnC306nyiSQdG70pOFm5y6xAOCswtYze2I3EkDnkxq4JXBMrMKEVmKjPEBu9CT3tuPGswORTgI3e5BtT7hErwAqMnwJs9MZPe66ZFWAF/CjARi8U08KNQJNGdVO+vzgkyUJRB5fJCrAC4agAG71wHBVuEyswhRUIyugNh0AbkaaUD8xBCDXagHO32CV/qCkh3YJaXOE+5SjgjxY1QkY58uxn6SDGbDJeUkqWalsICx3GCMU5kn4EmhXqxyldTDPlRRtyk5FwGlQNw8w0JH1Neeiqu6ChPF96GWkD0mYQVoTyrD2TDWveMRgTR/e04IiGjC9iBViBYRVgo8cThBVgBcJKgWCM3vB59EbQTSHvVivxNA+4aQuBY5f8oKZc+eby0RThQaDRhm5ZUybVMc2VX8y8Usjsfxs5Dx5A7Of+kWojaPnQlwxAoAnoKFkTkRSGOnFJKVhkcV0wCgleQWkjHqdkzm+7Ewn3Y918qxOSxULsm7w4qDbzzawAKzBqCrDRGzUpuSBWgBUYDQVCZvQoz5t+XRUshOpy2K7R6cl0/HJxcz+CqmQNWl7MgjmK8rplxyGB8uiZh8UuEd/18E7Ks9WLNtoCaaF6EGpKMFYq+p94Sy6ch9x8ULtzhoep22v05qDz8Has3Pox7pHeAuYXwbLmMnL6cGR5lED3oBvV1IfD2oqRYLW8EWiu8SHjGfsgsUkHZPZHazVUhYC2bh5MlMfPKFoC7a4UqASUlr0eqX0oqEhCteX2Y9fUv4Cy/nW0rDLCJC5HQuENyGKI6GGPgPpQEeUNNLuQbU5xN+zXqW+Ld1PuQBe6hF+sACswBgqw0RsDkbkKVoAVGLkCARu9ESLQ7KXP4Qcn0vCn/VbIom/A8JkCOsJ7JTRTouHWLESeWY+Po4q9aAlCRG8Y7NKqgxANRBtdosS0PhB4ISKWBcdblZDnPosXnVp8JSRddcnhJga4I3pCBNGTob8XASXkvhuEIxtISbgTVms9fBFoQr1CPcQV/ewdaAV2be/LSQbUQYE56QxKI3ILtqZmmEqL8eqZSBynSCPWeaGgXASOgbgr6kdGLf3eTXsQedBWxpvJSL2P+KQxxbiHcrdduxKCXIEjn158JSsw5RRgozflhpw7zAqEtwIBGz2v7gy7dEvZ6uXrrkFOwSTRyr0wxRzpMyVqyo/msPfAXphMRo/IEM6rkB1Mg00wekNgl6zy/MFoow/l0JHR60NN3acnqkM02onw4M6W34GcPoPlz+h5EFCua/3hyAbjsIbHavW4sFv9CLReo1eLVBfqzM9LMHFbn4SNcoWBDJ/A723Y8RFSK71QUNmElfIytG6mba/Rc7NRe9FWVkU+ZGUSKCkpdMKOImhHOet/eM9mbh0rMP4KsNEb/zHgFrACrICXAiEzegLhgFBI8sRIiGcSdzZPBftWX1yYWZSLH9RIsKpHgszySOxPHga7dHQOMT590UYtaRcR+5AHNbVeC1HZSzBJy1wEArGN9urNzYeNMFKW8miIrWaoFuWjXZEHS50K8k6iFfQioBKnufBYvjgyArkTlWEQDsvpZs76x2rtJbZuPwLNJbPPHjwv4c9sowglMTwpKql5ohHKKsJNKS4idfVlaD8tgmhjP9btcFo9FH24qxvQEo/WEFWK1hQzYoiXKzBqHZkvuvBUrStrocjtQVKMBKLZS6ArWNqP8OKZzwqwAiFXgI1eyCXmClgBViAQBYIxekMj0HpgXPhDgpP/HpYNEXAeVuN71UvwJ1pGHXSINJDGToRrByDQhAhfgr2078DJ4C54Th6LvJdy77ajxCt9MIOYtReI8Qm0bCK2LfFF7Qd5j97dKsr3sQKBKsBGL1DF+HpWgBUIqQLBGL3hGuakCFrOvg4ggq7qAWK3a6GWCz9M/lcfAo2WXJWr6UTtFS1CRFsbJKb9TBW0tTcgIqmdPbOQujed0slMfs25h6xAuCjARi9cRoLbwQqwAi4FQmX0prq8LnwTvZxiyoU31cXg/rMCU0gBNnpTaLC5q6zARFCAjV4wo8QEjGDU43tZgcmoABu9yTiq3CdWYAIrEJTRCzsyxg0Yk7NQIlpKyYa7YD7RjJbrcbB8qr0rAsadoOpMwJjAE5+bzgqESAE2eiESlotlBViBu1MgGKMXXmQMQoklx/ejzwQ5mnZCunHGXRo9IR2LHrGfDkHPYALG3U04vosVmOQKsNGb5APM3WMFJpoCITN6Y03GkF+G6uFiyN7+COZVvaNwA5YTf8Rfdx7A/MouSOlUyP/zwjr88MN/hyMxE/qoZmhKu7Bq5S28sfUypKuiIXV0Q5n9CpI6c5GU2YXUU1ugVlC6FkqHoj5J5VL+P/XRMjABY6LNdG4vKzA2CrDRGxuduRZWgBUYoQIBG71wJWMI+eqeOILYUx/AlNjfeQctL4vtB33IEtYt85FwczccaUTq6NSiZUcH0SvcyZFLbu6EeNEX0H+ZAvP9noTK9iooB1A9mIAxwgnGl7ECU0wBNnpTbMC5u6xAuCsQsNHz6lB4kTHS4cxcDGPKWVh3zHK3UuDMLuqG+a0uH7IEhGXXR6rhmDkHuitGaMQeHJpg9MSCqatB0oeb0f4EGb1m2uP3b38gWsV1F2qsl+rBBIxwn9ncPlZgfBRgozc+unOtrAArMIQCITN6Y03G2PEO0SIakTpXD+cuokzQYYySrdUQ762EukMNWS9ZwpPLz5z8FBm8CtgPzSNlBKOXC8f+CuQ05UIr3o32Q9OQI9kGR/wsWuYtot+roUUmtDNrYJAyAYMfKFaAFfCvABs9nhmsACsQVgoEY/TClYzhpOVlh3MapNIZg7W2d6DhugSOwm2w7T8OrUy4xCuiJx/h8DABY4RC8WWswNRSgI3e1Bpv7i0rEPYKBGP0hutcuJIxHGf2ICHXCnnGbpgy3K7O3kQ0idKrkGdvgTZeMuIxYwLGiKXiC1mBKaMAG70pM9TcUVZgYigQKqM3MXoffCuZgBG8hlwCKzCZFGCjN5lGk/vCCkwCBdjohcMg3kDDmR7Ixddgj1qIWGamhcOgcBtYgbtSgI3eXcnGN7ECrECoFAjK6I0qGaMamuUH0RKVjpL9KVDJ/eyvc4lwCw4H8WM9ZuhO9Ar/uvXAdmIPVBvPA6vyoIuxEkXjPBqcKWhvTKN8e2P5ugXTMjVa9r6DElkNEuKuoeSKFsqhmuCgAyeLaiDNioOj8iAO30zBx59uGUT+GKku7YVroelcAs3MZuhK34fyqJCH0Ffj/qb0wLwuGfqYUrRkzxlLkbguVmDCKMBGb8IMFTeUFZgaCgRj9EaXjCGQKFbAvPI3sB0YxkTUZEDWqvVccwd6xbBDKBzA2A689REaBGPjbIM6ro3SrQxjskIxJU5kQVQaB3vjGgjetWXTfGhkx9HemyJmQJ3Wnc8i9uZeOITTwkKamEWEehuEeBteF6f1XWhfa4Zy70KYH6lCwpfHkUOVCyeRDSkfoAHeGvs2wHXQBRJIRxR17EHLzm0wyNKhz1CMsYEOxWBxmazAnRVgo3dnjfgKVoAVGEMFQmb0AiZj9EDrx+jZDnsRKUrWoOXFLJijtDBmz8P3O1/Hqj56RTTE1S9B6SFgSLP3Q+f8R+hbI+B0zILun6Nh2tIIWVQ3jE0KmN9/ADlk9Jz7m6CzroU+/j2Y4m+h82Q+XrfKIb1AefZ2VSKhthxWhQSW0m4ygUtgSjbTad5uWGM2w7TyBnRb630oG2qtHCZtI41gF5xpRTDHtyF1Y//Pup5iqq+3/AtQ1z4FXXwTWjI8EUzCtom3zoH1UrqPMWopzYIe6TDPr4cs2gxRSjp0GQuQoJhF13VAv64KLaLbcMz+GV6TH8bfe1E9lJ4Qpb21hqJ2Vigz0qGmtDEiio6alsVjbWc0Xs5OgzpFDhms0C7q1TgOckc5kjZeBqS3gB9Tgpk/FmOXSAtrRhtUyc1APPWFIruxeUXQKqyudljEEXDYrsFJBq/hqApS51WYdlahQRoHbfZSyEVjOMG5KlZgjBVgozfGgnN1rAArMLwCARu9kJExBkb0bqHl1wa8lHIBP2k2Iqc1C5Fn1uPjqGIkocIT0ROich56hdBNq76fgPGvekjX3oLh0wJIc5+Dpvv/hf3f/gu6/WvIaMxCwqqrSB1g9BoSr+H1Rc+hRrEZupVkhB64Ae1PzFAWZEI1OwJKxTRYmm7Tvxehjm6jMo9D6UPZyICqNhXG+cdgye6A6pHziFS04QOvn/+7ogOXe8tXKNC+Oh6W7RRVXOMZJ6EPc7tg+KaI+tn/ckfSplMkLYISQRPa7Uw9SnKL0RC1D2+Jc/GCYzdshyTQzt0D8bnNsArJnr91c3rtZ+hUceUNJOzaDLVy4JJ4DxztbTBWlkP3yy6o296DpvrZARoTNaS5DtqoGXDkP4tHOzfju9Mg7fWQt11wXS/87j8Tq/CDE2n4034rmdEbMHxbBpX39HPSXsTSchhscmgL0ngvIr85TUoF2OhNymHlTrECE1eBgI2eV1dHl4wRB5N3RE9YllS3wfl+jw+Rwl6YTCZkN/QUJZIdlEAnGD2BXmFbCoOiCrLlQIOwlElLvPdQZOyDz4Wl2FuwX/53tPznX8JxpphMzywYv1mAEu+lW+qXaeF6/EfGdiyVWmHMpEje+jehi/0ziDrM0ORfxQb9LLxZMh2mcwroH6lH6melUDtroeyjbOTBOncF2nd9BMsGUCTx37F5bho+7vv5GtqabuB/izzlZ5xCzpnFlOZlgNFbRMuornYPflm3PIucmPfcxlAgf9zfjGcWn8fRqDrYD1C6GMEQii4idbqXLoldMOVX+4mokVF++DJKPEu/lo2xUM88RnsVXxqsscc0CvX3Gz03Nk5T6fldXhvk665BrgBEK/fCtMFDKPF0Y3BEceI+N9xyVmAoBdjo8dxgBViBsFIgZEYvQDLG5rejUTx3OyzxeTCl0Kb/fcW0TFkFw02tD5HCLMrFD2okWNVD0atLS2Doo1dUwBSR7UXAuAb93Cw0pGyGqpWWNeeIUfNrKeqFqNfGbux7ezqyog8B2+tgTryKlhO1ZFhEWCJtxVfZFdA05cMQ/SPY/ud15JxOgSWzFnGpt/AP5jiY0y4jdWsbvp6Zgt99vht2L8qG48Q2KHMB3XYJDJUSlO6wIqXv5z9D1M3juN5b/kojdBeWu8yVrcCzL5H27N1TGIev3nfv2et9Nax7iqJjZWifuQePnpTjV2/vhvLCNupbOmzbaTl2dTNS9y5Ay77LUJ8jTu/DvVSPClh6l4U9ETWjbR5F1FRQutBv+XBkFcGYAehXH4Dy1DtIPbm2T+PN5cCGuGYknDoOIzGETcnLaak3Bda36RzLE7WQv1WKpMps/Fw4FPLPt5GwoBnyxEiIZ0ZDm0dRO2kPrDXl0Nd2DxFRDKvHgRvDCgStABu9oCXkAlgBVmA0FQjG6IUrGWM09Rm2LL+UjQBrF5ZqV9MewCvptD9OOBAxnw5EnKKI3RCnjj0nnUXeS7kBVimcXG4/0wbExLnqFIt7YLffhkgq8TGXgRXbA+PCH8KY9nuKZtK+yMNqfI+WdNt3SPFVVBwSZLTkzC9WYAoowEZvCgwyd5EVmEgKBGP0hutnuJIxRnNs/FE27qb89p3PIUdmRMPMXMgrl6D99NIgDNfdtGB07pkKYz46SnEpk1kBNnqTeXS5b6zABFQgVEZvAkoxrk12UKTOdRhVPMP9L79YAVZgQirARm9CDhs3mhWYvAqw0ZsMY0snlE9cg5RSx1hFcUiSTYY+cR9YgYmpABu9iTlu3GpWYNIqEJTRG1Uyhhk5q/WwROWhvW4pHESuUNOBB2TsxhsoR2KlHBY6Heo+iUpki6ZipFJOOyeRLQy7CBs25B6wUSBp0CEGCyX+VVUD6nJKGFJdD2t8Oow74kaUBFiI1okpUjfy11BkCv8ltG95jnLY0dLvBivUj1chqZnSqgyZ0Pgq9M9kw5p3jA5X+GtTYHWPvE98JSswNRRgozc1xpl7yQpMGAWCMXqjT8ZIhoEOBcjzztIm/h4iZegR+ymZFuHAQm/alD5lvcgWvTno/Kk+WiQNIV3LC8BxV5oRyqMneZHa2ET/l9xhrH1TmIxoYvi0+Q53CGlo4m7ASKd/Y+lSR6UasqZ0OI7GDXmjw95FS8R08MLfGnEgdY+oM3wRKzC1FGCjFwbjfeLEr/H666/j3nvvDYPWcBPGQ4Genh5UVPwSTz311HhUH1Z1hszo3RUZQw/l23Ogi26Eqq0MoHQffUZvLiG70p6E6GYEkvbvhlrmz+jdgqVwWz8N4yDl5ksegqQRFYmGjWQsb5JRc0qQc2wTnHt66RKbcDi+Hi+fnEVkCDMsAtt1tt5j9MqQ1ETtTLYip5nQYfIBdfoQOB7GVsV7yDoZiZJD65FEFIn2jdkwzpTA0fkk9HVrIK3ehoTCG5DFUIJmewTUehUsffQPOq2quIGSPurF4HaZsQ3yTq0biSa8hNx6DxLKbUDCZbRWQ1UIaMuJ3JGcjZZVRpjE5cPX7aJn8IsVYAUCUYCNXiBqhejapUsSkRD/OH78NH/Ih0jisC/2X95uwHf3fB+lpWQmpvgrYKMXUjKGO4Inp6S8T5E5incCms89Eb0naMlRiKa5EiHPovx10ZQs2cOqdUX0aHn1TT2Scnv6aRj30XImhOS//kka7uS/mfjq0AJc2BqPFC+6xDdPdaH5vzJRkhEJ0exoqDq3kdG7jeLPtJBmbkMONsFKS8ziM9sgSh6GwBFFZI2+aCS18TAlgVbQMnR6MuW3+z1a5hcTzcPqSgotWvYY0Sd+49NmV/68Ydol2hcPzcw6Lz6wYICJX/vZO9B60GeuKe6kpNEOCuRJZ8DsqceWUTts3VP80eDuswJ3pQAbvbuSbXRvWrFiGV5KX4blyxJGt2AubcIo8GbZEVy7/n9QUvLmhGlzqBoasNHzasjokzE8S7W46uLevnH9GfdSqQdt5jJ6Agt2EfFqv6Vkyd5GjxINK3/pQEf7Y/00DAcxV/OXD0nSyGld22cCTWR+crzoEpf/tQNfzOhGw84DMMgK4FxZ3b9062rPRWgEM9V0BwLHJQk0ZPQMeylx8N9Ew5JaDPFRI2ILiYixpgnm2Coof+Q2sfAxem76xyfXaYfiMO1qmbmTEikbBxi9WqSScVQPMWmEvgqG0m30hq5bdpASHodq4nG5rMAkVYCNXmg/l24AACAASURBVBgMLBu9MBiEcW4CG73+AQiZ0QuQjJFZPh27FtZDWl4G4wY5xC68VyNy+oyeQGfIg7IwF6ZVFWiYb0asi2xRgZIoKwzEfXXsrUNSmRcNI82IkusvDUHSKIC6hhi4zs1ob0yD3EqGy4su8bd/U4+6BytomfUA1I5tMIsL8NQ+4CXi7hqiqC33E+5i5QLYZy+F+sKBIQkchuZI5DxE/VrZA+l6FVpeMCOpjv5d9waavv4brNcpcFJ3DZpzeXBkvggTsWsvxB+Bopf+UTULmiHbtRvtSj2+fyYd39UtdA+q9QBkcV0wdhXA56usK/JICZm7NsFCmDZDVClaU8yIeWGYui+59/3xixVgBUauABu9kWsVsivZ6IVM2glTMBu90TF6U5qM4bUUOq772By0VPt4PS1xl1FkD7AVLkeCvdQrwjdhHktuKCswKRRgoxcGw8hGLwwGYZybwEZvdIzecMPIlISxm+SOmiwkNK1He/ZlikpSNO9KbxqasWsD18QKsAJuBdjohcFMYKMXBoMwzk1goxd6ozfOQzzlqndSrj7h5aR8fUOm0JtyqnCHWYGxV4CN3thrPqhGNnphMAjj3AQ2emz0RjYFmTgxMp34KlaAFehVgI1eGMwFNnphMAjj3AQ2eqNk9MaTjEHkDNXG8wCRMXQxVphPnEeDM8V1sMI7q8jwU60H5nXJ0At58rLnDLo0IOIEHeaIXX0VuuYCJPkNqTFxYpwfe66eFRgTBdjojYnMw1cSuNFzJ0TVFH4BcXwkxPYbcPR0o9WxBB9/ugXyEfdJyKFFiVE3zINshPfY6aSccnk9RFmUCuHA4A+ikRXThYZCPfSVzWh3PICElDToDqo8KCn/JTjaG2EB5Q5TuhFJA38eWb3hexUbvdExemFDxlhFJsrZBnUcJQoOcH+ak/ICOiCBdKA5C5g4QXnq7O48dX4PZzBxInzfELhlrMAoKsBGbxTFvNuiAjV6QsLSJbUSvNz2HkrcoE1YNs7HT5qWktHTjtzoUf4v6aIulLgQSiN9ubP/W4MyekJdVwkntQJv9uYlG7Z6Sv76zNMU5eg1lwN/Hmnbw/c6NnpjYPTGiIzh3N8EnXUt9PHvwRR/C50n8/G6VQ7phWo4dlUiobYcVoUEltJuMoFLiAphhlTaDWvMZpgzJDCuU0Mr0sKW0gy1FwljpMSJltIs6JEOg6IequQOqCj9SuqFO9AumDgRvm8O3DJWIEgF2OgFKeBo3B6Y0SMU073ZODF7va+ps12EsXMW1FEdSF1dBTtlukfrZYgpp5dBXIyEjc1wSh+AbPYM2DqJ2Vm0BpZ/2IMTnRLE/ywO6ucWokW7EyZK6Cp2dANRm9BwWk7LSPkwiaIhu94M+/y9aDjQhdReo5fXhZxluWgQKyC9boV07zFoO9VIokhjwqFT9CGVgdQTXyCpqAjifxxQ9vtxMPgzevRh7FtmGdSdBJPPbYNDsQTqlJ8gHv+CzX0/q7BaXIVf7LTSpu/pcFD7VUcroKbIo/rsdMTO/ALt0s04k9aIxFzCOS2+BmOlBPquIlfqh3B5sdELwuiFGRnD2+g1JF7D64ueQ41iM3QrCd/1wA1of0JkioJMqGZHQKmYBkvTbfqXWLXRbdB0H0fCToGOsRm/Feci1dFPwhgpccIdEZxOEcFG+lJWDPmH9IWQrN9wtItweQ64HawAKzD6CrDRG31NAy4xMKNnRsK9uWgaaPQg4IS6YVq0GJsdbhMIAadUNh2vf5YOy0PbcWbxPny3/zK94R8BKCInoJgeLYv0QNEpr6nregleP5cOqV0CyUk1VtRGu//uAqi3Yc2pvXAsd0f0DDeTKbIoR/EnZUiozMBTlXL8tnkG1FS+/K2PqHzhnveRSP9d0upbtmrNdOh8jN4ttJ9ow/tvbcMvzAPK7IqD3ieKODCq6P65JW0vzPPplN89zbRXqh7K/Wfp5xokRddCmtCDMx/MQnzKAqhXpSE1URJWzEw2ekEYPa8nLmzIGMLSLbXLtHA9/iNjO5ZKrTBmUiRv/ZvQxf4ZRB1maPKvYoN+Ft4smQ7TOQX0j9Qj9bNSPF2YDCUZvWvZEbCK+kkYgRMnhOfC2+gxcSLgN2e+gRWYBAqw0QuDQQzM6NGy5cKn8fMLT+KfvjwOTe8+HsGIVf8Yr3TuwxvwNnrAKx9Spv0nPMutLsSQr9H7pzYCmdP+N3l1so/xMyc/hr876UE+uYze+1j19j44V7vLKrm+gv4eTazNIlr6JaN5PQKy+45AOaTR6zeVg5ZuHdVEHTiPeSvbUDawzBiKUrqMXimMium0p7ALGr8/e5Z2CT11z+rziKclNFMK7eejPYxdf7DiyjeEnzpbBV0tRTQpyqEf+WbGkM8SNnpjYPTGjIxRB3PiVbScqIWmUoQl0lZ8lV0BTVM+DNE/gu1/XkfO6RRYMmsRl3oL/2COgzntMlK3tuHrmSuQH2NBXmcKSmcfwn5pLwlj5MQJF4sWZbRMfJGexVrI3z4LgzMXciZOhPw55gpYgXBUgI1eGIxKYEaPGuzsQEnyNlomJRRRtgoy27swnJ0BfXMRElp3QpncDHleGkSV5WiPKULT9jYkRh+hpddXYFx1Hmr6QAEtw763qgbztnZhdlQPYvdUIvagGpsvSLDhHH240J4dWMl8LToIZ2I6YjuqYY5Iw7+Ud+FnnrIsxRLonstFiyITWvG7KHGko71uBjSSl2Ch/UapznK8eeE2ojKKsMG6Bzv7yp5O0bsq5Gw8RMilSGzYH0fZ84+giQ6T1F9ZAMOigWVKkCMhFJP4AVqOWg/LJTl0Xj+/td+K9EUnXP2z1KVBKb5B+57UULfSdTsoWkJ7oeb/7XmU/WEJirN7UJIPlHxKWfvDKLkXG73RMXqTmozBxIkweLfmJrACE08BNnphMGYBGz2vNgv7cZxiCSckDYNxDKYJbPRGx+gNNwaTgYzBxIlgnjK+lxWYmgqw0QuDcQ/G6IVB87kJo6AAG73QG71RGKawKIKJE2ExDNwIVmDCKMBGLwyGio1eGAzCODeBjR4bvXGeglQ9UzfGfwy4BazA6CvARm/0NQ24RDZ6AUs26W5gozdKRm/CkzECm9oO67vIeSEf5pmUd++0yrOFg/LvPbwNlqh0mI7S/toR7kVl6kZg2vPVrMBEUYCNXhiMFBu9MBiEcW4CG73RMXqTgYwR6FQ0LXsMa89G4vVPTkEro1PmlWp8P7MNswNJas7UjUBl5+tZgQmjABu9MBgqNnphMAjj3AQ2emNg9MaFjPElblZvR0xlF6Uw6oH05/lIencz5aCU0Ol5Ok1+bBOce6rQIroNx+xNqKBT8RsEmsU5SjL+mpuQYU1ppITnlwHpLTotn43Mr5vwh16yxudFcC5TU1LzDrTMNMJ+kJKBP6On8s6jXSGkG5JQ0vNsGGdK4Oh8Evq6pRBVU4qhM7eg2rEQ7YWEM0zbDE1nFuXu08JxaJ57IBw1iH2Q8G3fFCHJ69kYRN1opHbmq6G/Pguxs6fBLlLBuJ8yACzKgjlKC2N2HBKYujHO7y5c/VRXgI1eGMwANnphMAjj3AQ2ekEYvbAmY1DiZPtBymd3FbovC6ASSWB3kS8y8dWhBbiwNR4pjt2wHZJAO3cPxOc2w/qEO8mxptJNyPjuNNyJj5vrKI2RGUk/8iJrrIpDy7IMIG8WchZ2wXCaUh7VqKC9/jy0UYLRiyCedRucRMqxpCfDkvF7tGT0wLRsMXKIiiPfUUG/mwUh955mZp0Xv1pItlyFhM/egVbaPzb+qBuudnZk4rvGaX0JmoXfJaEiCB72OD+QXD0rMIkUYKMXBoPJRi8MBmGcm8BGLwij5zV24UfGUMPxxjwY1ECDh0MtEGh6TZCw7JoTVQf7AcreLaDLRBeROt2f0TNDLRBqHFaYW7v6yBqaK+9AlklG7zSZxccXQ2d7kvi5x+l3j7mNXp4VqoeLIT5qRGzhYpjWNFFyZoomUgJ0WfplxL51Fg1rZqB9y3xKsmwcYPRqkfqtEdR0P69+6sYgQ+oxqUnYDb3zKmQH0xA7zs8XV88KTGUF2OiFweiz0QuDQRjnJrDRGwOjNy5kDAn+mZKM/zSzB/pLRuTIu2Fc+Cw0TqLVNKZBbq2CcnUzUvcuQMu+y1Cfo4Tgj2fBvr8AotyXcFi0Ee0Hu7FqYTMSTh2HcXYVZHOtfWSNxYULcDKjCthRBoOoGJE1S/DVUTm0i56HKWof2gu6oKIIYFKdCi3r3qAE5WKs0PwQF49TIvHTEUiNo3KrivBGD7Fwz6Tju7qF7oGwHoAsrgvGrgIkeD0bg6kbx5FavRZrieTx2/JuaBbVE/7wFC1NZ+EHNRKs6qFI5aXdbPTG+f2Fq5/aCrDRC4PxZ6MXBoMwzk1gozc6Rm9SkzFCOUeZuhFKdblsVmBcFWCjN67yuyt/+eUsNDScxn/7b98Lg9ZwE8ZDga+/7sa2bTuwadMvxqP6sKrzo48+wpo1ybjS/s6otmsykDFGVZABhTF1I5TqctmswPgpwEZv/LTvq/lPf/oTOjs7w6Al3ITxVOCJJ57An//5n49nE8Ki7lAZvbDoXJg3gqkbYT5A3DxW4C4UYKN3F6LxLawAKxA6BdjohU7bkJdsa0aDMxLizi7IVymYwR1ywbkCVuDOCrDRu7NGfAUrwAqMoQJBGb0pR8aohmb5QbTEbIJecRmGE4D60F6o5RF3HjEnpX7BDIhFd7609wpXxE88A35vEfb5LbpMh060kFHS5lgr5QAUThMP8XKe2AZl4ZMwv0+HUvxcM2xdI28yX8kKTHkF2OhN+SnAArAC4aVAMEZv6pExriLn4RUwrxRy5s0hKsZafH/LLNQPSHTsb4SFNC85Me9RepWRjr9Qlx6xn1KaFz+3mJOfQkliE+Xlm0F/7YDmwT2QNVMePtlQTu8W7A7KAy0Vrh/4Gr6ukbaYr2MFWAGAjR7PAlaAFQgrBUJm9CYlGWMTLL1GLy8ChuRk6GVFaD8UB7HNjNSNjTS2XXCmFUHXUwydVQ7phWr88YVMdBflw55SAX2anPL6UQqW1yjnnfMLIKMIhhgyWsnZaEA0lNJuOGJ+hlzxYfx9ZhdST22BmsgcLVvLYe0jdKhg+qtyJHx+HBoPW9eyMZZyBJ5C+w7K29f36oJp0x5Y4rXQfq1Hws4IlFxJgWXYuuKoDWE1RbkxrMCEUoCN3oQaLm4sKzD5FQjY6E1pMsYDKCGjZ4onwkXaRWjWNSP21DvQK7ugnxsP4/xjsGQTUu2R8/jvig5cVmyGbuUsiBQL4aCkysa0j1wRPUd7I0zXpyPJWQvl1ulo+JwSMPcmc84wQ0ZkD/23lFL5Xk/iZns1lA97ETpiKDHzQxehFZI6e6aoEDFU3twN59E4n0nrsJPxJEKI1E65+1zlVgLD1TX5pzz3kBUIqQJs9EIqLxfOCrACgSoQsNHzqmDqkTGKYF/Uv3QrkDbU4goyVw+4lnTbd30EywbC6jquoa3pBv63yApjJkXiMk5B27SYjN4xJNHvHxcfxOomiqwVXEPSRsDUvBn2jU+76RoZtb5GrzkOlo8eQdKs/8+L0JGGhkfehWaA0UtAmZv64e9l9TV6Q9ZlWwrDGu+oYKAziq9nBaa2Amz0pvb4c+9ZgbBTIGRGbxKSMZb9KgWnl2yHRZGHltNr4Ng5H0+fVGCVuBuLtRIU6gDddgkMlX+GqJvHcT27ApqmfBhWGqG7sJyQatGQOeKwTVqMXzi1KBFXYW31NSBuE3K+PIhfEV3DnFgLFS3Zaj58Ffa4V+GInwWH4lHYCml59zSZw0z6+zlaQn48F9Lm96D3+Dpz8mPQJ/6O2Lree/BuUKSRUGwphF6brYf8hWvQXCkFklfAMFRdiQKP198+vrCbutwgViAsFWCjF5bDwo1iBaauAsEYPSZj0DJs79KoZ6/cWM0kYalWJTXCumMWVdkI1YM1SL1CS7lj3I6x6i/XwwpMFAXY6E2UkeJ2sgJTRIFgjN5wEjEZI9QTyArtXFqOPVcB6cblMKTU0f4/jsSFWnUunxW4kwJs9O6kEP+dFWAFxlSBUBm9Me3ElK2McvM53Dn8xOIR5PKbsjpxx1mBsVOAjd7Yac01sQKswAgUmNpG7wYazvRALr4Ge9RCxPKy5whmDF/CCrACwynARo/nByvACoSVAkEZvTEhY+yFOeoIYoehOtydoLdgWqZGy953UCKrQULcNcoxp4VyiMKYLHF3KvNdrMBUU4CN3lQbce4vKxDmCgRj9MaMjEH4sKGpDncp8IksiErjYG9c42LEtmyaD43sOCUcFg43+HkN2wYmS9zlKPBtrMCkU4CN3qQbUu4QKzCxFQiZ0Rs1MkYZYiu3uagOhZcW4N+21sORmAl9VDM0pV1Qa+UwafuJFGZFvV/qRMsqI0xiokkIdIiuIojWPQVdfFN/OpKmnRBvnQPrpXT0gyGYLDGxZze3nhUYewXY6I295lwjK8AKDKNAwEZvnMkYMoq8JRABwpFmRkJnBlS1qV5Eimb8rG0NvvVDnfBNEFwAG5EsLNvdpArXS0goPLcLhgHcWiZL8OPDCrACgSjARi8QtfhaVoAVCLkCARs9rxaNCxnDVgU5USFEihnQnMuDda43kaILbYVqrLgjdaISzoWPwZQxwOgtAsyfD7FPj8kSIZ+LXAErMBkUYKM3GUaR+8AKTCIFQmb0RpGMkVCT5aY6fHIKetktGBY+jRxxKZx1xJA9sQ3K3F4ihQQbZVXY5U2dmJ+Hs4pyrL+phVFUjCXVEXjlwzok7YuHeuYx2ArmuEeT9uzdUxiHr95379lzv5gsMYmmOneFFRgTBdjojYnMXAkrwAqMVIFgjN6EJmMIEbrVEliupENGYpmT51PS4VOcdHikE4evYwVYAb8KsNHjicEKsAJhpUAwRm+4jkwEMkb7zueQIzOiYWYu5JVL0H56qVc0L6yGiRvDCrACE0QBNnoTZKC4mazAVFEgVEZvoujnoFyAIqGx4hnuf/nFCrACrEAQCrDRC0I8vpUVYAVGX4GpbvRGX9GBJbrpGwmJc9hIjoLY9tZG2JhiMgpKchGhUoCNXqiU5XJZAVbgrhQIyugFRcYQOK0ziNEKOKzvIueFfJhnamE7rfIsnzZD/fA2WKLSYTqa7hdPJkTjxBSJ836Zk5+CWlwBx6F5lDKlCrGLGiFbOQv2s82wzY5DkvQGzLaFsLyfDvldKRbITV70jaGQG8MUF/7989P4dtI88ypSMyRoeO0IziiK8J1waMbPWAl334k4MqgGx50pJiMZocH19qBly1oknZwHy6dDE1JGUjZfM7UVYKM3tcefe88KhJ0CwRi9oMgYNRmQtZKxO+A+9Wpa9hjWno3E63SyVisj81epxvcz2zA76zd91/iK9y6SHr6MEvpQ7jNsggm4Px9NEQvw62/KoKKTtLKmTLp/GnIeXgHzSqGs28h58ABiP69EaqhHYwB9I7DqJkD//HTInPwY9PG/Q0s2GXCh/7T30Xkag8eq9967oJ7ckWIyEqH91Ssc0FkONHjPqZGUxdewAl4KsNHj6cAKsAJhpUCojJ7jxB6oT86C3GGGJaYUppkH6Wfqur0H6pI1aHkxixi2lPIkOw4J8bNgJu6sSdSBlplG2A9KoH9GjxbRebQr3EbPdngncs5GQOTsQdL+LZBSvjzVyUiUHFqPpPh5kNEGO8Ecquh/4i25cB6iHHmrCJ3mnAGpWECU9Rq9Oeg8vB0rt36Me6S3gPlFsKy5jJzKq7S0ehvyjDyocRCq5A6ozhVB/JoaWpEW9r090A5L5ShAyc09UFZ2EVmjB9LsCmhbkz30jQjYBLpH4Q3IYgixZuuBXC6hKFcXHDEUsdwxD45x7d9WtK9sR07tLSTt2gL52T0osauQS5SR7b1j9s+kwaZkGG5KKAwnQc4pI3L6HHYvQWQ39NgJKaXCSchaj5y0pVCSaW/f6TVW8m7oluWiBdR//BAlP/8K2t1EK7mSAktyNhoQDaW0m3TZRLrI0V64Dfom2j/puAFrzyxoTxVB3TkcxeQXSL1+GCWtM6AuXw9Hrp7mXyZejajGK33zZzcSzrppKwIlRXl4D80tGjPnZRg74tDORi+s3qMmWmPY6E20EeP2sgKTXIGAjd4IyRgWQoylOjJRkhEJ0V9+DN2SBiQ0kzlozULkmfX4OKoYSajwiuhlAHmzkLOQ6BSnJdDVqKC9/jxcRItVByFKnoaGrgIkCKiyZbdhviSB2if6QjnvHs+C461KyHOfxYuUS+8rD8cW8DV6AEXL7i2GvLkOWrEZSY/XQ/PlcWhQg9j7a5D6WToaHqK/f/geNJXP4tHOzfiOTuQKkaThqBw5H86B9omr0H1ZABUZT0OcF33DlXDZCt23RogoepkTVQd7hpl+dxX6c2RKxr1/s6B5UA17eQvU1WpYtQth+jHRRwaM2aOdmfjq0AKIpL6HV/oIIrQU73RYYamugS6/Fva0OtiEfnqNlRC91UYdI65wJMSOg24Nvq0EBuryWRz0D51HTrcW7Q8nw1b+Ecyr6IG8E8WExjHh/iNI+qQCWKeHvCACqf70FeptpjkXdwMlVH8qRZnvyZ2Dj9noTfJ3vdB2j41eaPXl0lkBViBABQI2el7lD7d0azvTCKuoGw07D8Dw1wpIGyiSQyZHTdEuB0X17IXJZPQoAuS8CtnBNNiWkdE7vRu2xxdDZ3sSuivHIcsUDMFvYJXn43v5cnwgUCuERMzRVug/lENH5sFAkTarbDdy7tNT4uRotNN+MLTugTSuAzmfvQOtC1zrz+iZoRY+3F3XXiOjIbSNjM29B6Bs08IaPdjo4Q5UDqe9CkovQ2P0pm8MQ9bIL7+NDWHQP1vhckTWToPivjWwlF+D0mNMfces35z7m2o+c0Iw5RslaDl1G0leYyXNfwzGNA+VZFjiSCYsj2+DNYpCh6KFMB5VuXIeuozecBQTukTYq6m5HgnpvN1oURb7nz+C0Xs7Ams3TsdvhS8RbPQCfPfgy/0pwEaP5wUrwAqElQKhMnquqI20AsaZB6B2bEPJ17uhRSa0M2tgkO6FWZSLH9RIsKpHgszySOxPrgJ2lMFA9IrImiX46qgc2kXPwxS1D+1H58C0MIuSGe+FuikXhpgytKRdROxD9ZCupCW39VqIyl6CSVoG69E4iG0U0ZmbT5HACjIs0RBbzVAtyqdl4DxY6lSQd1KUJ64ZCaeOw5g4DeZ1tMQqItN53wFobmZSfRRRfDAL9v0FEOW+hMOijfj4Ei1pioancuzLaMazmT3QXxKWNSNg2RjbR9+w99I92oqAF2gJlPplSalHgkD8+LCADNHW8e+fU4iE6SF++wOKnN1y6dI/ZtugOZMOjXMz2hvTSAvvadxPENE2LYbGsR6mQynAvmxoFRVoT2nsH6uXdwM/fR4N8RVoORQH9OpypRRIXuHSxZxYC1Vml0sX56INaIiKg1wsQcKOTOTE0NLxHSgm7Ttoedxl4NuQ49rzSV8MnvGdP+bZ5R7aCi3Pr3P/TduRiyU0J4vpS0aOy1HyixUIXAE2eoFrxnewAqxACBUIxugNTcYIYYMnUtED6BsTqel321Ynna4VchI67V1wiiS0P/JuS6Il4MNqfK9ahT81qmhvJkVbp5uR2m2EdB1TTO5eVb4z1Aqw0Qu1wlw+K8AKBKRAMEYvoIqm6MW99A1Lhm8amCkqR2DdpmV945YqOrgRQff1AHRwRS8upgMvTDEJTEi+eiwVYKM3lmpzXawAK3BHBdjo3VGioC8YKodc0AVPwQJ6I4ZMMZmCgz9BusxGb4IMFDeTFZgqCrDRC/VIu8kYcvE12JnoEGqxuXxWYNwVYKM37kPADWAFWAFvBYIyekzGuMNk8iJjyJjowE8eKzAVFGCjNxVGmfvICkwgBYIxekzGuMNADyBjMNFhAj0Y3FRW4C4VYKN3l8KN5m1ff/01mpubR7NILmsCKpCYmIi/+Iu/mIAtH90mh8roMRnDm4zhOYgh5JXbOgfWS+lEz+h99VIlmOgwujObS2MFxkcBNnrjo7tPrT/96QZYP76Cv/7rIM79h0E/uAl3r8AXX9zE36c8j1df3Xn3hUySOwM2ekzGgCONUn10ZkBVmwrj/GOwZBMu7ZFmDEvGEOYLEx0myVPD3WAFhlaAjV4YzI4VK5bhpfRlWL4sIQxaw00YDwXeLDuCa9f/D0pK3hyP6sOqzoCNnlfrmYyxAu27PoJlg4D9orxxw5Exeo0eEx3Cav5zY1iB0VaAjd5oK3oX5bHRuwvRJtktbPT6BzRURo/JGL5kDJfiTHSYZO8k3B1WYLACbPTCYFaw0QuDQRjnJrDRGx2jx2SMO0zkAWQMczITHcb50efqWYGQK8BGL+QS37kCNnp31miyX8FGb3SM3mSfJ6PRv14yRsPMXMiZ6DAaknIZrEBYK8BGLwyGh41eGAzCODeBjR4bvbGcggIZw0VyIAYsEx3GUnmuixUYewXY6I295oNqZKMXBoMwzk1go8dGb5ynIFfPCrACk1QBNnphMLBs9MJgEMa5CWz02OgBbjRZQuKcCRFls7c2wsYItXF+5+DqWYE7K8BG784ahfwKNnohlzjsK2CjN0pGb9QQaGbkrNbDEpWH9rqlcCVb3toGZOyFOeoIYgufhPn9NMhHbWZ5ocmUgwt1ntgG5ajX6afx1irErr4KXXMBkvyl9XTeggMzIBbWex2MUBu14eeCWIEQKsBGL4TijrTowI3eLVgKt0FT+AXE8ZEQ22/A0dONVscSfPzplgA+fG7AcvgGZBvmQTbCxtrP0AfO8nqIsn4D24E5I7xr4GVdaCjUQ1/ZjHZqbdLiSKCjES0986B7uwjqkTbmLmsffFvgOoxa1Z6C2OiNjtEbPQTaVeQ8nAyD/TbkeWfRvqOHftYj9tNKpJLZsTsAqdRDlxiNyTAATTaoyFDU6bfdS5w3OQAAIABJREFU1Dc7bd2jvvnbu2fd8ixyYt5Dwxr3zYxQG43B5zJYgdAqwEYvtPqOqPRAjV7DuqewpFaCl9veQ4nn279l43z8pGkpGT3tyI0e4Y+ki7pQ8i19eI2opcJF7yLp3u2wBmX0hHKED9IVeBPrPW2mzP735qJJsRn/6YNjGnHD7v7Cu9Lh7qvzdycbvdAbvcAQaD3QkrFTvj0HuuhGqNrKgNUHyOiVIbZyGxJ2RqDw0gL829Z6OBIzoY9qhqa0C2qtHCZtI3WGkhWnFcGsqEfSa1chc35B0cAiGGJo3idno2WVESZxuauckq4iiOiZ1sU3oSUjAjah/EL6AhYzCyJ7BNSH9iL27DB1FiyAdUsVWkS34Zi9Cea8bmiSzWREu2GN2QxzhgTGdWpoRVpYM9qgSiZqRvNxUFP7Xi2lWdAjHQZqr+vvjUUQ56uhvz4LsbOnwS5SoWJ7N15eng97SgX0afQFTSkBGKE2um8EXBorEAIF2OiFQNRAiwzM6NGHzr3ZODG71yB5arNdhLFzFtRRHUhdXQW7gt7FWy9DvL0CBnExEjY2wyl9ALLZM2DrpOhE0RpY/mEPTnRKEP+zOKifW4gW7U6YHBEQO7qBqE1oOC2HeV0+TKJoyK43wz5/LxoOdCG11+jldSFnWS4axApIr1sh3XsM2k41kijSmHDoFNQnM5B64gskFdGHxj8OKPv9OBi8jZ71AORPHIJtZSk6MxqRuO4yZIkSWDumQ3dqN6SFGVDXdkMk7qalo0joypbAlHUEiJHD2dpF9RHH05E/qJ/KqAg4cQvt1+fA0FwElcMM1fIDpI/CdV/q3jVoee3OOhgG9FN3/SWkNkUjVdyMEutSWN5PH7nB9jNB2OgFYfRCgkATvoi4I3hyimI9dTIS8U5A8zl9KRJy0T1xFXr6giTbNB8JN3cPiSD7WdsafHt9OpKctVBunY6Gz3fDtuwxaKMoIp5R6ymnALa58bBs/8gdKXOVb4XuWyNEg64dWKcWuo7lNK+p3EMSaOfugfjwXig/vw2l4iLU0W3QdB8nQ/ksHu3cjO9Og76oFUP+IX1J9DJ6AkXDgemQihv7/q6ppHs6MvFd47S+38VufQzGNE87hSFjhFqgb/d8PSsw5gqw0RtzyQdXGJjR80S+Bho9MjN2MmimRYux2eE2gaAPqEfLpuP1z9JheWg7zizeh+/2k4F6ggwSReQa8BL9PRLHPRE9YVnm0TIJXj9HgHO7BJKTaqyojXb/vSYD97zQhjWn9sKx3B3RM9xMpsiiHMWflCGhMgNPVcrx2+YZUFP58rfowwDCPe8jkf67pNW3bNUaMnCC0bseiQ1V6UggWUSyaKjiKYrRXoPUfRSV2DsNukfeQAtFEJy7ml3tlu79FbQzuyBNiIBpSzOUuxbCsvwlHJYKkcAHoCYT6urn0W7E3p8Pa9qv4Nh+3nWv/K0mJOyLx6v2Vai/tAWOrcux1rYZrTFViBlGh78iHf7ep58yZMrOoNzxJNasXILUNBVUyuCW8djoBWH0vB6p0UOgxcHUu1RL0WctzdU3rj/jfha8jF6qrQryR96FSDEDmnN5sM71RZC1FdIz1JQCS8E1JG0ETM2bYd/49ACjVwnnwsdgyvA2em4jCT9Gz7dOI8TrHkNOVB3sB8i5kWG7fmoPFLrpMJ1TQP9IPVI/K8XThclQDmP0+iUUIvZuI+gyegPucRu9Y0hquoHUg0shFbRghFoYfIpwE1iBoRVgoxcGsyMwo3cLhoVP4+cXnsQ/fXkcmt4N04IRq/4xXunchzc8y6Fuowe88uFmtD/hWW51RRF8jd4/UdRBimjIq5N9jJ85+TH83UnPh5vL6L2PVW/vg3O1u6yS6yvo79Eo/qyIln7JaF6PgOy+I1AOafT6TWXf0m3vh2ffONyCOXkx/u4MGcjmBTBHv4EmL4PqMpAU9bAWLsejuT3YcIoM7cZsHBYJ5vZJ5PQtK1v7l5g9fZa/9Rsoc+kD2+k2ekra92Rz0sbyyrWufg+vg3c/v0W3rR0foQfWyiq8eUGBX39bBlUQc4mNXuiNXmAItOnYtbAe0vIyGDfIKcpdQ18cGpFD5iuhJgvyF65B88kp6GXu5zFHXApn3UI6tEF7WHMB3XYJDJUSbJRVYZdTixJxFdZWXwPm5+Gsohzrb2phFBVjSXUEPZ91SKIvIOqZx2ArmAN7b/lkHB2ZL8IUtQ8XUuoxf4g60V4F5epmik4vQMu+y1j691eR/S9xMKddRiodIPl6ZgrO7r2GxZVx+O0aithtJdP51imY19DSq+clbAdRoQyOXRfp+a2F/O3jSK1ei7WdKfhtOX3pWlRPX5ROIefscqQ6KMLviEND4xqIGaEWxFPPt7ICY6MAG72x0XnYWgIzelSUswMlydtomXQWNNkqyGzvwnB2BvS0NJnQuhPK5GbaQJ4GUWU52mOK0LS9DYnRR2jp9RUYV513nx6kZdj3VtVg3tYuzI7qQeyeSsQeVGPzBQk2nKuAkSJrsFYjdtFBOBPTEdtRDXNEGv6lvAs/85RlKZZA91wuWhSZ0IrfRYkjnU4oUmRD8hIstDco1VlOJug2omhv0gbrHuzsK3s62k9UIWfjITR9TRE9OoBRsoo+TF0qeYxe65N4PeU2SirbcFP6P3DgBSf27G2DlCJ0DYfmwSkYvfxp2JA3B+35jeighdO8Q4+i5oUadz+zrdCuPuHTZ2lWHc6sehdrkmvhTNmEhOtHYFGUoUG6Bz8YTgfSV7XIu58rsaRjH35FUVWDooM+/GjZ+wov3Y7WoxQM63bCItAGoMlGS8tQl8MItVArzOWzAsErwEYveA2DLiFgo+dVo7C3ximWeExS0E3hAsZJAY7ojU5Eb5yGb1Sq7UWTWTKC2wYwKo0ZQSFOiuYxQm0EQvElrMA4K8BGb5wHQKg+GKMXBs3nJoyCAmz02OgJCghoMjFhySbCy0ltZYTaRBgpbuNUV4CNXhjMADZ6YTAI49wENnps9AZPwYlFyhjUfudVNDRFICmRtoHwixVgBcZNATZ64yZ9f8Vs9MJgEMa5CWz0RsnoBUXGGG4S9FCqoWToY0rRsJhy5i0/iJaodJTsT4FKPnQEzidC502VuON86yVlHIf6QhYdoID/fJcDygxZRNDRDHVcFiyL6wJKlG7ZuBz6xcfoANVQGtHp4meyYc07BmOiv2uIxOGgA1P+KB131JAvYAVYAUEBNnphMA/Y6IXBIIxzE9jojY7RC4qMcYc54M41J6Fcc+5k3+aVd6LDUKqShy+jxJPEfCBVYtjqvEkZ3ulcBtzkW6ZvfaM9pV2nloX8f4EQcQRM2sNt0FJS6KQhGuSwd9ESMO0z9ofioNP+slZtYHWOdse5PFZggivARi8MBpCNXhgMwjg3gY3eGBg9x0Xo1/UTJA7H1+Plk7MgpyTalpgcqDtOwKqQwFLaDd0VSsg9BF3CcTTSv9GzmZG6sZeKsROa1lehokTLJYfW4yffv4aXn+ulSkRCfjYXykrKB0kpeqTZ+6Fz/iP0rZTc2zELujotnJm9pAyKcvUZvSJKHL6t77qdukgcWNtb5v1A5da++pLk1AdK8t1CxtRBqZNMdQoYNnkROzZ4Lafa34Umsw0J5buRKu0fB0dTFVILOyB2dkGcXUG5Mp+GupNyXSoAG0UzGwqehGVdNowzqY7OJ6GvozRNpS959asClmxKM/MMJYPO+wCmRK+HrLUaqkJAW04kEW9SiDcRRK+C5cUsYgtTKprsOCQIOTbH+Tnl6lmBiagAG70wGDU2emEwCOPcBDZ6QRi9EZIxXLnivAgS3zzVheb/ykRJRiREf/kH6FQNUBZkQjU7gqgS02BpGoouIR9g9G6hpekTnNuahrfmHyNzQwixR5qR8+EcaJcDDZ6InhAR66NKeMyb7ssCqP5VD+laysf3aQGkuc9Bc18xNBfSBpAyaInzFCUjT/a+zgh95wrfMgfUp406RpzeGTAsXw6jd9t8sIcC3/Y2RFKv0/tCJO5+ys9HiZN1X79Lyc/jgHzKFygkZs4we4geRKw53AYnUXgs6cmwZPweLfOLXX9z9UvkjtIJ/dYT3q19R3/ePnjYvQJT1+yTFNqXCCIkdU9CBUf0xvn9iauf2Aqw0QuD8WOjFwaDMM5NYKMXhNHzGrvhlm4Fw+FNkLj8rx34YkY3GnYegOGBn8OU/hBEHWZo8q9ig34W3iwZii4xwOgJdIzMv0ASJStv3/URLBso1aWQ9shORomMl2EvJdaWkSnK96JKZF9GbK8pE5KRb52DDz7XQuki3ESgIfmHg0kZbwFrB1xnWffDflKFp0zf+oQE4+6lZp+23SklEyEJZU/QXsTP3oFW2gOHvQcNA4keX6qIHlIM8VEjYgsXw7SmCeZY6vNz/eZWGBpBd0OKWxd/r74l4T4kXD8RxG30dkNPBztkB9MQO87PKVfPCkxEBdjohcGosdELg0EY5yaw0Qu90RtIkPjbv6lH3YOUHHzmAahtkcDJPyLnNOHKMmsRl3oL/2D2pkusQH6MBXlEirCekuOVudthic+DKYUOaewrhnn+cVjjyeR4UTGMddOgfojoGitpeXbHO0itjO2jShxOq4ciswf6S0bkyK9BPzcLDSmboWqlpeU0IzQnF/eRMmyH1VD+/+ydDViUZdbH/26rTG+rTkVJmSu6GVNq4CaCGwmlCfkRkxhgJk4rIsqC4OcIr4r2oqOiIoYCaeE3sFGjqWBJgeE6qLsNWuuwmuKaNW5sjljboFu+5xlAB1SYAWaYj/Ncl9dVzP2c+5zfeXj4z7mf5z6R1Yg+uQzi12ffNu5mp4odtQhqmG/mYuCPr6HIPwuqzX4QNenYkWPcm5mEqhe1cQs/TaLOvSEPNSTsQhCtS6DN05WQX5bC689zDV06lIH5kMaQP0XjUBS8F0EFUqgmUgebKw9iUmJf5K9uiMuFjAnt416DdrOK7Bj9kh2YA1EIoKyegRJqG5fpkY7yUCV8hO4fxh1B/LfBM88VwbXUx/f4YhZ6HXyf4untkwALPRvIW1DQSAzy7I3Bz/S3AW/YhY4gsG9/KX7T7TGkp1PPOic/nLIzRtOc22mnjNsuXaHaOaIayvrlaye/tDl8JtAhBFjodQj2xpOWlR3CqlUr0blzZxvwhl3oCAK1tddI5L2FPn2osuTkR1uEniOhs7dOGbezp+cKB8dBu2kv0rwcKTMcCxOwLwIs9OwrX+wtE3B4Aiz0bqXYYvviWeUq4j3wrIKZJ2ECLRBgoceXCBNgAjZFwJ6Fnq68GJoefWi7Ee4IYVMXFTvDBJyYAAs9J04+h84EbJFAm4SepTpj0B550hFLoF/4OYru8vYo1Ap6GYO2GtknhbqljhC6YoQPngNdc/bumJxaqNOb6ZRhiwlln5gAE+hQAiz0OhQ/T84EmEBTAm0RepbsjNFoH7zb0nYRigETULX5EDJ96EMTOkI0b6+Z66KZThl8NTEBJsAEmhJgocfXBBNgAjZFwFJCT7s7EQFTTsAt2BtuuqvwilsEOW35UWLUbSJ5gzdyQow6Shx8CarZ26Du3hVVe3ZDvPpvyLwyBwGJLkj7grZiMXR12ElbonwCrwFnkVa9DAEGmrSxcXMdIQoiUCXs66cLhtT9KnSek5A5bwg1pdyE6Oyz1AHiGiRRgn/dULUlEfEfuUCkp+1TVi+DTK+o37C4caeM5IIZ0MUYd6qIoPZhCkhDygB/CcVcA99FqQabfDABJuA8BFjoOU+uOVImYBcEzBZ6JnbGAKgXbOe1kFC3h7RLiRCP+AaKXFfET76920RdRwlX5E4cCYWn0N8Vhk2HNSm0AbFng9C6tbFvVeAGiGJcoTbaRsTkjhD1ttXRM6Fb8Cmiv9uFaOTB96E8hOdTd42pXVAkCMhS8nn0NSiPu0JG3Sdu75SxAjmelxp3qogqppgVkBw7hOitL+LJygTc2DfKLq4DdpIJMIH2IcBCr304shUmwATaiYDZQs9o3uaXbo2Enpg2Ce6Vh6CVfbBideOuFHXdJuo6SshJ3JXMOwJVVHXzQi8iH27jqTrYROiZ1BFijdAPdigU/YKg3/FvKK7nQAYlAjqvwQB5X2S8K6nrmkHPALp5a6A4KUGyIPSadso4X4LoZ9Y37lQRcRThXevEbXQ2C712ukTZDBOwKwIs9OwqXewsE3B8ApYVeknQrc5CfGkS5OLFUG8mkWXclSJ8DsQLpjbuKPFmF2SuJnE1egW0Ye9CvfobSKnaFkTLukr6mSZwFTSbr9LPyiC/vh5SQ4pa6AjxQyp0tHQbrZ8P5TwN4mNAXTLk0MeEIFlELb+6r0H0pRiod/QkEUhdM8JSICOfM33WI7cHvfRxp04ZQUHQJBQ16lQxZYcUZRPzIdmejqDsOEy/FIpTx2dBQj1o+WACTMA5CLDQc448c5RMwG4ItEXoKSdOgGbhLsgldwrXqKJ3x8/bgqiGerqOof60h6AMJjvcEaItMPlcJsAE2pEAC712hMmmmAATaDuBtgi95mbX0osO8vSzkMTNohcSXNvuaFMLuv20BcsxxB+fBBV3hGh/vmyRCTCBVhFgodcqbHwSE2ACliJgKaFnKX8b2dVTNwjhB/puEIutMiNPwgSYABNolgALPb5AmAATsCkC9iv0aqDafQ5uHlehEfkhyN2msLIzTIAJOCkBFnpOmngOmwnYKoE2CT1LdcYwAZZ61jjIPXOoc4YGsgGbEFSWjfC7VPV0u+fAa2INkn/IpjdszTj0GqSFRCEBct4mxQxsPJQJODMBFnrOnH2OnQnYIIG2CD1LdsZoFpXw8oXfReR8vRi+NFCXLYN7aSR0O/zucprwYogSsuskBs3MgWYWb5NiJjIezgScmgALPadOPwfPBGyPgMWEnu4oFBM3oUTsAl3VOejdI5HquR9vVfaEvgqI3rEYUlGTMb1C8Nr1ndhwvid8e3eBViRFzg7acHjLHMj2EDttLWQ71iMofxwklXLoNlN3C+GgFmi+jx2jil0qgowQq6hPrQKRUMZdNGxkrIsYDvebXTru0AXDncTjFAWKXFygr/VD2mYp9A1Cb4erIR6V6Bp0vWdAuegqokOUcHOjpWOfBCijXJEzUQZFE9/dbS/l7BETYAIWJMBCz4Jw2TQTYALmEzBb6JnYGUObPg6P7I7AT6s1cPe+iMzrKXDfXYgqsR/02SGI754FtWRJkzHrIRGEVUUMbhR3qeus8WkYSp6nDY3LchBfHos+ByahUJyE6B4F1EGjb33AQsVuEwIuvA+52y0GevJVh65wEwsdK+q7dJD0cx+ogVwpdOlo3AUjObiY9tXLMgjIkim+CNKnQ90jydDhQphTqltM/XVdIR+8BOItKfD6+hq8PI9C5n0M0Vd3Uau2Jr4LXUHafWsZ83PMZzABJmA9Aiz0rMeaZ2ICTMAEAmYLPSObzS7dli+BZOI5SDwB0cspyJ18FfIBMpRE5UChiaJn5VKhGleIgGjjMT1xa6kUdeJsz3AoX9Yg2dDBohY6qupVrRxDGyXnNBF6+Qg3jLnTYbSnn5vQ7mwT/Bb2xOps4y4Yf0fgsL/igGcBtGskUM8ahkEVs3DKM8Mg9HZhLuI96j4DCcjze5fAM7krcg96UpeNQoRfSMfQlSHwMrQ9q/edhZ4JVyAPYQKORYCFnmPlk6NhAnZPwGJCT2gh5lcGSWAfiHt4Q76oL9IGJEK/Wg7xqrnYUgn4LwiDZs1RozGjUBUzBhMqQ/FpBi2NjiikLhO7aNk2il6HiIG8Rx4y3VJQRNW1+w9E4kbB8Dr+mjVw96tGjtCj1igjRRMHkSBcT63Oakg0LqW50yGvUFBv21l1XTqadMFQjSyD7/gyhNOSbckUEoTvpcJtdgjeEDpcvNMN4a/RZykvQLXqBEa9ehZxf/aDMuIEwmcfw5UeY7HUpwSLGvm+F8owC+whaPdXHQfABByXAAs9x80tR8YE7JJAW4Te3Ttj1CJnuNDD9m8omUzPu22R4d6tL+Gn4jDc6gZmypi7IKXNkoMGFCL667oWaEKFL0CbblThs8tUsNNMgAk4AAEWeg6QRA6BCTgSgbYIveY46DVKxK+qAFxoVC3gO1cOmUT4n1uHKWPuNocuLxYBpZOgjjsBr/FUzftCDi9HSgzHwgSYgF0SYKFnl2ljp5mA4xKwlNCzBjE97eMnHHoxdcawxoQ8BxNgAkygBQIs9PgSYQJMwKYI2LPQsymQ7AwTYAJMgAiw0OPLgAkwAZsiwELPptLBzjABJmDnBFjo2XkC2X0m4GgEWOg5WkY5HibABDqSAAu9jqTPczMBJnAbAUHovfzyKKyhLU/4YAJMgAkwgbYR+OLL0ygsOoqyw0faZqjJ2Z1u0NGuFtkYE2ACTkFAr9dj4cIFOH36jFPE2+5B0q3364sX8fN/f0Zv997tbp4NMgEmYF8E/vvf/2LGjBkYNWpsuzrOQq9dcbIxJsAEmEDLBE6dOoWIiAgcP34c27dvx8SJE1s+iUcwASbABFpBgIVeK6DxKUyACTCB1hD45ZdfkJycjJycHDz66KOoqqrCZ599hn79+rXGHJ/DBJgAE2iRAAu9FhHxACbABJhA+xD44YcfMG/ePAwaNAgHDx5EYWEhamrq9vTjgwkwASZgCQIs9CxBlW0yASbABO5C4MqVK+jduzdyc3OxYsUKfPrpp8yKCTABJmAxAiz0LIaWDTMBJsAEbicQEBCAJUuW4IEHHsBFehkjKCiIMTEBJsAELEaAhZ7F0LJhJsAEmEBjAmvWrDGIu9WrVzMaJsAEmIBVCLDQswpmnoQJMAFnJ/DVV18hMDAQZ87wdjTOfi1w/EzAmgRY6FmTNs/FBJiA0xIYMGAA8vLy0L9/f6dlwIEzASZgfQIs9MxgvmPHdrz55pvo3LmzGWfxUEcicO1aLd59dwv+8Ic/OFJYHIuFCSQmJqJr165YsGCBhWdi8+1NICoqEkeOqNrbrE3b69HjYdrfcSfc3Nxs2k92zjQCLPRM42QYNXpUEEYFDYb/MG8zzuKhjkRg+84P8VPt/2DdunRHCotjsSCB8vJyzJw5EyqVc4kFCyK1qulOnTrh5OdKq87Z0ZPFJSgwa3YSxowZ09Gu8PztQICFnhkQx44djWmRozFmdIAZZ/FQRyKwbv02nDv/H6SlrXOksDgWCxLo0aMHTp48iYcfftiCs7BpSxEQhN6N619ayrxN2h0rjcW06AQWejaZHfOdYqFnBjMWembActChLPQcNLEWCisqKgre3t6YOnWqhWZgs5YmwELP0oTZvqUJsNAzgzALPTNgOehQFnoOmlgLhLVv3z5s3LgRe/futYB1NmktAiz0rEWa57EUARZ6ZpBloWcGLAcdykLPQRNrgbDuueceXL9+Hb/61a8sYJ1NWosACz1rkeZ5LEWAhZ4ZZFnomQHLQYey0HPQxLZzWOPGjcOkSZPwyiuvtLNlNmdtAiz0rE2c52tvAiz0zCDKQs8MWA46lIWegya2HcPasmWLoX9tTk5OO1plUx1FgIVeR5HneduLAAs9M0iy0DMDloMOZaHnoIltp7AuX76M3/3ud/j+++/bySKb6WgCLPQ6OgM8f1sJsNAzg6D5Qq8GJSvnIHrlNxD794FYexG62qso172EU2dmQWLy3BdRsuUi3CcPgbuJ52gPzIHXmEKIYj9E1Zq+Jp7VdFg1ilYqoMgug1r3KAJCI5C8QQqvVloz7zSjuYlU0Mg+QEUxVLVDkPxeKmQmgqgqVaKqtxQBwnjtVvj2WgFt7E5i4mmeO/WjWei1CpvTnDRs2DCkpKTgueeec5qYHT1Qc4SeZuUE+KZX00bDgK7qKvSirnAT039rXRFfth6iKf5IuDQJR8r8kDZ4GvJEk+hvgbzJ34L2ufe1JS+8vUpb6NneuSz0zMiJuUKvaOIgvJTvipnHPkZavToqmTIMz5eOusMvdzOOlCbCbUQ10q5nI9xkf/cjqPNcaNok9ITJziL+8bFYd/5Z7DJrfpMdbWZg/dxouBkqEdA5CaWeCfj2eCRa3rP9KGSPvQHt6i9RFCZMcxFFW44B/lIEmSgUmzrHQq898uqYNlJTU3Hp0iWsWrXKMQN00qjMEXrqWcMgRQ59kdQY7r8Hegv3rklQDhgJVcqXSBMpUQJvyAJ7Ind0f0yovJPQM7rvtvre17ZksdBrGz9bO5uFnhkZMU/oFUPaOQ67Db/oRt/Yqo4ip7InZB4VCB+/CVpPquuVn4B4bhYyxWsRMKUMerdH4d67G6oqaxGfGoaS/12C3ZWu8J/qB9m44VDJE5Grc4FYdxXwmIGifRIoJy5Frsgb7ufLoB2WgqI11QhvEHqLqhE/OglFYk+4ndfALWUn5JUyBFGlMWDzXsj2RCF89zcIoj9U4rea2D7sh8w7CT0NVcfGbAN8JNCXV5OdLKR5HEP4CJpH70r+Pwrx+XPQx2VBFeeCnJBpUOioqknzg36W230tgpKq4eVTC5V2FJQZXRH/+lqo9V0NcYmCU6Ha/CiShbkbbnaaNZAM3IyqlxXYLs5CZPmjCOpxDmpxDIoyXKEYY+x7CKa5lWLJnnNwGxaKoIgwJIs3GfiK5+2EKvQEpGPWEH9Pg//h7+2C3IRSJQs9M35hnGjo6dOnMXr0aPzjH/9woqidI1RzhN6tFYS6L9p1Qk8OkbCy8D9dkfkG3R+7R0J1OBLqBqF3/AVkNrk/5wbTPfuO9750VEYVI3DiCbgHukJT0RXJe9fDK3+c4X4udpPAvUcNVJckyC1bBsnu2Mb3WZrXhNscWOg51rXNQs+MfJon9OqrT02FHmqgJSGTO2IkEnR1NwHMehFPru+K5RciUdKLbg4jV+HGavpFHkhCiipyRZhGn/e5WVHTGMa7YvlBqmrRkoDrHhnG5nvXfZ4XhU6vH0PY3hToxtRV9DIvhVBlUYK1p9cjIDsKg7Il+LSsG2RkX7Kdql36XgBAAAAgAElEQVQQzjmMQPrvtPLGtqVhdCNpJPRqoN5NVTG6W+TMKoPXwuEoGTMNW9zqqmwlws3rI6H6J4eq/ka1a+R+THi7JzZ+lwVJNgnS7o9A9ad3oI3IgjqlBvED5qJq2RHE7x6KCeXBeLdgCKAXvvWS0DXM3QeTN0UigHIlcveG1L8nNNlzSDiGQiHagD6zKyjez5F8oInvnoXwaojRUNFrqHJuRfShCCzQBqPw+CzoZo/BhKoEXD4cBlplafZgoWfGL4wTDX3qqadQUFCAJ5980omido5QzRF6t4g0FnoNj+kYV/EahF62Tx6imt6fqyOhvMu9T6TOQ/iqq4hO6YLkfivoS2sW9AvLbv69qPJR1N3P30qA9k9rb7vPqqK6tZg4FnotIrKrASz0zEiXeUKvBpnDh2L6oadJ4OxCdIOCEITY1j9gfuUqrKivVNUJPWD+yQSoB9Yvt0bl3yb0Nh4Lo+VKb0i2hjQSfsqQ/nhlT/3SqkHoHUbwe6ugH19nK+38WPrcG2svpNLSLwnN8y5w777tlgi6TejdEpW3Ld3qqJL30CcITqlGYlItJu8loTolDlvqnzW5+S31TGhdJZBirLuReeLd6zmQoRa6srXwen4b9AahRxVB3UXoqdqontJ0KeMuy8Y6qpY+Hociz/lQBX+CQbOPGYlUI981CgNDSUYBonsAAcFn66ucGxG+ZzpW6OuEnpe+BlX6bvCVuLZ4NbDQaxGR0w2Qy+W4//77MX/+fKeL3RkCtrTQW++5DbFN78+00tH4C3YD6RooQ0bilQP0xb3sBSi9V6DUqDDQ6Iv7yinQzNt8231W0vIzL1zRc7ALm4WeGQk1T+iRYX0F0kLm0DJpT0THSeFetR+ZH3WDoiwVAeWJ8Aopg2RRBETZGVD7pKJ0LgkW72209DofOSRgZCRgQMuwHwfnYcjsavT2qIXvkmz4bpAh4ZArJh/MQg5VtyAso47YAH1gJHwrtkLpEoE/Z1Rjar2tkrWuSB6XBJVnDOTi/UjT0bJBQTdEu05DiU8CwvUZWHfoGjyiUjFZswSJN213perdJsRP2YzSK1RVW+2HqpXbUEovk2Qv0iBqaRdMXtQX6qXFqKDHiZcXzoZ2+mSs05Ko3Ew3oSl0EyJh+u4nk1A0bg5KaP545CHXQ4E0pEKaXYvwRUNQlX4UXulyaOe9gS3CuQfTEU8Vw0Zz0wsYacGSuopbvdBTGXzfisxD/4bbS/MQ8eNGvGnMpeHli959oPeRQzO3DL4GJik4tOgsokLyoQ+dgYDz28i39VAva/n1GBZ6ZvzCOMHQI0eOYPbs2fjLX/7iBNE6Z4hmCz3h8RxaqlVE7kZld2/MXz0D0cKLdDoN4v1CDPfHdz+RQ/1a3X+v3ToWJXH/Z3R/nohtEeexsOG+a3zvoy/qBqFX/jSWh15DWvYxXHJ7AVnTr2Ke/BjcItKhoMdiXll/Dh6xW5EqSsXrxvfZ996HwoS1W67oOda1zkLPjHyaLfSMbOt11VS1cm1xadAMd3hoBxBgodcB0G14yoceeginTp2Cq2vL1WAbDoNda4aA2ULPAWiy0HOAJBqFwELPjHy2ReiZMQ0PtWECLPRsODlWdi0yMhJDhw7FlClTrDwzT2dNAiz0rEmb57IEARZ6ZlBloWcGLAcdykLPQRNrZlgffvgh3n77bezZs8fMM3m4vRFgoWdvGWN/mxJgoWfGNcFCzwxYDjqUhZ6DJtbMsAx//G/cMPMsHm6PBFjo2WPW2GdjAiz0zLgeWOiZActBh7LQc9DEmhGWVCrFG2+8geDgYDPO4qH2SoCFnr1mjv1uIMBCz4xrgYWeGbAcdCgLPQdNrIlhvfvuu/jss8/wzjvvmHgGD7N3Aiz07D2D7D8LPTOuARZ6ZsBy0KEs9Bw0sSaE9e9//xseHh6orq42YTQPcRQCLPQcJZPOGwcLPTNyz0LPDFgOOpSFnoMm1oSw/Pz8sGLFCjz77LMmjOYhjkKAhZ6jZNJ542ChZ0buWeiZActBh7LQc9DEthDWypUrIVT0BKHHh3MRYKHnXPl2xGhZ6JmRVRZ6ZsBy0KEs9Bw0sc2EVVlZaXjxQqPROF/wHDFY6PFFYO8EWOiZkcF582YjNzcXLi5dzDiLhzoSgf/85ycsWbIUkZFRjhQWx9IMAYlEgt27dxuez+PD+QgM8f49LusuO1XgIpEI27btgpeXCf3SnIqMfQbLQs+MvNXW1uLChQtmnMFDHZFA37598atf/coRQ+OYmhCYN28ehDZnc+fOZTZOSuD777+H8M/aR0FBgaGH8urVq609NQSh99hjj1l9Xp7QMgRY6FmGK1tlAkzAzgkcPnwY8+fPR1lZmZ1Hwu7bIwGhmvbdd99BuA7d3d3tMQT22UYIsNCzkUSwG0yACdgWgQcffBCnT5/GAw88YFuOsTcOT0DYqzEpKcnwbOi3336L1NRUh4+ZA7QcARZ6lmPLlpkAE7BTAn/84x/x3HPPGTpg8MEErE0gNDQUr776Kl5++WV0794der3e2i7wfA5EgIWeAyWTQ2ECTKDtBIQXL4QOGEql8u7G9DpoNUokJ+sgU8bDt+3TsgUmYCBw6dIleHp6QqvVGv5/6tSp8PHxoRfAIpkQE2gVARZ6rcLGJzEBJuCIBG7cuIF77rkHv/zyS/PhCUKvJB5eL2mRdqMI4Y4Ig2PqEAKzZs3CDz/8gMmTJxvmP3PmDJYvX87b+3RINhxjUhZ6jpFHjoIJMIF2ICAslQkVlLFjx7ZsTRMP9yc1ULDQa5kVjzCZwJo1a/D++++jpqYGV65cQa9evTBw4ECD2BOLxSbb4YFMoIEACz2+FpgAE2ACRGDTpk0oLy/H22+/bRoPFnqmceJRrSKQl5eHDz74wLB3Kx9MoC0EWOi1hR6fywSYgEMQELax6N+/P/71r3+ZHg8LPdNZ8UizCbDQMxsZn3AXAiz0+NJgAkzA6Qn84Q9/MGxMO3ToUNNY0DN66hwpAqZrEf15CeRebuBFNdPQ8SjTCLDQM40Tj2qZAAu9lhnxCCbABByYgEKhMDwLJTwDxQcTsBUCLPRsJRP27wcLPfvPIUfABJhAKwmcOnUKISEh+Pvf/95KC3waE7AMARZ6luHqjFZZ6Dlj1jlmJsAEDASeeOIJ7Nu3D/369WMiTMCmCLDQs6l02LUzLPTsOn3sPBNgAq0lMGfOHDzyyCOYPXt2a03weUzAYgRY6FkMrdMZZqHndCnngJkAE2joJXro0CGGwQRskgALPZtMi106xULPLtPGTjMBJtAWAvfffz/OnTvHG9C2BSKfa1ECLPQsitepjLPQc6p0c7BMgAnIZDI8//zzN1tMMREmYIsEWOjZYlbs0ycWevaZN/aaCTCBVhAQOg1s27bN0GKKDyZgywRY6NlyduzLNxZ69pUv9pYJMIFWEvj555/h4uKC//73v620wKcxAesRYKFnPdaOPhMLPUfPMMfHBJiAgcCYMWMwffp0jB49mokwAZsnwELP5lNkNw6y0LObVLGjTIAJtJZAdnY2/vrXvyIrK6u1Jvg8JmBVAiz0rIrboSdjoefQ6eXgmAATuHTpEjw9PaHVahkGE7AbAiz07CZVNu8oCz2bTxE7yASYQFsI+Pr6Yt26dfDx8WmLGT6XCViVAAs9q+J26MlY6Dl0ejk4JuDcBJYtW4Yff/wRKSkpzg2Co7c7Aiz07C5lNuswCz2bTQ07xgSYQFsIfPnllwgLC8MXX3zRFjN8LhPoEAIs9DoEu0NOykLPIdPKQTEBJvD444/jwIED+N3vfscwmIDdEWChZ3cps1mHWejZbGrYMSbABFpLYNasWejVqxcSEhJaa4LPYwIdSoCFXofid6jJWeg5VDo5GCbABEpLS7F48WKUlJQwDCZgtwRY6Nlt6mzOcRZ6NpcSdogJMIG2EOjevTsuXLiAbt26tcUMn8sEOpQAC70Oxe9Qk7PQc6h0cjBMwLkJRERE4MUXX8SkSZOcGwRHb/cEWOjZfQptJgAWejaTCnaECTCBthAoKCjArl278N5777XFDJ/LBGyCAAs9m0iDQzjBQs8h0shBMAHnJnD9+nXcd999uHbtmnOD4OgdhgALPYdJZYcHwkKvw1PADjABJtBWAqNGjUJsbCxeeumltpri85mATRBgoWcTaXAIJ1joOUQaOQgm4LwEMjMzUVFRgY0bNzovBI7c4Qiw0HO4lHZYQCz0zED//fffo7Cw0IwzeKgjEggNDUXnzp0dMTS7i+nbb7/FM888g2+++cbufGeHmUBzBFjo8fXRXgRY6JlB8rXXwvCvf12EW4+HzDiLhzoSgbNn/4kXR47GkiVLHSksu41lyJAhyMjIgLe3t93GwI4zgTsRYKHH10V7EWChZwbJsWNHY1rkaIwZHWDGWTzUkQisW78N587/B2lp6xwpLLuM5f/+7/9QW1uLN9980y79Z6eZAFf0+BqwBgEWemZQZqFnBiwHHcpCzzYSe/LkSUycOBEnTpywDYfYCybQzgS4otfOQJ3YHAs9M5LPQs8MWA46lIWebSS2b9++KC4uRp8+fWzDIfaCCbQzARZ67QzUic2x0DMj+Sz0zIDloENZ6HV8YuPj4w0Cb+bMmR3vjI14EB7+Km0U/QE6depkIx6xG0yACdyJwMABT2Hf/iI88sgjVgPEQs8M1Cz0zIDloENZ6HVsYj/99FPDM3mffPJJxzpiY7M/8ogbjh3ZCTc3VxvzjN1hAkzAmICv3+vIzHwHgwcPthoYFnpmoGahZwYsBx3KQq9jE9u1a1cIW6r85je/6VhHbGx2Qeh9fiyfhZ6N5YXdYQJNCXgPnUB7fm5moWerlwYLPVvNjPX8YqFnPdZNZ3r99dcNnS+ElzD4aEyAhR5fEUzAPgiw0LPxPLHQs/EEWcE9FnpWgHyHKf785z9D+Jefn98xDtj4rCz0bDxB7B4TqCfAQs/GLwXzhV4NSlbOQfTKbyD27wOx9iJ0tVdRrnsJp87MgsTkeC+iZMtFuE8eAncTz9EemAOvMYUQxX6IqjV9TTyr6bBqFK1UQJFdBrXuUYQX5CDT/xr9bAnk6RqKKQZpq2sQ3WsFtLE7aR7PVs5jP6ex0LN+roS98rp37w69Xm/9ye1kRhZ6dpIodtPpCbDQs/FLwFyhVzRxEF7Kd8XMYx8jzasuuJIpw/B86SgSenLThV5pItxGVCPtejbCTWa0H0Gd50LTJqEnTHYW8Y+HIFN7jTanfbQ+FuFn04C9FJfkIoq2HAP8pQgyVYWaHIPtDWShZ/2cBAUFISEhAYGBgdaf3E5mNF/o3f1L6PtRn2BC0jkEbP8SRWEmAqB7lHhEIXw3laJocjcTT+JhTMD5CLDQs/Gcmyf0iiHtHIfdvSc1FnVVR5FT2RMyjwqEj98ErSfV9cpPQDw3C5nitQiYUga926Nw790NVZW1iE8NQ8n/LsHuSlf4T/WDbNxwqOSJyNW5QKy7CnjMQNE+CZQTlyJX5A3382XQDktB0ZpqhDcIvUXViB+dhCKxJ9zOa+CWshPyShmCqNIYsHkvZHuiEL77GwSlpkL8VhPbh/2QKYi6zQnQjJ6LA3gWu76WQzW4TujJK+cYfBbP24lM0VJIl2ogCk5FScpFhA/IgC42DgEfZTWaO1OkgO/EE3APdIWmoiuS965HUMXtdtzIpmpea6uRlrmYWOhZhuvdrG7YsAFffvmloc0ZH3cnYK7Qa/ZL6F4gaOA2SMwReroK5O6mVYfgUfAVc6aYABO4GwEWejZ+bZgn9JQI6JyE0qZCDzXQkkDLHTESCbo6EYhZL+LJ9V2x/EIkSnqRmBq5CjdWkxCimy2oIleEafR5H+yqr+hpDONdsfxgJNy0rnDdI8PYfO+6z/Oi0On1YwjbmwLdmLqKXualEKosSrD29HoEZEdhULYEn5Z1g6zhZg7hnMMIpBt7Wnlj29IwEmIN1TuxEkGPJ5HYexS9RYC0TKjoGVcOXaAYMBILkIBTqzXwTZJgnUcGZE3nPuiJzFVXEZ3SBcn9VkAVmgX9jppbFcio/Juxt37Z2TIXEws9y3C9k9WLFy/Cx8cHX3/9tfUmtdOZzBN6LXwJ7b3N8Psn2X4E8R+9hvDyRxHU4xzU4hgULayBbPwGqEUvIPfgLFRNHIPkK5FYF7ofMw1fHFXI9VRCOmYNfYn1hL6cvnBmxqCq6ZfTwxGmr2jYaU7YbSZwJwIs9Gz8ujBP6NUgc/hQTD/0NDZ+twvRDd9yBSG29Q+YX7kKK2As9ID5JxOgHli/3GokdhqE3sZjYXCDNyRbQxoJP2VIf7yyhyptN4XeYQS/twr68XW20s6Ppc+9sfZCKi39ktA87wL37tvgdVehd0tU1i3dNizTUoLUCrh7b8N5EnszTzYVelR92x0L0fgywMUF0gIVwrMF34znvo4vV07G6wdIeJa9AKX3CpQKwnYfVREaKpAs9Gz8N8E67gn7TGVlZeGZZ56xzoR2PIt5Qq+5L6Eu9OVxbb3Q+xKKK3Og0IVCIdqAPrMr6Avk51BUjEGfJGD5STnUfmvgdfx9yPV0XzDcT0oRsMofC7TBKDw+C7rZYzChKgHlPpvgY/TlVBrmCS782fEFx663mgALvVajs86J5gk98klfgbSQObS82RPRcVK4V+1H5kfdoChLRUB5IrxCyiBZFAFRdgbUPqkonXsMgSSitMPmIyf4E8hm07NvtAz7cXAehsyuRm+PWvguyYbvBhkSDrli8sEs5Pj3BDRb4TtiA/SBkfCt2AqlSwT+nFGNqfW2Sta6InlcElSeMZCL9yNNFwl1QTdEu05DiU8CwvUZWHfoGjyiUjFZswSJN213hXr3BkRPzAPos8xFw+FFd2cdPY/jNeIYwknoCTd4X8M8KVAXU4y4CMXguqreueORhpilI4znnogUrMLr5U9jeeg1pGUfwyW3F/DBQTmqxlOVE8FY63EMCfnfoPtNm9bJrymzcEXPFEptH7N06VL8/PPPWLJkSduNOYEF84Rec19CpTdXEyRZ6RDNi0OR53yo6H40iO5HQtW/KIwqgr+hn6MLPaaxHrodfnQPahB6H8IraSxW6OuEnpe+BlX6bhBnT2j05dQJUsIhMoE7EmChZ+MXhtlCzygeva4aerErf4u18Ry35B4LvZYItf3ziooKTJ48GWq1uu3GnMSCeUKv+S+hXrtl8Io8BrfwWPy2cD1OGL4MbkXmoX/D7eV0lBQMB1aOq6vqnaZqnjtQtaX+nNgCHAjej7CQfOhDZyDg/DaUeMyCrGJJ4y+nTpIXDpMJNCXAQs/Gr4m2CD0bD43dM5EACz0TQbVhWO/evfHZZ5/ht7/9bRusONepZgs9/hLqXBcIR2szBFjo2Uwq7uwICz0bT5AV3GOhZ1nIcXFx6NevH2JjYy07kYNZb4vQczAUHA4TsGkCLPRsOj0ACz0bT5AV3GOhZznIxcXFWL58OQ4ePGi5SRzUMgs9B00sh+VwBFjo2XhKWejZeIKs4B4LPctBvu+++/Ddd9/hf/7nfyw3iYNaZqHnoInlsByOAAs9G08pCz0bT5AV3GOhZxnIr732GlXMx2LChAmWmcDBrbLQc/AEc3gOQ4CFno2nkoWejSfICu6x0Gt/yHl5efjggw+Qm5vb/sadxCILPSdJNIdp9wRY6Nl4Clno2XiCrOAeC732hfzTTz/hwQcfxH/+85/2Nexk1nr0eBgF+WvwkOv9ThY5h8sE7ItA6GtzsXnzVggbwlvr6HSDDmtNZu/zsNCz9wy23X8Wem1naGxh5MiRmDt3Ll588cX2Nexk1sRiMYm87rjn1/c4WeQcLhOwLwLff38F+/cfYKFnq2kLDHwRHv16wPNpD1t1kf2yMIGDxUfg+nBfrF//loVncnzzb731FiorK4nlescP1sIR8tKthQGzeSbQTgR46badQFrKjLBTf1paGn79619bagq2a+MErl+/jhUrVsDNzc3GPbVt9y5cuIBnn30W//znP23bUTvxjoWenSSK3XR6Aiz0nP4SYABMwDkI/P73v6fnVDZj0KBBzhGwhaNkoWdhwGyeCbQTARZ67QSSzTABJmC7BJKTk9GpUycsXrzYdp20M89Y6NlZwthdpyXAQs9pU8+BMwHnIPD5559jypQp+Nvf/uYcAVspShZ6VgLN0zCBNhJgoddGgHw6E2ACtk2gV69eOHLkCB577DHbdtTOvLOI0NOVQeYXi5KRBaha07dFIvrdc+C18mkoD0dA0uLoJgN0Z5EWMw3J5X0gXy1HdHBfiIUhmk3wHX8WyWXLEGT4wa1Dr6sBxN0gam4u/UWULE1CeHYtwjcnwLd8A9Iq/KDYEYmAJvYazDS2WwOdrhvopWY+mEC7EGCh1y4Y2QgTYAK2SOBPf/oTnnzyScTExNiie3btk0WEHhHJHd0fco8PTRJ60NdAqwO9qNStVSw1s17Ek3uG49QZuZFQJJta0nNks7GgO4v4xxXwPZON8DvMptfsh/zNMnilLINMr4D7wLNQXBfG1iDt2aGQu78L/Y4hdzizid28KLiXy02L32CtFqrEOch0j4QiyhP8ylarLgWHPomFnkOnl4NjAs5L4OOPP8aqVavw0UcfOS8EC0beXkKvasscyPYAIqqWSVdnQ5xUL/QiPkHQm2fhrv8GiEqBXL8N8fk1CFo4C5KPliBNOxpJkn14NdEFadWLIF45B4pyF+h1PZG8wRs5IUlQwRU6eCP3+GIENKi28q2QrgTkBREQ30HoaUsVkIZUQFq2GOI3M6DxdEVJug6TF/2IFTHVCN87CzJPP3jVKypteR6S0zXwioqEzL9nnTjUCEJPg/gLqQiqWIPwKefovF2QXam3fTCVbMsgF81Gif/7CGqw+wiQ+VoslB5y5MT5IcCfhO8UBYpcKK5aP6RleKNoogyK8z3h27sLtCIpcnaMgrswp/4schM3ocjND/K4UZAYq1TtfkTHHENAxmKEsxK04G+FbZpmoWebeWGvmAATaCOBe++9F5cvX4ZI1OxCWxtncd7TzRJ6umpo9XWsRGJXiG+KriVw87uINKp8+R5QQuMhhS6mTuipI84h93xXBOnz4TW7K4q+JlHzmAzaDBVkW2XQrN5F4q++cra3G2QhNcg8swxuSeMQ3T0HisqxZGcn1PP6GKpzN4/6KqDws6omQk9XfhRaz2rEd10LyaeTUBKkhNeyGEh7u8AruAbRnZWQGap0gPbAJsizLyJgYQJkXk0qigahV1fRk1aVIXpMIrRxu1AUVYGgzmT75MeIzqZqYmUCbuwD/eyWXaHKGIQsQ0WvZOIgSEVZ0G0egpIpvsQiHeoeSXiyIgY3irvctJVmvG5NS8dF6RnIrJJAviwCvoYlYKFKeQ0iN2LvvJes00bOQs9pU8+BMwHHJRAeHo5XXnkFYWFhjhtkB0dmjtDTqYuhrLhq8NjdX4oAQwmKjt2x6DTRBYU/UOVLECM6FxI3vzcIPaUoDgGloShZdg5BU6iyVZYA962voU9+F3h2D0NJcRjEDYJqOzBhdl98/rUcXkZ2ciK+RFEzl0DjpduLUAxYAvcvSFAKYuzwegRcroaoQonopWcR/UUkSvqRICvzQ0nVKGQGViN36dY7V9CMhJ4gCm/N8zTi7yb06u3Gl08gFouh0P8Dn1euxhbPAmjXSKCeNQyDKmbhlGeGkUCsE43GQu+OFcYOvlZ4+o4lwEKvY/nz7EyACbQzgV27duHDDz/Ezp0729kymzMmYI7Quzs5eiHi2WnI8Sdho8tADr2IIV42Fbkeq7BRtBQJejnSxJswYes5YNgiXC4ApA8pIH7vcyiDqaqWFwvJ6+cQfZqWQsfHoig0AdLyTVCFz4F4wVQU+WdBtdmv8XNrB+ZAFAIoqxOgmxiCCaXe2LjjJeh3U4VuzxCUHuyCyQPzIVk3iqqB9PzcPhKbMfmQHpyBkgFzoKPlWV1gFkqi6qt49RW0nKohVEGTwktcA3X6NPjOvor4Y+m0dLsN8qQyuGcUIDf4HOIfi4V29TKIkqZhi2gKTh2nFzUeu2U3Vz8Nj+S5IrjWFfJNPRE/voxe6pBSRS8Pvu+th/ubYzChMhSfZlxF9IhCSLbvhTKsKzR5GVDkX71zhbFqE7z60b+DKmLN17GzEWCh52wZ53iZgAMT+PHHH9GjRw/88MMPDhylbYTWPkLPNmJpHy9I4B04BvgMJ7HXPhZNs1ILzYEyaD3omT53l7ueop41BorAvcgNNM0qj3IcAiz0HCeXHAkTcHoCI0aMwIIFCzB8+HCnZ2FpACz0LE24He3rj0KxlCqAy4bzM3rtiNVeTLHQs5dMsZ9MgAk0SyA9PR1fffUV1q1bx6SsQICFnhUg8xRMoB0IsNBrB4hsggkwgY4lcP78efj7+6OqqqpjHXGi2VnoOVGyOVS7JsBCz67Tx84zASYgEPDy8sKWLVvg6enJQKxEgIWelUDzNEygjQRY6LURIJ/OBJhAxxJYtGgROnfujIULF3asI042Ows9J0s4h2u3BFjo2W3q2HEmwAT++te/Ytq0aTh+/DjDsDKBhx9+CCuXJ+D++1vXfszK7vJ0TMBpCciT1mHbtl0YPHiw1Rh0ukGH1WbjiZgAE3BYAj179sSxY8fw6KOPOmyMthrYAw/cDx/vAXARdbFVF9kvJsAEiMDxv34JpXIvCz2+GpgAE7AvAjNmzMDAgQMxffp0+3LcQbzlpVsHSSSH4fAEeOnW4VPMATIBxyNw4MABrF27FkVFRY4XnJ1ExELPThLFbjo9ARZ6Tn8JMAAmYH8EXFxccPXqVXTpwsuGHZU9FnodRZ7nZQLmEWChZx4vHs0EmEAHEwgNDcWrr75q+MdHxxFgoddx7HlmJmAOARZ65tDisUyACXQoge3bt0NYtt22bVuH+sGTA44l9C6i6EAtAgL7QsTJZQIORoCFnoMllMNhAo5KQFiqFd6yrampcdQQ7Squ1gu9GtBhCOEAACAASURBVOh03SAW3y3ci8gJiUWaaBTifaqh3F0G1fmh2Bh3HtNnA2nXsxHeIqmzUDwbB82incgJbGn7lxrkjpZBlfI+0rxAvtWQby2dcxcH9BqkhUQhAXLc2DeqRS+bHaDeBN+YswiPckXRm9twwDMVNwqG39U//e458Fr5NJSHIyBp28x8toMRYKHnYAnlcJiAoxJ44YUXDJsiP//8844aol3F1WqhlxcF93I5qtb0vUO8NVCG+EMmzoJu85C6z0sT4TalG0r2AkEDScCZJPRIsGmrAbErxC2V6HbHQpTuB21xGMTYj6DHTyDtjLzVYkkz60U8WZnQZqGnDOkPhf8RqOJIdAo+Zr8E/T5icDf/9DXQ6gA3t1aKVLu6+thZcwiw0DOHFo9lAkygQwikpaVB6GcrvGnLh20QsIjQ026CV6+1cH+P9v0KbojzIkp2X4WXhxJeBqGXCtHEOOT0cIWu8mkoNkhQsnQbVN2lyIy7Cvnso/CdPhqaxbOhCt4JVegJhE8pJmPV0EcsQ9qlJfDKroYbauEWlwV5eQiS/UuhirqGohkySPf0QdrmSQjyJ6GZl4j4j1wg0tciaPViBHw0BwGJLkj7IhQlIXF19qOqoZi4CSrxNWi7T0K6SAGf/K4I83GFFsORWRAG0ZY5kO0hF7S1kO1YDy+yk6yRwO3QVugWHkLuzVirkTtjCUr8F0MBErivn0NA7CTER4yClzugTjTyT3IVyaOToAJxwO+RNv0y5Itv+VYEb3i5XYXOZwZy50mgXjkHitJuEOkuQlPbE/K9qZC52ca1xF5YlgALPcvyZetMgAm0kcC5c+cwfPhwnD17to2W+PT2JGCe0KNqk/Za3fT5tMRYEQl1St0Co8i46qZZA/eB2+C793PkBt7y1rCcqt1AnwlCbzHcthyD3pMEXmQISqL+hiJMw/1UlTtHVb/w2X2goiXO3NH9IffYiuhDEcgZthMlcRWQ9itD/Mm+kJOd5O+WQUrVvkw/f5TM/RJFYTSfRgH3MUCRUNErnQNRSBcUVS9DAFUVxaOvQXncFbL6qiIM9ndBXjEBCs8PUbXoKnIPAH3L58CnIgY3irsgqPNaSD4NQ8nzSgSU5SC+PBZ9DgRj7aUVyPFMQPLLPSHyHI4gEnENh1CJ1Itc4UZL23qdBiVb85C8NB/aiAJURSlv+Ucn1MW4E+p5fSDWNfDJhuBbvEcBtMJ4wd8LflD0+gTxV+VQPx6CqgxjId2eVwXbskUCLPRsMSvsExNgAjcJPP3009ixY4dhc2Q+bIeAeULPyO9ml24vQjF4JHJCP4JmXs+6k3R58B1xFcrt1fAVRMt3UuQ+vhbiHTnwXTkSuWGlUEZUQOa6BFUSV/hmvI9MnwYRtJEqdNOhXvglSiYLwolElFA1bBBzZD5neH/kRjUWepkptTipPod52yT4/Gs5vNQKuHlroDgpQXIjobcR4WS/KKqUxJarwf6JpRPgY1i6pWVWQejtGQ7lyxokX8+BjKqIgpCrKj8HrUiDnJgMaKL20rn1sRphyh39IlSrP0aaoIcFoTnFFaq91xBEvgv+adxJ8C7tj5wII98b+UbiMyq/XhzHoGTAHGg8yJhoOHJ2SGGkLW3nomJPLEKAhZ5FsLJRJsAE2oPA//7v/+Lee+9FUlJSe5hjG+1IwDJCTxB2xQgfrIB+4XoSbNVIm70V4hR6AaNCBq/IakQXjUNR8F4EFUihmrgCpVcexLSyQ5BtGYahVL0790Uk3PVnIR88Fpke6aiIKIQ/XT7Jc12Rme2KVVFleDGmForjVGGTuKBkii9kPXaiahk9M6jdCt9ehXB7mZZ15y2D+6xYqvSlQFaaRL6sp2VaDQIeykPQwZegHL0CmsBVKCd7gTFXodjsjZzE7+Av+jMSL4Xi04yriB5RCMn2XbRsG0WvZ8RA3iMPmW7T4Zs9E2paNo4uXYrMl3NIhLrWZ6ZO6OaS0JWXjkS0bhJyN4cCq+Ig98yCOrT4ln8zFwN/fA1F/llQbfajZeZYSGipN/qLdCBEiH0VlIH5kMYQs5PLoB8xGUUefpBQBTVgXgzidQqIxtB8F3Yhnpdw2/E3w/ZMsdCzvZywR0yACRABoYdtTEwMjh49yjxskECrhR69HepbOQOqeXd6GeNWoEJ1TKfvYvmXC4Tl2vGuKBEEog1x1tNyNejtX73RUm5r3dNvkeHerVL8VCyl5w1pGbmrEuFXcyAaPQ7aHe9DzkKvtWjt4jwWenaRJnaSCTgfgUceeQSff/45/aHnv0K2mP1WCz0bDEadOA7x7lRZi3LQN1apwpkzi14YgQvRrwV8IpHmfwLyjyRIi+LNWGzwkmxXl1jotStONsYEmEB7EIiOjsagQYMwbdq09jDHNixAwJGEnoCnTfvnWYAvm2QC7UWAhV57kWQ7TIAJtAuBwsJCrF+/Hvv3728Xe2zEMgQcTehZhhJbZQLtQ0CvKUOJyK/RG9qmWmahZyopHscEmIBVCHTu3Bk//fQTfv3rX1tlPp6kdQQcSeg1PA8nomVN5cQQKHzSaaPi5p8hrKNGL448tha6QG+IKgpRQnvXhXvWouRANyi+ToXUHLTt1lWjFlW7l0A65RMgeBGSfTTUXeQTFOlDoS6OoP0DzT9u8tHTnoaJcyDdWgvp5vVI9iiGfMwGqDwikbsjEr537XZyhzn1FYj3mwblsByoA+klmJBjCDpe/5ax+S4anVEM6W+SIN6nQo7/3QwZdWfRUAeS8bTdTtkyBJngv658E8Jp30QNxZwWQVvx7CmGslyC3DO0z2Kr/G6pU0yD0aOQDdiEoDJ6MckEP41dYaHXqsTwSUyACViCwPjx4zFhwgSEhIRYwjzbbEcCjiP0ziL+cQV8z9S1VjO8BEKbEAv72LV4CPv+xfRFFb3kIOxpNwGrDB0xcoa/CHWG+aKlvbpqQOjw0XkusJ22XgkmIaE/BpnfMSR/QVvFtBhU0wGN+YC2x+n0OrDL0KFE+GwsbR9DW7ncsdNJ85MJ8QYhi87V1G1Fc9JcZtVQZa+BoioMucs8DX2Kddky3B9zDC4vp0NP+yne8Wi0xY+wxyO990IdRVpqolJnyzhm2qyarpdMv6Vw+0LYPqcVh7EvVUrIkojFwgSE0xvhTQ8hNvfSSOh20FvWZhws9MyAxUOZABOwHIGtW7eiuLgYW7ZssdwkbLndCNiL0FOvjEJyZU/oq4DoHYshdaNeuhOToEQX+iPtj+nBpZhJW5CE750FmQdttjxbBrlITn9MJciZokCRiwv0tX5Iy/BG0UQZFOd7wrd3F9oHT0r70flRpwkXEoUujYSeIBb/sXsNFrV7V40Y6JNo7z1Peks4nTpjNKoa3uqqkRl21CD09KtLqQMHbejs/zFy/c/h6Na3saG8G2QZk6BLUqDER4bXdFlYU04x6noiecMLUP4xjjagbuiqMRVJ4i14tYGPpx+8SgWhdw1rL6SS0NPQNjbTUBIqCD1XqoYadSyhjiBuW6mTyMqLcPehjaG1LpBtpnPcif8M4lpL+w6WK6EeSRtBGwm9eNpw+mYXkXfk0M4IQeYl2n5G74r4vcKWOIIaP4vc9E0o0vohfhF1DbkpymuQOTwOiOiK+Mha5NS3y9OVUhVuZQXE+mqIJ70BpM6H0kOOnDjabgbbEB5Cm2mX7UL0pU2Izj5Lgu8aJFGLSLhtgDSkDPCnLib0FrTvolTI/asN4jaXtrUp8SG7mkVQLepG19JRKGYXUnU3BgqPMkSnV0Mmp0qf3KgrS+2axjwUUpS8EXvTlwB/4kThactpk+x0DbziYhBNHVZuHsKeko+RYP8hlQSy6QcLPdNZ8UgmwAQsRODKlSvo3bs33SypWScfdkHAPoReDdS7C1El9oM+OwTx3bNI4MVi6Hk5Vd48UbTlHCSTaxDdmSop9aKgoar2qTiJOmfU9dwV9toL0qdD3SMJTxp3vTCqQBlX9GCprhp73OGpqoTXshhIe7vAK9iv0ZYwt7pq1FX0jIVeUSBV9lAI6UPbEHQ6C5iogGSRC4kcEkdnlsEtaRyiu+dAUTm2cVeN6yRojfjUVfTuJPRoT8ImHUtUw6id3cC6zaJFhi4eHyJXL6vnP6q+s4cgEusrerd1EZmEUx5rqXdwDC5vfoG6qJCYnbUWJe5hSCaR5t60BFe1CZLxNcjdS91PHk+Cfs0REqGFtPchbZJNuUq+sp9ELInVvJD6SqKwPC+wEjqYTKIOJoWI/o4EH0hQ0X6J4RciUdSLOB07hOitDT2MJbcJPfUyoQ1dN2hmDUPApcXQRdAWNpVRkOaH36ErS2MeQleXuqrm7Y8K6NRKyN88CnEEicdgYVNtwddNCLhg3pY4LPTs4pbKTjIBxyYQEBCAJUuWwN//rg/VODYAO4zOPoQeVZwGyGjbFBIwmiiq0KRi8ddvYHrXLOiF5S9hmVZ0FOG0r5yszA8lVaOoTdkEEhZ/wkZ9IpI9qY3YGuoTS3/AB1XMwinPDPrMqOvFXYSenpbY7l1qga4alSfJRz09D6hE9NKztDky/cF3v9PF02TplobkDpdBV/A+JDGDEH2+D9yGLIbaPwOdZvet6/4BWsKk6mTJxN8bBNmtrhr1Qq+eTyb14L3j0u0iDaRNO5b4ksB6RmhbV9eWTbCbdn4sZOJ3DQK6roWbkdC7rYtILbQrjUUZPX9YqoQi+w7VLopRM2scVdzeN/RJVs2gDbSPRuDb7VSJG0gVNoM4EjqTNNikfsJUGXTf4IpkQeht90MubTitMHQwIaHWeQ28jsmh8a5bUo7Obiz06parhaXbblDPfhGZoVQ19SCh2W8/tbXrhuiDi6ChTbtv68rSpHtJndBr8CUCvg3pvGPVUshrPsINPpp+sNAznRWPZAJMwAIE1qxZg4sXL2L16tUWsM4mLUXAPoReGcJdE6myJYd41VxsqaRVuIUzod9ahICMWdAtVSJoXyiUj8+BjpbNdIHLEH1gAiZUhuLc9m4IH0/nb6bltSlU4XlvPdzfHGP47FbXi71QhtEf+6qj9FLCG1SXoc/2JiDA/RsonrVAV4173KHd+C3iyeeSGOp6cZD+4N98u+JWV42SkeSv92ZgbgF1xzgL1e58Eiq0tCos+ZUvgRs9rxd/ei+JRGrrNpj8DE2AlF4yUIUnw33JhCZdNRZA67egnk8q0qqmYdAqUDcSEs/d6cUHej5N7UnLlxtqEf4M8TTqWDIp2RN7kqlbB4keXcwbJIRWQbPwG0gNXKnf8ZRpyO0xH0fXnEOo3526iMyhfEQiWp9geJFEYlTBM1S7Vh2FhKpd0YE9oS1VQDZ6P9wK9lKf5G6oIrHtFXMR0r1vYVz+nxCnS6CXM+gcvRxKURIeyXNFMC0fJ2zvimkD8yF5rwCyfBmSRSS6uq+hZdwYqBZWIED4bHs6grLjMJ06nqgLJFj87FyU+K+iz7tBdUiJ5Nkkug1CUlg6Hop4cd3zgTraHNzLuCsL9VseK3QvMeJxyH8bPOt9kR9fDF9tBdKWboL6TlVL4ZlQv2rkCP2XzfjFZqFnBiweygSYQPsS+OqrrxAYGIgzZ860r2G2ZnEC9iH0LI6BJ+hgAnoS2SX03GTD820d7E7bptdVIJeelwwKlOBO7wJVrRyDAG262S++sNBrW1r4bCbABNpAYMCAAcjLy0P//v3bYIVP7QgCLPQ6gjrP6bQEaBsYr/FUzWvFm9Ms9Jz2quHAmUDHEkhMTETXrl2xYMGCjnWEZ28VARZ6rcLGJzGB1hGgt3511PvYlF1/mk7AQq91yPksJsAE2kCgvLwcM2fOhEqlaoMVPrUjCbDQsxb9GnrG7hzcgz1btdmxtbzkeaxHQFtejCqP4SZvUM1Cz3q54ZmYABOoJ9CjRw+cPHkSDz/8MDOxUwKtF3qmdAKohWrWBATtoa1NzrRmk98mUPXC1iJUDaGH+fXCA/Irn4byMD3c3wJ75cRhkOv8ECDSILcUCAiVQH+oDOKUQ8ilNzvNOXQHElvV/UEtvEnqmYOiyd1or7sa2tnX1I19m3pXC3V6LIJmA2n1W8m06P/NThigPfAiISnNQ27lECRTF4yA1pSWbpuw9R0qWvS96QAddTEZkQe3WD/aVHkDttCLFafOzLrtGjCZsZo6asScRXiUK4re3IYDnqm4IbyAQTkSU46aHuZcdy3GRvvpBfidQ5qJy7gs9FokygOYABNoTwJRUVHw9vbG1KlT29Ms27IygVYLvUZdCZpxWqOA+xhqMUVCryVB1lLowt548T4foyiMRpLo09J2jW7UCaH54yztxbYUkjP0ZqtxN4gt1J2gYpHZD8Tf3K/NnO4Pwr5wfrTB8Nf0NqahI8OtDh4txXzHzwWm9dt7CF1ATDoadcKgHWkofrekPiginwJMMtDMoDZ1qDBvck3ii/C9lGLY1gUC1xHVUN52bTXPWK/ZT/valcErZRnEs/vTRtRHqFUeXUe7YyHKfgn6fUDQ4yeQdqdr1uTrri4uffkahGf3hDwlDL536FsnbB8T7b4L6nnC/nrNHyz0WiLEnzMBJtBuBPbt24eNGzdi79697WaTDXUMAUsJvaotSxD/US3c9CeQU+EH9ZkZtJfaHCgauje8402b5hbD3eMqcko9ocwA4t+k/dD03wBRqcgMdkXVlrruCiKqroyOGo59s5dCG5oFRUQfSI4qEJDogpXHX8Bfmu1kkIqcwK4QCa2xjMUO/cGuLM7H4p23OijIPTSID4mDKjgHueIMg/206lR4GfkhXS2F0jsJmmHDac+6i5DMI3+oD62C+qaqRNeg6z0DW/wLMXNPT0h0Suq6kE67uc2BpJK6dGz2hDqbqnFGHSrcK+/UxYE6PBxMhfhNo+4eN7uADEfa6nOQDtwPcSgtA1PbL2nGekSLlAif0tC9IRXJtWupmwZ1gji0FbqFVLnUG7c8E641YY856iX73hHEVzaTl319kByiJEF9FRqfBCjjPKE3pUOFMgF4dxtU3aXIjLsK+eyj8I0fDZ1iy01OykVAZjPcVPNubT6soiqmApHUU7cQ7t5KiEIjkRz1AgI8e9JSeIUR/6l4U9KkC0i9wLrZqSIqErL67hU6uibcaKuUgNhJiI+g7hzugDpRBumePkjbPAlBEupcMjoJKmqnp8PvkTb9MuSL6br4grbGoWvlVveRGcidR3s1Ctd4KV1ruovQ1JLA25tKW+fUQpO3FoqPXBE0d1LjtmiliSQ2+0JzPLLFJX0Weh1zj+RZmYBTErjnnntw/fp1/OpXv3LK+B0paPOEntBP9Fpd+Pm0dFpBe6il1NXpRGJXw5Kq4TDs8XaxbmlREFdJfXEqoxpext0brj4F7V9+QfLqMNpXrScG9b6IwvNdqXNFPrxmd0VRAQmYehu+B5TUfF5Ke7j1R04E9X0VKnpGVS13qoo028mgYYnTWOhpt8KrV9MOCu/DbUr95r9R+XVVs7KeiG/kRxek9WvcZaFQ6L6hW4yqza7USmwJfhhUjbJfYpAW1Qei3t4QrfJHdA+hRVhDB4f6Dh539EHo4tB4c98jvRWNu4D4lNG+cMadGbYi+lCEUfeGT/CEZwVOeCYg+WVqx+U5nPbdayr06jdjnvsStWEz6qrRJC8BnjVQll6Dl+dRyLyP0T5z1A+4lwkdKoQOFoeoX226H87R98Hw2SQYRXMacdIRp6Jf7s5N6nWrWlvXu7iroU0dSESVHChEWtJaFNGeftuJ/+tG/MUHE6AZeKtLivbAJsizLyKAes/KjGw2/B7rdRqUbKV2ZUvzoY2gPEUpG1Wh6zaE3klVtz4Q6zbcrKYKm0fHe9Bm3MJ44Vq54AdFr08Qf1UO9eMhqMr40rDp862DNoo+sA3J5IvXvASqTlN8wnU8mPrsmtAOjYWeI915ORYmYMMExo0bh0mTJuGVV16xYS/ZNVMJmCf0jKw2t3RLS2CdpnTFp8KGsA1CL+UsnjTu3nDir1B9ex90B9bSH+GeWBinQVIpVUmWnUPQFOoAsVCL52PuQ6HhD+Ctbg85ETsRVHoR4XEnqFNCXbeGcGEJr7lOBoIIFVw3FnoGMdq0g8Ih+CY1EXrvuWDCRBcjP0oge2h9oy4LuzC37g8+dd8QunSc+KwC33S7iqLENch0XwZVj0RQX4rGQk/oUHHwFJTJ37bYxeED0VyEUxu3m11A/tm0U8VGqkBNN+recA7HiNGP9ExiTgz11I3aC3XvJUadMIgFVZLcRnxDoqMLpi806qrRJC9vba5FZFJX5B70hKJfIcI/lWD580cxvaUOFYalbdqI+TdLUCVxhW/G+whYWi+M6jltnuCPpCfvzs0Qb5Oj0fK90DP2oTI8O/IT7DDi37RLSmYgtVxbuhVFbn6Qx41qtGFz7ugXoVot+FrHRDzFFaq91xBEjxtkplAlzn0x3MjvO33BaOgScqv7SAxKBsyhLyVkTDSceihLG7W2A22inLl0G9ReoZBHDKlr/SYIvRFUXzV0NWn+YKFn6l2NxzEBJtBqAjk5OSgtLcW7777baht8om0RsIjQAy1l1neUkFck4SXqGLD2i8XQjzfq3tBXjLwP3FAoVMGmXIXMp5BaWcmRJt6ECVvPAcNmYJleiTx/6nCgy6Dl1yxE7xmJcJ033OnFii1RZfARuhNQZwiFe/OdDHIO0wsIQhUocRqef5u6QRyk5Vb/rtQmLKRRBwX1juGGPqfSS3LkiNbipa0umH8ylap8sdSNoc6P7D598ffE4kZdFk69Q903XqMuESkvQLXqBH73YCEKHstCTo81kFGlSe2lwP3UGUJ4yB+gyphrQwePVMSXNu7ioN5Brbwei4V29TKIkqZhi2gKTu10hWwcLbXWdwH5/evVmBdX3agzQ3nEJwi82b3hV/C4tAvn44hZ6VJkvrweaZWxhk4Y8/fSs5KVZcjJroBXRhbS/Kn7h3FXjSZ5WUxdICZs9YMy4gRV5Y7hSg8p1gYeRVqLHSo+omoWdZwQWphRtfHcF5FwpxcfvIRuGvWcZGslSH7j7tyqNnje/GUpmjiIxPJ66lO8BE/ukeDd9xbD6xBVCMsjUTWXWqkZ2z1o3CUli1rn1VcG6aWUonS6lqqGQL5MCi9S/0K1Llo3CbmbQ4FVcfTCTBbUocXwpWqv28v06MHMxcAfX0ORfxZUm0l45sVCIlx3X6QDIWObdB9ZBv2IyVRl9IOEvlwEzIuhqp0rhGcCk1cVQjeMet1ObrKJsvClaKUfLh8Oa3HLFRZ6tnXvZG+YgMMRuHz5Mn73u9/h+++/d7jYnDmgVgs9euvVt3IGjJ+jcmaOzcauo2XSAbRM/PV6Eit8tIlA/T50IuOlXLMN1kB94BjgM5xeEKp7A1qvrYZe5EpLw2Ybu3mCnl5wuXerFD8VSyGiLykB1Hs55K+R6HW5D4Lqnwlsal0ZMoz66+6lxxFaeqkIYKHX+tzwmUyACZhAYNiwYUhJScFzzz1nwmgeYi8EWi307CVAG/FTR5WggNJJUG+gt0X5cEwC+rPImUUv5YCeI0QtCclIpE3uC6PWvo3i1lM1T0Jv+ar3jWqxmiecyELPMS8bjooJ2ASB1NRUXLp0CatW0doPHw5FgIWe9dJp8t5u1nOJZ+pAAuZeDyz0OjBZPDUTcGQCp0+fxujRo/GPf/zDkcN02thY6Dlt6jlwOyPAQs/OEsbuMgF7IfDUU0+hoKAATz75pL24zH6aQYCFnhmweCgT6EACLPQ6ED5PzQQclYBcLsf999+P+fPnO2qITh8XCz2nvwQYgJ0QYKFnJ4liN5mAvRA4cuQIZs+ejb/85S/24jL72QoCPXo8hLQ18/DA/d1bcTafwgSYgLUIzJqbii1bdmLw4MHWmhKdbtBhtdl4IibABKxK4KGHHsKpU6fg6upq1Xl5MusSSE9Po1Z2H3ZYl5OzZ8/iWm1dt42ff/4ZP//yCx5++GFqudXDuiB4NiZg4wT69OmD1NS1uO+++6zmKQs9q6HmiZiAdQlERkZi6NChmDKFWhTwwQQsSECoGAvV4+3bt6OyshJPPPGE4f/vvfdeC87KppkAEzCFAAs9UyjxGCZgZwQ+/PBDvP3229izh7rJ88EELEhAqVRi2bJl6N69u+FZ0BMnTkClUkEsbsOutRb0l00zAWcjwELP2TLO8ToFgU6dOoGfynCKVHdYkEL1ThB4Hh4eSExMhLB8KzwPKlTyevXq1WF+8cRMgAk0JsBCj68IJuBgBKRSKd544w0EBwc7WGQcji0QyMzMNAg8f39/g8Br2LJHo9EYns/r37+/LbjJPjABJlBPgIUeXwpMwIEIvPPOOzh8+DA2b97sQFFxKLZAQOisIgi8sLAwg8Djqp0tZIV9YAItE2Ch1zIjHsEE7ILAv//9b8MyWnV1tV34y07aPoFr164ZxJ3wb+bMmQaBJzyHxwcTYAL2Q4CFnv3kij1lAs0S8PPzw4oVK/Dss88yKSbQJgLCl4bly5dj/fr1BnEn/OvcuXObbPLJTIAJdAwBFnodw51nZQLtSmDlypUQ/jgLQo8PJtBaAufPnzdU74R2eQsWLDC8XMEHE2AC9k2AhZ5954+9ZwKGfcuEFy+Eh+H5YAKtIfDll18aBJ7wfKdQvYuKimqNGT6HCTABGyTAQs8Gk8IuMQFzCAjP5Qn75gmb1PLBBMwhUF5ebhB4X331lUHgvfbaa+aczmOZABOwAwIs9OwgSewiE7gbgXnz5kFoczZ37lyGxARMJlBcXGwQeD/++KNB4L388ssmn8sDmQATsC8CLPTsK1/sLRO4SUBYZps/fz7KysqYChMwicDu3bsNAq9r164GgffCCy+YdB4PYgJMwH4JsNCz39yx505O4MEHH8Tp06fxwAMPODkJDr8lAjt27DAIvH79+hkE3pAhQ1o6hT9nAkzAQQiw0HOQRHIYzkXgj3/8I5577jlDBww+mMDdCGRlZRkEnnCtCALvqaeeYlhMgAk4GQEWNqeinAAAIABJREFUek6WcA7X/gkIy2/vvvsuhGbyfDCBOxFYvXq1QeC9+uqrBoH329/+lkExASbgpARY6Dlp4jls+yRw48YN3HPPPfjll1/sMwD22mIErl+/frOLRWxsrEHgmbOsr9NqoMpJhtI9DZnhbhbzkw0zASZgXQIs9KzLm2djAm0iILwdOXXqVIwdO7ZNdvhkxyFw+fJlg8Bbt27dzS4WXbp0MTtAnVaLnPBHkOZ1ClVpErPP5xOYABOwTQIs9GwzL+wVE7iNwKZNmyDse/b2228zHSaAf/7znwaBl5+fbxB4c+bMaTOV3KBOkEtY6LUZJBtgAjZEgIWeDSWDXWECdyPw3XffoX///vjXv/7FkJycwN///neDwPvss88MAm/atGntRoSFXruhZENMwGYIsNCzmVSwI0zg7gT+8Ic/QHjAfujQoYzJSQkcPXrUIPCELXUEgTdx4sR2J8FCr92RskEm0OEEWOh1eArYASbQPAGFQoErV65g+fLljMoJCXzyyScGgXf16lWDwBP6Glvi0FWVQB70PHIlu+ilDCkkYpElpmGbTIAJWJmA0wk94dvwnj17rIyZp2MCrSPw/fffG7ZREfbNs8dDIpFg9OjR9uh6h/ss3KcEgXffffcZBN7w4cM73Cd2gAkwAfsj4HRC7+mB/fHM75/Agw+K7S9b7DETsDMCBR8U48CBg3jiiSfszPOOc3fnzp0Ggff/7L0NWFNnnvf/7TVbSWdGzU7pkK7tJTp2SHdsoR0RnLLCqFVsbc2Ii6FWTFcGM1IZfG0qW0U7MKlvZHCwyOA0YtXIU9tosaCVNvjQp0HcFWy7DduO4tPajc8w/6bS3Ql2Zvz/zkmAgLwkkIS8/M51zTUVzjn3fX/vk8Mn98v3+4Mf/EAEvISEhNGrDJfMCrACQa9A2IHeAwR6Rw4WYerU+4K+87gBrECgK3D/AwvxxhtvQhjZ42NwBcrLy0XAe+SRR0TAEzbf8BFYCly8eBECiN92222BVTEv1Obhhx8WDbb5CD0FGPRCr0+5RaxAwCjAoDd0V+zevVsEvLS0NBHwJk6cOPRFfMaoKPDgg1MxMykW99wTNSrl+7LQ7Tt/j//4DwtkMjbL9qXOo3FvBr3RUJ3LZAXCRAEGvf47+i9/+Ut3ikVOTo4IeHfeeWeYPBXB28z4+B/j5d8+h2k/nhq8jRig5nff+1NcuNDCoBdyPQsw6IVgp3KTWIFAUYBBr3dP2Gw2EfCKi4u7UywiIiICpbu4HkMowKDHj0gwKsCgN1ivNRuhfrEShvovEJ08H4nSqzCdov/O3QzDxunweDuH9S2kTtmAU7Jl+PhTDXjVUjB+ZLjOnijAoOdQ67PPPhMBz2AwiIC3YcMGT2TkcwNEAQa9AOkIroZHCjDoDSXX0Wzc9vR7mPfqR6hdAjSvnYmH9nRgSfUFGOYNdfGtvzc8/iNktDLoea4cXxGMCoQ76H388cci4NXX14uAp1arg7Ebuc5OBRj0+FEIRgUY9IbqtV6g1wljWiJ+diISz71XCPuafNRKYyG7QgtYCw9D06pC6vYvIJXJER11HeZrchgaipDYUgFlzluQJESi+eh7uCKM6DXEo2AOXT8+C+bSMVAv3ovmKPrv97J4pG+oPuHfB40C4Qp6TU1NIuC1traKgPf0008HTZ9xRQdWgEGPn45gVIBBb6hec4Le+JkroMucTGdHIm5hEqw5D2F+lRzFn+xBSnk2HiqX492GcVA9cBBY/SbaErSOkcB9m2FfuQ3Nma/Atn86XEf0mrtH99JRNuUJ/AY80jdUd/Dvg0uBcAO9d999VwQ8IclEADyFQhFcHca1HVQBBj1+QIJRAQa9oXrNCXoTBXjbLYCe4zCm/YhG9uJR/NlOKHEd1isRiB5/EHEEenJhmhfOKd/froH12WLYnNcz6A0lOP8+lBQIF9B78803RcC74447RMCbM2dOKHUjt8WpAIMePwrBqACD3mC91nYO+he34ZnKyxBG9Iz71yIl2nlB21tQ0NSrOTYHGulb0NmycOLJKszMaoIsswTa8cX42Z7LiFl9DL+TbcUT2yOg2hwJ47oaXIl4EC9/eASpJxZh0jpg+a7JMAk/Hx+PV87roeoqIxifKK4zK+CiQKiD3pEjR0TAmzRpkgh4iYmJ3P8hrIC3QM+4NBGq+rGIph19VmsH7BL6b0kn2mzToW/fCffGgWlz4IGriF4+Hd74k8H2KqH74DLohW7fcstYgVFXIFRB73e/+50IeDNmzBABb+rU0PNVG/WHJwAr4C3Q08/+EQzZNPMTq0U0zQJdmbsDN09GQPFdLeTn34bWHUuG+k2QzWmH7ptymlUa+cGgN3INA/UODHqB2jNcL1YgBBQINdAT/O8EwPvZz34mAl50tDfGUkKgo8OkCd4BvetoPt4EJM9GnNUV9JLo5/U4f/owfkWjfYlRX6BZtga/Sz6Kn2+7CHvCZmijiqGmzYCq/MfQVrobx1sjkfzzJKiyt0AVN7JOYNAbmX6BfDWDXiD3DteNFQhyBUIB9P761792p1j84he/EAEvMjIyyHuGqz8cBbwDei4lW1xB7zHg1HpIFtQgbtdpGGceRWp8FeLOmKGzZkP2NMFhVCx0DXqo6fuFZe2juH/PJBzhEb3hdGVYXcOgF1bdzY1lBfyrQDCDnrBzVhi927VrV3eKhUQi8a+AXFpAKeBz0Du+GrctfgfJu+phSAds1quQRMci2laJxGkvofGrf8Avm96GjkbvukDv5aYlkCEeirhxI9KKR/RGJF9AX8ygF9Ddw5VjBYJbgWAEvc8//1wEvMOHD4uAt3HjxuDuBK691xTwJujZmutgrDqIvB1N+CpmIV4pzIRi4VjUpqmgapSjYONYGEr+PyjX3Q3DBiOkpW8j78Sj5PYwAcsrduL5r7ZCvq4dE2M6kbjr7LAM/F2FYdDz2mMScDdi0Au4LuEKsQKho0AwgZ7FYhEBT/DCEwBPmKblgxVwVcCboBdoyjLoBVqPeK8+DHre05LvxAqwAn0UCAbQO3/+vAh4QlyZAHjLli3jfmQF+lWAQY8fjGBUIOxAb8qUyYh7cAr+/nvjg7G/uM6sQFApUH2ynkbIzkIud8cvwr9NM5lMIuB9+eWXIuAJO2n5YAUGU4BBj5+PYFQg7EAvJuY+PKWchwn/8P1g7C+uMysQVApsK9yH06frAgr0qqurRcCLiIgQAe/RRx8NKk25sqOnAIPe6GnPJQ9fgbADvQce+BGOHCwig9P7hq8aX8kKsAJuKRBIU7cGg0EEvIkTJ4qAJ5gd88EKeKIAg54navG5gaIAg16g9ATXgxUIQQUCAfQqKipEwEtISBAB74EHHghBpblJ/lCAQc8fKnMZ3laAQc/bivL9WAFWoFuB0QQ9nU4nAt7ChQtFwBPyaPlgBUaiAIPeSNTja0dLAQa90VKey2UFwkABf4Pe3/72t+4Ui5UrV4qAd9ddd4WB0txEfyjAoOcPlbkMbyvAoOdtRfl+rAAr4PcRvevXr4uAt2PHju4UizvuuIN7ghXwqgIMel6Vk2/mJwUY9PwkNBfDCoSjAr4e0bt69Sp+/etf4+DBgyLgPffcc+EoM7fZTwow6PlJaC7Gqwow6HlVTr4ZK8AKuCrgK9BrbW0VR/Dq6urw/PPPIycnh4VnBXyuQEJCPO77gYyWA3zP52X5u4Cq107jwoUWfP/7bD3mb+19XR6Dnq8V5vuzAmGsgLdB79/+7d9EwPvoo4/EEbzMzMwwVpeb7m8FLl++jOPHj/ulWCFz+dq1a/jxj3/sl/IefPBBzJo1yy9lcSH+VYBBz796c2msQFgp4C3Qq6+vFwHvT3/6kwh4ixYtCisdubHhp4BCocCJEycgbDDigxUYiQJhB3r33fcDJP/TQzT0/vcj0Y2vZQVYATcUqHz1TZpeNQ07GePkyZMi4N1+++0i4M2dO9eNUvkUViC4FRBG8wRDb8Ea6P777+elCcHdnaNe+7ADvR/+cAoeT/0JomSRoy4+V4AVCHUFfrvXgDNn3vEY9I4ePSoC3r333isC3k9+8pNQl4rbxwp0KyBsKrrzzjvx5JNPihnMH3/8MavDCgxbgbADPY5AG/azwheyAh4r4OnU7f79+0XAi4+PFwFPWDfEBysQbgp8+9vfFpcpCBZBQhazAH5z5swJNxm4vV5SgEHPS0LybVgBVuBWBdwFvd/85jci4D3xxBMi4E2ePJnlZAXCUgHhy877778PIbpPOITNH6+88gqMRmNY6sGNHrkCDHoj15DvwAqwAgMoMBjo3bx5szvF4uc//7kIeGztwI9SuCsg7CQXNmEInw9hI8bf/d3f4Qc/+AEtgTgDqVQa7vJw+4ehAIPeMETz9iW2xjpYoibB1hqB1HkTvH17vh8rMGoK9Ad6HR0dIuC99NJL3SkWwlQVH6wAKwB88803+O///m+8/vrrqK6uxu9//3uMGTMG/Bnhp2O4CjDoua3cddhs4+gbVX8XXIL2kVxYNh+Gft64W06wH1+PuO0PwvheJuR2ug/oPhLnac1axOXLYTqpQPOKBdDOPYzaJbfew+1qohPGpWnQJpTAnOuc/rK3IC9pJYwz9WjbLXf/VnwmKzBCBVxB74svvhBTLA4cOCACnkajGeHd+XJWIHQVEDYkvfHGGzAYDKHbSG6ZXxRg0HNX5qPZiG7UECj1v3bIZm0HpJE9AOd6X4I7qw2QycbBsvZR5CW8TTAnnHAV2qkZaNt/FmUJ9E/bUaRMaYKmfSdS3a1XP+fZbe0Ek5GQuUCpUG4q9g1Y/xEUx5eyAgMqIIBecfEe8Y/V22+/LaZYPPvss6wYK8AKDKEAgx4/It5SgEHPXSUHAz3rOeSl5cK8UA+DtBQp268iOmECJNYIqPYXIvH0eqRsisD2M/H4/YJtsKbvgzZTjlSZEXFTL0HXXoQUsR7XUfZIMkybL8Awz6VijZVQbAfW7IrEG+tqYJuXA21MA9Ql7VAVzYJlWxUsNEJoj0lHWe4EGJaqoJFoYDskh36VFrWdkbA3GtE89xiDnrv9zed5RQH51CfR2flXFBQUYPny5V65J9+EFQgHBRj0wqGX/dNGBr1BdaaROOsNxxlVNP3akoXmQsfUp6TP6J3h8R9BE/Mm2rKrEP2ABQXf6CHp9TOa3v2mHKCf6TM/cozonVoPSU4kmj/VoGtCVbiPNrkezRtdfP6cI4JSGhFsXjUTKde2wJZpREprNpRVShiy34c5GwSJM1C2pB6Gtgzc37oG70/UYsYVDW6efAzd9RtgRNI/jxuXEm4K3E+g94ax2mMfvXDTidvLCvRVgEGPnwlvKcCg566SQ0zd9ga9HqjrgT9X0DuM1PqrUGZfRNxiwNQH9MrSP4JpoMGPtgrI73sLkthxUJ9Zg+apT8FS6DhfP5tgM/YYTFgtgt4bkg1QSV+Bbf90Bj13+5nP86oC7tqreLVQvhkrEAIKMOiFQCcGSBMY9NztiMFAz34JmmlPoCymBI3pRiQ8fZkgbDNsOc/AELMDZ9NrMFP42SfVSH0xEUpbPKJtSag9BqTe1QDNN3ugEOtB95nyFKz7zdAnu1RMGPlLA4xfC2v3aHp39gzkSUtgPzYbNmGjx4tjUFY4DpqcdhSc18BOmzoyWtNx+dVxUC5ugHI/jUSuWAlD1HOw0IaQaHfbzOexAiNUgEFvhALy5WGrAINe2Ha91xvOoOeupARUia2rYN7oTSPX6zTStoCmXs/CuJAqIozWzWmH0WWEz93q8XmsQCAqwKAXiL3CdQoGBRj0gqGXgqOODHqj3U+2t6CY04S888tgnpYLa0U1dHGjXSkunxXwjgIMet7Rke8Sfgow6IVfn/uqxQx6vlLWk/uK3np02Afy6fPkZnwuKxA4CjDoBU5fcE2CSwEGveDqr0CuLYNeIPcO140VCHIFGPSCvAO5+qOmAIPeqEkfcgUz6AVql7Y1oNYej1R5RKDWcIh6tcN8/CrkC2PB6YxB2oVeqDaDnhdE5FuEpQIMemHZ7T5pNIOe27IOFoF2601stusUl+ZmlFnfWDRat5c65yK0tIO273I9O90XdN+uBDW3qz/YibY6KOcchWx1Emzle3HgWjo+/nRtt7dfz6UealCuQqJFA8sIY9d6RciJlemEeW0GUk9MF61peEmjV54Cn9yEQc8nsvJNw0ABBr0w6GQ/NZFBz12hh/DR630bArUpF6Fzc/ds71g0slFJewi6efUwZfcFxUvIm6JF4qflULpbbzfOs2x6FInXCkW/vUF3/nqkgVBwC9T3bEV0w+vQRLtRkYFOcYmQ6z7FokX0AqDWTY1HUDpfOgIFGPRGIB5fGtYKMOiFdfd7tfEMeu7KORjk0IiYekUdomM6oK+fgnWxb2P1iUnQ7V+G1GQ5edjlQh8VCVvrg9AeWwJZyUrElbdDRiNT309T4NuH9vbEosVZoPwuxah9fgRqqQVlS0thiY2EqcSG5Zv/Gy+RV56yei1UsUlAZTYKWifA3gaoD22BQnIO2qUVMEkjYGu7DHt0Fn43twEbTlAjrZ1QHdoDlQtwmUtWQ4ssGGfWIDreCEl6FgqyZyEldgLVjfz30oyUz9sBS8IaGNM7kDdnNYwxGuhzk+icq9C5UZZpRSLyYqp7J31Y34I6pwkppTmQVe6GrnEcVKXLYMvXwpSQg+cjKvHc6QhI7J1I3bUFKc4IOR1lAMcd2Iq8052Q2S9C35LUK1XE3a7k8/ynAIOe/7TmkkJLAQa90OrP0WwNg96g6rsZgVZPhsZLr6Ng1xLIJROQEkMZtt2jTVdhOtAEe6wcpqw0GqX7d5hnFlNM2iUU/LGI4CwStWkusWjWCsTde45MlGnUzlqJuCl0r6IcKCZGIG7hdahvN0Il/I6Mk5uP16BNmgR7eRryxu9Ds3wr7j6eiT/vshC4XUXZZ7EouJei0hr0yGtcjUmnlolxaF2H3dZOu33HQkZgCBvV81QNdPnFqCWTZ2tpJIz1NxAXew6q+CaoO45QXu+jZNi8T8zLtZYscqssYbQyjiLb7IcITLsPh64SWSSktqNIuesgUj/ZByzVQl4UQYA5BrVC/m/9JkgfvwHj+UioSC9twwTkJRFgCu0n8L4tfzJNMffEx43mB4nL7l8BBj1+MliB4SnAoDc83fiqWxVg0HP3qRhsRI82Thhbx8B2qhia8gnQE5ioCfTKCjthuTMeJmUxpIf0SNw+FwbKojUmEswt6pl2FOLT9JnOWLS9N6C8nUa8BJixWWBsbIekxQj1tktQf5gF030Eeg1JMLXdB+mLawgc9dBasqHCTpgX1SBFfRnyWMrifbIQhoSD3bm7Kho9tNGonpCX2/foNXVM4JVIaR2rXwVy8sfCcCYW2vtqoPysBDO2p2EhtkBLSSDRyy9DtXTosoR7p2APrIOs0xOmqtVXJkE2fQvMccW4Y5scFz6ntXfNWsjiLdB+IEeBAHqvRSBjxVi8K0Agg567T+6onsegN6ryc+FBrACDXhB3XoBVnUHP3Q4ZDPRE6IhEzf5IaFZ0oKxhEvLurYHsSZpiXKaA+WkjUo/R/y99CfVf3YllmyajalcnbbagkTbaVStMb3bHotXRtZH5kDW8TdOqtA5tmgV5J9NhyqmC4swqmKauhy15AmzznoFs069g36WBdMcGHGgFkp9fQhsfzkE+bxKkUfHQbFbAui4NGuRAE3UUZbLCXsketUsfoui1PWiO2or7T8jxymtbEHd2PRSNBJQJuyGvTIIx8yKU65rwVVQ6qjdasOBoJBZ2UjsrIqBIahiyLCONVmrnvQ+z63pDSgCJo7xe5SfOtXuNWyFLItNoiojTRBPYPbIatUsKoarPR1nCHhgnlkIuRsjthHSp43ealnzMp7oUf3gEedHudiKf528FGPT8rTiXFyoKMOiFSk+OfjsY9NztA59EoPVfuDAKppDpYdk4wd3a0Xmd0M9+mEYG/x2m5RGwH1Dhjsr5+HPdkqF36NJOXpuwk9d1KnfQkt0tqw6Ke45C+SGNTrLHigd9GTqnMuiFTl9yS/yrAIOef/UO5dIY9AKydy3QTKPRvDN62pDhfgXtFiPydrQAgvVeJ5C4QQOVj3z4hi6rk3YPL0BZ+jEagXPTZsb9pvKZQaIAg16QdBRXM+AUYNALuC4J2gox6AVs13nmWRd4zaA1gZTrJhU2evARtgow6IVt13PDR6gAg94IBeTLuxVg0Au6h+Eqak91Qi69DGvMbCR6MOIXdE3lCge9Agx6Qd+F3IBRUoBBb5SED8FiGfSG06m2BqiSVsM095hoNdL7uA7jUhXKojKR+tVRFFS2Q/0BbayQD6egvtdch+FxFcyFr0MXTbYkSZeh+3CQZAi3Ey+8UTe+BytwqwIMevxUsALDU4BBb3i68VW3KsCgN8ynQrBE0cS8eSvoWXYjOqkdesECBFehnaqC9bW3ofMG6B1fDUlJEqy0wUIYyDOvmgl19BEyI+5/04bbiRfD1IAvYwWGUoBBbyiF+PesQP8KMOjxk+EtBRj0hqlkN+hlvoPUF8lXzv4FkL0TZQvbKaYsDXrJfGheSIeCkjGiybvOemA9VJRQIaEdropdOyGntAdtI+2OtU1Awd5ZMP5LLmoRjzhKorAlrIJhIyVqbHc555gG9pyHUJBc32NVIhgKr5sMy/ksSrLoOtphWLUVpuQtKIupuDXxQkoQujQfRpDvn202dIcmoZYSLsySG7BNXIV9C9/B8rQG8mqRQ0Z1Tdy8E5pYsjxxOce4e7oImnywAkMpwKA3lEL8e1aAQY+fAd8qwKA3mL5kN2K1O06QSCnFQdJzchfoNWdehuHKWKTaqxC3bixqP9+CREqtaKtvgKGkGM+fmoQjRkp0mO9IdEg8ZYTlWgMUq66j7NMiyPIXQT2eTI9bn6CosGOwZhvF1AxtNcWCpbmeUwz12UyYNnxEu1id9RDyXqe1o+zrnZRY0XPYrO2wU+KGTKCxPokXb07UYu4VDSVkxKL2wGVcO70aK21b0CZ4AE7bCumZNbA8QAkVTWehrnwU97euQY00H4pe53hphNK3zzbfPQAUYNALgE7gKgSlAjyiF5TdFpCVZtAbpFtszXUwtnSIZ0QnK5ASfSvoGSW5FNVFhsZFl5G6AjDob4Pq19PQJkaNEag9MgO1KbNw/DcRqBGBjOK/XlmLu1+Y4kh/EP5tI9PkpQ87poKzqxygR8kUGTRa53pObdrDMGT3Ab05gFG8z61Hf4kXP33yHRRL9jkiyQhk92ckI/9+AkwhuULw0aO8XOXYYshpXaG63AF6R7DBAaHd5/SG3oB8srlSAaEAg15AdMOoVOJ//ud/sHjxz3DhQvOolB/shd68eRN/+9vf8K1vfSvYmzIq9f/Od76NEydO4h//8R9HpfxAKpRBbzi9YWuBOukpGCgT9mXJNqyxa6CTViCj8jIwLQH3nv8MD1fsQRnlxCoXX4Tm01WwPLISeppO1dpKoZ+3DnEvPo/a9DWUQkHTpsoCRG/NoKnWHTDOowSMHGEDRxGkT6/rOSeTPPVOzIUq6jDaipwbQGjN3m3bk/Dle441e46D1gVOo6i19NMwWFW3JF60vXAJiQso/7Z0LWzbKLGDdokUPNMAZeEsmHdcxFMv/wM2/6QK8ldLkFqei19cS8fHvx8H5VM956jO7ISC526H8+SE3TUMemHX5T1voqtXMX36j/FvjVXhKwK3fNQU0GwqRuJP5kGtVo9aHQKlYAY9r/eE0/9OIozUkY8crc9zmfEdWWnCVO3iSJgo8zaa7mRMm0mGxNUDGxJ7nHgxsurx1axAXwUY9ML3mbhKoJeQEI/P286Erwjc8lFT4Bc5LyL2oWQGPeoBBr1RewyHV3DzpkWU7apHbVQ+5OXz0UxTxDy4Njwt+SrfK8Cg53uNA7UEBr1A7ZnwqBeDXk8/M+gF4TNvo5E6cZRQyKcNwvpzlcNHAQa98Onrvi1l0Avfvg+EljPoMehh6tT7AuFZpDpw0kWAdARXwwcKMOj5QNQguSWDXpB0VIhWk0GPQW/koGentXgYJ1qu2I+vR9z2B2F8LxNyl58P/fnxJOmikyxbiqFMMwKZhdDI66A7cAOqQzuhih66JD6DFRgNBRj0RkP1wChzWKBnO0eendugJcuqlJixsF7pIK/Ri7Cl/4Y2o23A863xOEI2VcrAaGLvWtgsMNYDKQvlvJwmAPqHQY9Bb8Sg18u6hOBO2Hgho40XvX4+1MPuYdIF8BZSb98AvOqwWBHKur881mnbMlRh/HtWwP8KMOj5X/NAKdFz0KOd/d9diaOyZbjwaZdl1Dmo7nkGpvQ3yVB+Je7fQ76kAQp6tvIM/P32WHxMdfdGEFKg9GOw1oNBj0FvRKBnbz4KxYJtsKbvgzZzEuTntEjZFIHtZ+Lxe9efn85HXHk7pVZ0Qpa7CwX23/akYQwn6WLJORfQuw79bNpRJN0J6wuXoXRN50i4hLy0oZM2UngXR7C+w4Km3gx6QdNVXq+ox6An2EUtfgcTV/eOlmyrJ5P5iQpEl9AX2z2dmDiT0oa+ughr7E6YV1+F4uliNNvHQmrrgGThTlTNNSJzRzviYikmsnEsNNV7EFe1CKnbvyAXBLo26jrM1+QwNBRBfmo9FEOeG4mUqBuwox0Wu4JmbrIgPbAaqflURkInzNbHULEZ+NWKYtTbYrAk8zEyux8L7S/71GvmUaS7XCPcpz//U693RJjekEGPQc890BsiGUOf6TQvFmxPBJNj+qYJysDt+/OCPxZB8b+1kGWMNOnCMaLXJkzdzhyD6IQkJMrHwU7Gzn3TOdqoHoMnbehvzekN0xcCN9t3CjDo+U7bQL+zx6B3QIXbsppuAT2HkXskrJsE0AN+SWbuiet+hIzTj4ije8I7N6NxIV45Nh34r8+gW1YGmwiLoDjKJ/Ab6Rr816vtSHzgICD8PEGL255+D/N++xysz740+Ln36zdnAAAgAElEQVQLKyCdcxzy0vdhHr+erruMX767BKafFsOauQ/NhdeRN5XeyUXvI+/4DGS0Luse0RPSk3rq9Qeq1+9vucacPS7QuzFo68egx6DnFugNlYyhzzyM1PqrUOZepJeIK+i5/HwBUCsM5R/Nxm0jTLroO3Xb1Y3Nmxb0TudoWAPrihlDJm3IpBFB+yHmigeHAgx6wdFPvqilx6BnO4qUu7ahfvrmXibwAjAJX551jQLoOaZuRbhzBb0uwLLspi/d+x1A1wV6WIGPq28glUBPLix7Ab2LBdDbvgKWjUOcGyt8iXe9jkDvxHwYn9wPuwh6clpDeBV2aSyaV1CdqB5v7Kc1ejQCac1x/FucynXWq+818p6Qcl90QVjfk0GPQc8t0BvsU2JakQilLR7RtiQcyG5AAn3TU39SjdQXXX6eWYPYnE5oz+uRJ79MiRWrR5R0YZp7FInx9GL6+WGY9sbSlLDjqF2aCJVrOkfSKuT9cS9eGSJpw7CQv02G9ZvQD41n0PODyAFahMegR+2wN1ZCsbSYpmqXIC/zH9BWVYVaGpEzH5LDODsNz5yNxPLX1kCan4vftE7CL2kjnG1jDg5Y41F8pgR5NBdauyINCsoYL8iNQNk2CxIPHaNEolzE0WihLLME2vHF+Nmey4hZXYlffaXB04OdG3sQqnV03Wq67iu6rrIdyRUHUNBaAEV5J5Sbp6Ot5BziXnsdqXsS8dOjYzFRNhZ5eg2a1c/0qpdp08pbrtHy3K3Pnl4GPQa9EYOeV55OT5MuvFIo34QV8J8CDHr+0zrQShoO6PW0oRM2a6eYLMQHKzAcBRj0GPQCA/SoHzjpYjgfYb4mWBRg0AuWnvJ+PUcGet6vD98xvBRg0GPQCxjQE7qCky7C6wUUTq1l0Aun3u7dVga98O37QGg5gx6DXkCBXiB8KPqvA9kQHL+M6IU96wEDt67+q5nd0gCTJAmp0f4rM1hLYtAL1p4beb0Z9EauId9h+Aow6DHoeRX0bKc2ITGtCann34bOR06ZtsYKKJdWwBKTBcOhLCT6wQOvee0iaGL1qF3ug3UygyaI0A7mR3Jh2XwY+nnDKNtWB+Wco7SAOgm28r04cC2ddr6tpY0z1/vPB7ZUIHHxJRSQr1aqW7qSievUCqQ2kEO/W+cP8LLqp9w28udKoQ08BV+XQzX8d1zAXMmgFzBd4feKMOj5XXIu0EUBBj0GPa+CnsP2pBhy8nfyFegBZIJMnlDGJ3ubifrsk91WAXnSVeg/34JEHxQyVIKIzdpOUBYpRsx5eljIbyvxWiFs+8lXS2jHnHYYP01H2RQtEj/tLz6Jkk2sVBwt/Ha3OFu5CtH1WbAdSvK0ei7n91eu8CwZoQpQ939PG8ug56lioXM+g17o9GUwtoRBj0FvxKDXdmA9VCcACY0SKXaRW3p8PiwzZ5PT+VXIN1JiRkKTmEsrk3XAkrAGxuxI6B5PQ9m1SPIQiETe4VWwb62AibzsbG2XYY/Owu/mNmAD3RO020z1ew2sq1zOr96MtgVO0NvY7pJ8QW7tEjnBWIcIK8r9O2mUiUa0XMvOjYVVrC/tYiPz0bavgFQtWRQUV8AsuQHbxFU4kFxD/lATILcZYUoogRHrIW/ViLBkPb4JKSsuUsYbjYjN3InjCVVY2bee9nikyiNgjUiCbi+52LcZoVxRR41pJ7+pIuiube1OCfl+mgLfPrTXmSwipylQGsHLqaJ2kDQxBGSZQAEle5gX6mGA1iVdZB/04/eKuosaHdrTK+fXXLKazs6CcWYNouONkKRnoSB7FlJiyWy1aj1Sc9qhrF4LVcwk0YKhqy/+ZYscb61pgaJuJ6TbVJSzOQGJE8fAKlFAf+gxoK92pUegjSGrm3uaaORtJ1Jd3oKOOmRCF1WHvKrrSH1hLeSnt0JnVeClhZexpfwSweQNyLM304jdXijSqNyGI1Bfq4C6xAKp9CqMlWOhY9ALxr8tXGcXBQTQmz59Gv7jIuVz88EK+FmBtet3ID5hDtRqtZ9LDrzibrtJR+BVy3c1euCBH+HIwSL3QG+gZIzGrZDRaJfwxzjxFMXzxIyB7j4t5E1noa4kU8/WNbhZGgl9/Q2K4aFpvvgmqDuOUEya8LscfLl/FmxVKkw6nok/77IQlFxF2WexKLjXiJQG8txrXI1Jp8hoM6a4+3yJrB0alxE9wUS0J/nCgoJv9JDQzzQxNOKX296n7DUwRa6HtO4sEjf9CNp5p6FrWQCFbQva9kdCM20rvn6oHQ1/y4EuexIkE+Mh2UHxalHHnOkZzhHLhmPQSKuQOrW/elKbTyah7JEZKIjdi7xzq6CfSX5/uQQy9zUg74PJ0JCptJgSQi73tWldCSLt0E1LhiGbnOezIV5ftqQemlPJvQyfxeu+onKn9C775kkCMedhFxz0MRaiETSZmJpO1UCXX4xa8hO0niQIdhkpE3OCnX0hkTVA4RyRVZfTz1tycLNujHOUthDWab21s2ycQCUKmlQg5bPXoXExPe2pgwXqe1SwlpqhqlTBopkPw09qoP4jQR0IEu86CuVnWai9l0aCKQqp+ZEKxAkjwoSJXSkrARnc7uFHk0f0PBQshE4XQC8m5of4u7/7Vgi1ipsSTApotdsZ9KjDGPQGeWoHTMYQMhmXRqBGHM2h6TebCaq79ohTtyIoEOh9SWbJ0fljYTgTC+19NfRHvQQztqdhIfY54IlgUb70MuSUxyh5shCGhIP0B94BbCrKxhU8pKx0fmrX+X2mbgXQE6Euu6pX/Jrws+aE4j5l78C3lqahlHIeZbbp0NAaP+tSJyjupkWFBEgX/3cLvhjXgdpNu1EWXQRz1CbQeJYL6DmnE8W4t1vrKcItQVft0ocw374Bv2wpRPMLH8G0nEbp6P52K4FMV0oIae5wuxcSRP4P/v3Eb/F/Cx3n6mdTu2KPQdea1tO+ruv6Kbs/n61e08Lktp94VwM038xHmQB6DUkwtT1GMJ3hom3P1HtX/90kMHRMx1cjLudR6Fy0c2QEC9dUQSn2V/9H2/YFmFQ1BrHjKTKpyEJT4WSaLZ5PsHr7bsQ1aWCJpzJEp/0maAQItDLoBdMfEq7rwArw1C0/HaOpAE/d9qjPoDesJ/ESdI+shD55Czmul6J80mT8x6Y6itcpQWp5Ln5Bi//PPNOAx48kwZh5EUpyVv8q6gn8a8wp7LCvQXNdJkXiUPZtUgPk8yZBGhUPzWaKzFlHcIMcaKKOoky2HupTWVA7z4+2vgXltA0wxW6G+Vg89ElPoIxGqkzpNUgRUjmadgJP03Qk/ezt5Ar8U6Vr2Qoq+y38zk7ZuLIIRKevoqnHd2gDQgOUhbNg3nERP7izBsfuoanRqN1Q0Uhfc5wWf0/l3zw2m9zqCUqprinVR2hzxBgYCRp76lkIvXUl7j8RjxoaxdTkNEFF56la1yMun6ZgN0SirDwSOyg95NHulJAIuCaLHM1tQvKLY1BWOI6ub6dNEatgniO0rwSNTx50SRfpvKVs80aCZuchQKYCe9ActZXqI8crr21B3FkKLW/MQtuhMVDRqKYteQJs84qgOrqoR1vKSop7oAry145AWZlBsUXpeLe0A+o5NdSnR8jNnjaluGq3ZDIkQqRREo2cthchxeUZ6qqDXVi7J0Y6aSF97QKMC6+LdS+Q0DMzfjdN1ebA/EILUsRyj0FFI7zC73SxpUhdR1PMZ47R8zWMjSjDep59dxGP6PlO20C/M4NeoPdQaNePQY9Bz72pW599Djpp5OphGtH6dxrFioCdwrzvqJyPP9ctcXszgEdVayaoXECQJG6saKEpxdXAsbMoSxhsOJNGrKbSVOPnewieBj8c06COEb2AOGjdpE1KGytcp3KHW7EBtNPUU76wtcQ54jncm4f+dQx6od/HA7WQQS98+z4QWs6gx6A3yqBH05kWI/J2tAC0nIxmapG4QQMVbWbwzdGO2u27YWiLIJDspI0fj0G7Mak7K3egMm1Hyeqjfhma99Lu1YEOO+3M3aSlycjZ0BXRJgx3t636pqE+uGs/2j1pQepiGs37UEObb/gYTAEGvfB9Phj0wrfvA6HlDHoMeqMOeoHwQXCnDvaBvOfcuThUz3GOGI7EQi9UpenbLga9cOnpW9vJoBe+fR8ILWfQY9Bj0Bv0k3gVtac6IZdehjVmtl/MmQPhxcB18L4CDHre1zRY7sigFyw9FZr1ZNBj0BsG6NG6L9s48jnz7ofCnSQEcffm8WX48r0l8F7xXekTryCvNZ82AMDp3XaddsSqYC58Hbpo2kxAO0V1I5yitB+njRnbH4TxPdqEIsrXCfNa2vV6YjpMn/L0p3efqMC6G4NeYPWHP2vDoOdPtbmsvgow6DHoeQ56R7MR3ajxweL7oZIQhM0TT2HftUn49SfV0ER77wPdnT7R5mLpQdYxkpIkWGljiACV5lUzoY4+gmbRO26YB8WdWW3kt0zJE92HYJXiYrcyzDvzZQGuAINegHeQD6vHoOdDcfnWQyrAoMeg513Qs54bIqniXO/kh420uaH+1iSERGfaRq/Uh/pNiDuaBOXZDSib2xV/RhsglubTBogxNMpImyDIqLjZ5d//uvEy/lVIXDhDSQ8vqqCRUMLFoXiYtq+HtpF2+domoGDvLBj/RUifOAzzkz1efFKyKClIrifzYieUUfnSdZNhOZ/lsnmjHYZVW2FKfhbKKwegaxwHVeky2PK1lKqRg+cjKvHcadr4Ye9E6q4tSDm9nsyiI6Br34m4A1uRd7oTMvtF6Fuo3jSi56N44CFfBHyC7xVg0PO9xoFaAoNeoPZMeNSLQY9Bz03QE7JIbzjUogituBZKMCh0YImkTw7rwEkVlcg7m9k7+eHJtZD+q6F3EsJn06Htk4wh2JUY02bCkP46GfyqMKMqHu+TRQpolG3GFQ3ZmcSi9sBl/LlxExa5/Fu+/DrUrkkPgvVJ7juQpF1H2adFkOWTh9x4PbStT/QxXS5CG6VUmDZ8hNolzodEGHmb1o6yPlFfwmignRIuZJTykHLXQaR+sg9YSukgRREUvzYGtYK/nACJj9+A8XwkVJSKoW2YgDxnooiSRkhvy5+Mjxn0Qvqty6AX0t07aOMY9MK37wOh5Qx6DHpugp7L4zrE1O3ASRU7kFq1ARbX5Id7fwbJoT/0TkIQI8J6J05IKZorddoXKKPRtGin+a6s+gKU5T+CUrIPDlPedhxSJWPFd3r+bZOcg3KskOrQk9RxM9OI22hk7sLnwpo4YSqVTIuXPnxLuoadkikM2X1Abw7Ig2/gtXTGtIegvjIJsulbYI4rxh3b5I5yBA+6eAu0H8hRIIDeaxHIWDEW7woQyKAXCO9Cn9eBQc/nEgdsAQLo/fCHP8SNG84vywFbU65YKCoQEXE7du4kc3rOuuUINLcf8MFAz36J8mIHTqpozHwH81yTH85vBnIcKQk9SQh6SmCgadauZIzxK6D+z5egblsGC21iiLbRWr2kp6Af/xzMOkCdQTFapWth22ZEqu5BaF3/fXIZTFNXw7qrCJL8lTggWYGPz9PoYNJq1KavoaSICpiVBYjemiGmT5yl9ImZWe1Qf3AMqZRxq4o6jLYiZ+KEEPe2PanPRpCr0E6bSyONpx1r98Ts3ybkiWsICeweoXKWFEJVn0+mzHtgnFgKuZDe8QlNJS91/E7Tko/5RyNR/OER5EW73Qt8YpApwKAXZB3mxeoKoDd9+jRc+cMpL96Vb8UKuKdAzupCPPTjnzLokVwcgebeMwPQztHEVormconccvfSoDpPmKpdHAnThzSKSBUXpo7L0qsJzoI/jiuo+iFEKsugFyIdOYxm8NTtMETjS7ymAE/d9kjJoOe1xyp0btS8aRGNsulRG5UPefl8NNNaQe/ZuoSOTtySoRVg0Btao1A9g0EvVHs2ONrFoMeg5/kaveB4tr1WSxulP4hpZkJmrNfuyjcKNwUE0NtO8XsPPvggvvvd74r/i4jwVdRfuKkb2O1l0Avs/gn12jHoMeiFAehxukWov8iCoX3yHz2Bv938lrgg/+uvvxb/99e//lUEvrFjx3bDXxcEDvdnDI+B9zQw6HnWJ7bGOliiJsHWGoHUeSPwLfWs2JA9m0GPQW8YoDcayRidaKs/CPWKClhiVsF4LBNxbg2vcbpFyL69gqxh/U3d/uUvfxGBr6Ojoxv+uiBwuD9jeAy8B2NEoDdUnnSbEYrFlZCkZyLRWgfj6Ra0zdqMvD9swxra0iZYU43u4eHfC3IoiMuXw3RSgeYVC6Cde5jXRY+wAxn0GPQ8B71RS8a4hLwpT8D4ZJdZshtPP6dbuCESn+IPBfy1Rs9X8DjcEcaBRizDaeRxJKBnePxRmHe9DV1/buq2OijuyYf0pBn6ZMdTbFoxEyryBq3FStwv+IaONuh59PeCXAymZqBt/1lyKaDGCFZaU5qgIYP5VH98SEO0DAY9Bj3vgp4vkzHgCnq0G7bfdAs9DNLS7vQJCadbhOirK/ia5S/Q84UyAjwOd4RxoBHLv/3tb16bru6CyTFjxvii+SO+p69Az7p9Ee7On4A3vtkDRVct287BaJNDXpmG+6vGYklCJKyYjTLyGjU+noaya5GAPRJ51YWQ7tCiltaJ2juToCuNR+1SFbRXJiBx4hhYJQroD9HmMyG5qPwSrU++AXn2ZqiwF4q0BiBZDpmVfh4bC3zVTmXMF8+Ha6qRbgnMz6yGMUYDfW4SUmIsUM/JhxmRsCEehmOxKFtVRzUn0/nMnTDOq0Hc1EuUHET+omJ7yNj+ETKu33wBhnkj7oawvQGDHoOem6A3+skYcAW9eXs53SJsX1vB2fBgBj1fKP7NN994bbq6CyZv3rzZCx69MQo5HHh89tln0dLSgl/96ldITk6Gx6BH5u9Wu0N1w9JF5NH5OrTEU6CoRynlZHetWrFsehT3l8Sipldaj2Oq1LqNfteSg5t1Y5DaKx0oB1/un4Vz65KRTmbztv3TaRQwEan2EjSTu0Cva94lH9Kf1kD9xyNQU/JP4l1HofwsC7X3UvJP01moK/uU8e4SOp98TRv0lGC0GpNOLcPHMcU0GrevOxvdYah/mNo0DmULFkA/8zBMuRRTeV8DwSdFSOZE9oqDFM7XUhRl80YCVD6GpQCDHoOem6Dn8nz5PRmjDc2n/gDJwliYkuY6cm4TtJxuMayPPF80Wgow6Ple+b7w6I1RSFd4dBccJRIJzGYzqqurcffdd2PNmjXYuHE9Pm8747EIg07dtlUg7j4jlKJBu+PWtvIMpNj2wGDNcE7dohfoOaBrAspmP4yC2GOw7pajee1MPNSyFh/Hlva+5tUkGMjgXfuNnkbyCOBu3424Jg0s8X3Shk46yzgxm5bW9E41sm5PI9DbAi2Z6UfvzUQbgZs+U0gccszQNL/wEUzLaZCR4NZO7ZEvpulnlzhIAfTK0h3n8DE8BRj0GPS8C3q+SMaQKSEv+R2kpcvQvJSSJU7S+o1kSp2Y5pJukUnfIOsXQHGNpggkxZhfGYHnON1ieG8FvsonCjDo+URWn9/UFR49Acc//elPuHLlCtra2iBMfX/ve1JYPzd5XN9BQU8AOzKwj1vXiYLXtiDxGuWJl4yD9iR5fs5OwzPX0vFuaQdNl9ZA/uoBShxSQm1fg+a6TMgtFUhc3ADlfgWN6NFo3Wt7EP3iAmS0ul5zBKoT2WJykXY8RWhdy4H5hRakPFBF99NDWaUSz7/wKqCMF37mOL871UhWCKMkH3dT8s/CzkhoGmg6eOpTqE3eB/P+JEiEuucDBRsiUVYeCf3JsVDd1QBN91Q0JS1NeQrW/T1rED0WkC8Agx6DnuegNyrJGI6pY4k0ElK3dts6O5bTLfg1FyAKMOgFSEf4oRpZWVk4fPgwUlNToVQq8eMf/5imcP9pWCN6xqUZsLxwBJr+NmN0t6UTNmsH7JJIyILa0V1wSVhAGeNnYVxIjRNG+Oa0w+gywueH7gu5Ihj0GPQ8B70g+xhwukWQdViIVpdBL0Q7tp9mCevzpkyZgu985zvibz1eoxc+Ut3aUttbUMyhvPDzy2CelgtrRTV0ceEsyMjbzqDHoBfyoCd0MadbjPxlwXcYmQIMeiPTzxdX221WWIwFKLDRCrS8RF8UwaA3HFXttKFEuM4+DtKgHqEcTuO9fw2DHoNeWICe9z86A93xOszHL0MW0wGLJAmp0f4rmUsKbAUY9AKvfwTQM+XFYb5Vh5u1Sp9VMNRH9MQki4mzkSjzmYQhd2MradYWQ5r5AWQZ9Bj0hgF6Hjqdu/kRbTuwGik5tKj463La4eVy2K/CtGk9FJWAan8W5CcOQm9XwHBIAd9zlGdtbV67CJpYMitdboFqagVSG8qhHNEH+RK0j+TCsvkw9PPGOUQRnPDnbIX9hQtUjpvi8mmjrgCD3qh3Qb8VsORF435ayxuwoDdUMsagsva8vyzbaTfu8QlQRLej9tRVRM9LgqyNYGNhOTQt66FNKIE5d7LnneSSZCEVR+JoFM6TddRuldiTjNT25D5YdoteM/QurETitL2wL6RNH7+8DOVTl1BwJhOWFdliKsiXuQ1ITGtC6vlqpLyYNvw29q2jrQGqpNUwzT3WbRvjVjNcTxLMoJMuQ/ehBr6emWbQY9DzHPQ8cjr35PF/i2wAjFB9Q3DU9zIq87angSPi7xzb8ssS9sFOJqA+PTxpq7BwOOkq9J/T7jeqlK1chej6LNhGWEebtR3oswlFsBxwWBT4tPV8cy8qwKDnRTG9eKtAB72hdt0OKoXL+8uY9ihML1DChkSL6AcoUeMD+m+7FrL8B9F2aDoB2nA2cvROsrCsfRR5CW/76L3keO//xjoLb3ztMIg2r5qJGb/7E+a9KrwLhQ179Kokn8E2qocjFaTHWkYrax9mG/tX2OEH6EFKUz+3Eeqvjj5CHoG+zfNl0GPQ8y7o+SoZo9EF9Gzk53TPVkgP1aOgdT39bwL5LwHqQwRYjZuQsuIiILsOzNyJA9EV+LXr71u1w3Z1l9tKkepy7+MJVVh5gh4gaydUh/YgtWoR5K0a0YBUPOgbW+I9TTRC2Se+p7ESiu3Aml2ReGNdDWzzcqCNaYC6pB2qolmwbKuiaV9anhKTjrJMsh5Iy4V54WGYs9uhzTmI5vFj0XbiOKS7GPS8+Pfe57di0PO5xMMqIJhBz3Z8K9mZTICc3okmGpEzRO2lfzvfSX1SKRJjIxxfGAUngi7Qkwtw9CcYc8gSRUL+eNlN7r8f6Z2nkpCPnzPJIrH5KBQLtsGavg/aTDlSpWTdsqIr9aIIus7dSNlOI4kJBDVtnZDLKR2DvPNsCVkwZHYgT0jMiJqFFFkHbLHLUJbdAQ1dH03LYPT1sTC+Nwtljxej7co7sOW+D5NQ10eMwLV3YC/8CHqZ8G4n4+WGI2Qj0wf0zush36YS29iWTqNxLpqZ0y+61JPSORYSvC6tgFl6A9bxy1C7dza6J2Wc724NZa0LfoAi6G0W3su3vrNrKfkjTmhLwioYNpJXoZDkVE9m17arsHROgKZ6J1StmyBdNxmW81nw5aw3gx6DnpugN8rJGJlGGtH7AssrspAi+QckzouFXNqJ5uM1aJMmwV6ehrzx+2Dde9VhDtpwjD6ExGD1/f1+uK7uwoij897SKqRO7e0AXyPNhzrKdShfOL8CKZ+9Do3rp5imN6y00lj45tlM3+hSrm2BjdqX0ppNvlRKshZ4n6AOFP0zA2VL6qE5lUxtIXuFlgxyxxe+QUL8ZmuhlxuP6A3rb/uoXMSgNyqyD1qo3dYMvSIFv7CqccFEU2g+8ibxeI2em8kYJop4VNpyoMueBMl3PkbB/NpBUylEMXqBnkMeYSSuZwTM/ffjzdx3IHFJsuiZaSD4mZbcO/Xig8nQPOAwU5YQJOXFkFlztpGgk5an0EwNukfI6Atv5DNoU82B2fBnFOxaArlkAlIWjkHB41VQLLTgpyVJuEDTsnlYhbjtzzjfhc73M41UqvuCnsvP3qX3dLdmEwmyslzTOUyYOrMRZ4T37OYOGE7RiOCS2B7Qc3l3G8X6km/h2cx+39m92vdZErT3voO8Dg2ap6ShrfQjh32M0BfT2lHWdzDAyx8VBj0GPTdBz+XJ83syRiflLa53mbrtqosFmqkq+manh9aSTev6dsJcRC+Ju7qmfwf6/XBd3SNR0DW1LL4sezvAt20nw2boXdZsCC+eKihFV/kBDmG69763KC9yHNRnyMiUzEQFgBNc4PWz6UVCzvW61jR6obwM5YlfwLRRgMB2Bj0vvwj9cTsGPX+oHJhleAx6Ls0YbOq27RRtgpB0oHbTbpR9Lxay2g4RpFQQfPU60TeVQtxXPCTouf9+lFr3QuaSZOEAPfIPrL+A/zi9A//pmnphpdG/vlCXXdUP6JHhM0FiWUIBdE9OhO1UMTTlE6D/ehVqCfTUJ+Oh+e561NIXfMPna2Dq/tLrHuhdzo3o0Sw6F+rGLS7pHP+G56dl4t1sR+SamNYhjIL281g5pm530EzOhgHe2QSL3e3LgWnqelhiyAxRMpsygZ3ry4W+mAMYP/ftOj0GPQY974KeT5IxnkeZbRMe2gGspAzFMgrpdhw0NRC5CfZdGgrn3oADrcA/rVfg/+48h5TqI7R5wXLr719Yhv/3onFYru5rSoHlSQ3Oe4+BcSkBGHKgiTqKMnKAr6Vvin9/Kgs3j812fk3ejeikdui7A7qd1T61nnJ66cMtfouj0O7ZM5AnLYGdrhNd7l8cg7LCcdDktKOgYRXMc2g9YkwJWjJrkCz8bpecvtm+BOuSV9BM08Qj2usRmH8XQ7JWDHoh2a1uNcpXoCfChmwf9FG7obKth+6rLQOnUpynpS00ItVcmUub3iyIK9XDSFOsUkk7DGmORAzLa8BCD1IvzDR9muiSZCFk5ipt8Yi2JeFobhOSXVIvdlCe7RMUp6Zu2gk8nUbvtB0wpdcgRWqlBBcAACAASURBVPgZpRjFrXuY2vAcauk6Vf5YlOW3Y35hJGr2U6LGig5sKe3E1gVU72qaMj6eQWu196At14LUJJouzj4GU+ZbjsSO1ygBpGS5mArSuLcDmbMdqSDKquViG0sm7seubs0I8uYd7JXOUbL5EtJzOqDdHw/9phvQvUcbALt6uevd/fkyGJOegoHa0Jj5Dub1+87eAeM8GoGk97j6gyLY5yxHbUwSzURFImVjDq1lpL9jx1fjtu1J+PK9JT59jzPoMeh5Dnqjkozh1vt0dE8io8/UqRQA/rljobAwwpdiLRn+rqzRbQ2X7mUFGPS8LGgQ3W4koOdeMsZoidEnyWIE1fDG5oYRFO/TS+0HVLijUoE/1ykgsdMynbGUT9yhh2zpTMrxraYlOE5HBR/VgkGPQc9z0PPRwxgKt7UdJYuYesrkzb2IuMU0mueHrfOhoFs4tIFBLxx6uf82jgT0Al617iSLLUgZbmVpE582/yBNbS6DduN0n25MGG4VR3QdzXTp19IGD9CGGJpWB21A0UqLEVdOmcQnH/PpaJ5QbwY9Bj0GvRF9gm+92E6+V8Jhl5KflJfvzbcLXgUY9IK370Za85AGPfFl5yv/vJEqH7jXi38n6G+E1y0H+2kygx6DHoOe+AxcJRNR2vIvvQyrn9zKA/cVxDXzhQIMer5QNTjuGTygx8k+wfFEeVZLBj0GvWGA3iBpEd5wDHd9hm2XoMtZiYLGWBTsn0W7yKrQnCz4ErmxCcHlW6Zd2OSw/UHyYsrsWVjbXY6wzkQFc+Hr0EV7x6381vI6YV6bgdQT02H61Lc7rDx7BfDZ/lKAQc9fSgdeOSMCPY+SMTxL8uk7qsTJPoH37HijRgx6DHqeg5679iq7hxGn089TLXo8nZiNjwmQ5BC20G+AtdCx/X2wo5dLu9P/SEbedbcctPNJQr5M1jrHzievuJX3V56wlX4BUCu2g49wU4BBL9x6vKe9IwE9j5IxPEnyEROGtEj81JlExMk+IfuAMugx6PkO9GjbeeqLlxBt/wLI3km2KPRioZSH3o7hFL1zYL3o5i6hb66KXTshP00O4o0R5GE0AQXHNJBtcwE9ylWMjq+DkrbjJ76YS7YC5K7e+iC0x5ZAVrKSFre200LeTnw/TYFvH9rrdGmfBPk5LVI2RUDXvhlSwaHc5f72nIdQkFxP/nROCKzvz62cLAhWbYUp+VkorxyArnEcVKXLYMvXkiN9Dp6PqMRzpyNoR1UnUnfRomRqg6O8nYg7sBV5pzshs1+EviUJzQx6IftCHaxhDHph2e1io30Fer2SMf5xOeLeKIIxRgN9bhJSYilvO80IGaUzWBLWwJgdCd3jZGtyjb4g27+Hf86U4OCL7VBWr4UqlnJvKznZJ1SfUAY9Bj03Qc+zZAwhGqY58zIMV8Yi1V5FHkljUUsZsEJsTC/H8IYJyKN8WB05oyeeMsJyrQGKVeQt92kRZTAugnq8nsBwJe6vnIDndikgl1G0ToIcMulVmA40wR4rhykrjUyT/x3mmcWi+WbBH4ugkESiNs0lD1Y0CSUH9moCtDTX+xdDTc7mpg0uKRMDuJULmbN2uq8MNL1710GkfrIPWEou8kURUKaNQa3glydA4uM3YDwfCZVQnkv7lEJeb/5k58hkqL5SuF0DKcCgF77PhsegN5xkjInxkFemkTfnPoelU9s5ig67gbjYc1DFN0HdcYS+fAoJGDn4kpbBSGT0rnXJFq+llA1O9gnNZ5RBj0HPTdBz+QC4OXVrlJAxZ306TEWXKSMWMDSsgXXFDEc+YJdj+GsRyFgagRqnebD1lbW4+4UpuCA6hQtRYRGwbVvgMnXrrIewpX9KMeXd6pG4fS4MFBVmTCTn9UU9U6M9Lu1XoSS7k0QBvF4FMihb0PX+tWkPU4RNH9Abwq3cmEYvxSuTIJu+Bea4YtyxTe64J404yuIt0H5ApsZCeUL7VozFuwIEMuiF5lvUzVYx6LkpVAie5jHouWjgdjJGdBGao7YS6G2Bluw87kxuwj+T8bDhTCy099VA+VkJZmxPw8IuEBSXwVCKUEMSTG2PUULEIk72CcFnT2gSgx6DnndBz9YCtdMx/GXJNqyxa6CTViCj8jKQtAp5f9yLV8hNvMcxfCdkK1ZDn0wvJ1sppVmso2SI51GbvgaKRvIdUv4aCgM5mtfL8XLDPqjlgg8RHW2VFKZtROoxBcxLX0L9V3di2abJqNrVCS0FWOfRea4u7QeyG5AgOLB/shPSxat77p+ph/rEXKiiDqOtyLmmsF+3cgq6nkZAmX6a1gZSKHfjVsiSmpD3STU00QR2j9A9lxRCVZ9PU9R7YJxYCnlXeUsdv9O05GP+0UgUf3gEedEh+kbhZg2oAINe+D4cvgK93skY9KVTrsXd9I5Z2BmJ5Zkt9N5NovSLi1Cua8JXUU/gX2NOYYedohbraFOahEb6ItfDljwBtnn7YKSZE072Cc1nlEGPQc9z0Au1ZAxhqnZxJEwfZkHgL2Oaf9zKQ/OVwq3iqVt+BvoqMBLQ81syBif7hOyDy6DHoOc56IXgx6F50yIaZaP1gFH5kPvJrTwEZeQmDaIAj+iF7+MxEtDzp2qc7ONPtf1XFoMegx6DnvMZsNGuX9Gl3E9u5f77mHNJgaAAg14g9MLo1CFYQE9Qh5N9RucZ8WWpDHoMegx6bnzCbI11sERNIiuXCKTOozV6fLACHirAoOehYCF0euCDHidihNDjdktTGPQY9IYBep65rw/5AbKRL17SQSS+JmyicJzdtn0BJh1fhi/fc5gYC4dNWBv44hjkzfwCBVXtiMtdBml5KaT7z6Is2aUUuwW6tGysgQY3KTB6xAftpI3LJxuXkwo0r1gA7dzDtLmiH+Nltwui3biP5MKy+TBtPnHep80IxZytsL9wAbXL3b4RnxhECjDoBVFnebmqIwI9HyZjdDWTEzG83OEBdjsGPQY9z0HPI/d1d574TtisHYAs0gl1tHP3nqew79ok/Frc1eq4h7DDrCz9I5hiycJESJggO5No8raDlK7rkwwtpmm0rvEC6NFu26kZaBNgMkGgTfLQm9IEDRkhp7rTtAHOETz5+tbbYQfjYvMygvvzpYGnAINe4PWJv2o0EtDzXTKGs/WciOGvx2DUymHQY9DzLuhZz7mkX7TDIpEjER2wWgHl/p1Q2ip6p2UsjISdrFIUSXshLTXDsJA6hEyH444mQXl2A8rmkucemX/ayfxTs/gZmGbug1Z+FKptQMGuWBjzKyDdRdcln4N2KdmxSG/AOn4ZSiRaJFSNxZKESFgxG2WUnCFv7lv2GJiElIz6cZTKcRWWzgnQvJyEWk0dVYLMkTN3kg1MDdm4UN6u4IMnPitktvxIMkybL8Awz+Vz20ht2A6s2RWJN9bVkF1BDrQxDVCXtENVNAuWbVWkBa1/iUlHWSbVnRJCzAsPUxpHO7Q5B9E8fizaThyntjDojdrb0McFM+j5WOAAvr2vQG/QZAya5TCs0KI2glKGOpOgK42nL8uUjGGPRyrZT1kj6Gd7FZBsdy8Rw1yyGlpkQhdVh7yq60h9YS2lGG2FzqpA2eax0OfwOy5QH0EGPQY9N0HPs2SMnvQLCwq+0UNCo1UDpWUkipmLT8BS6IAcwd7EkP468hpVmFEVj/cpUSPROaInjnjRiF5XZmyzOAr2PhTlM6CNJSjc3AHDKWBy43oktOTgZt0YMgUthvyDt1Fgr+ud1HF+EtT3voO8Dg2ap6ShrbSepoaToZ95GKbcFijua0CekKSRE9krtkwYedNSZFqvrF1ntq2UsnSbV81EyrUtsGUakdKaDWWVkgyZ3yeoA0HiDJSRubPmVDLpcYS89TIc9d6NXhoE6guD6zV8BRj0hq9dsF/pMeh5IRnDREkXCsk+2PZPFz1FU+0lZKic75zpSBLfRQWxtHzkK5VbiRh2qpMNYymVyEIzLipY6Yu5qlIFy649kCxO5ndcAD+kDHoMem6CnstT7GYyRnf6BcWbwQl6/aVlpMjaXSCH3NqnfYGy8+RpJ0yT3kXTtNWO0bPuqc1bQO9NWkP3BGqzHfAlvJAubstAgjh1i27QU1Uu6JPU8SgMc7bAEkMLAyWzoT/0IHQEnM0v0PQwrZMT7mMXpjUWAyaXfNruKeSB1tIJ19z3FiSx46A+Q+akU58SIVa4p342AW/sMeha0wj0XobyxC9g2ihAoKsGAfzG4KoNWwEGvWFLF/QXegx6Li0eXjLGf+JC6y4coHeNdbcczWtn4qGWtfg4trR7SYsQeTbfvhMXJm71OBFDXENdNQax45fAVCeHhpba8DsucB9TBj0GPe+CHkXvaKY9gTJKvzCl1yBFSIdo2gk8TVMG9LNb0jJmbsaXdfEoEEb0Nh2Dsm411G3LYHkvk0DPkbKhH/8czIfl0M2mqdvkfTDQyyplEyhHdgusdF9DwiuoTzciOacD2v3x0G/6I5Il/wubrqXj3dIOqOfUQP5qNSVgLIDKNaljZjbUrXq8G5MEOa3zS9mYA5VV2HhBU6sbIlFWHgn9ybFQ3dUAzTd76GUoHNS+KU/But9MaR4uH+xT6yFJo9FIZ5Rb2ewZyJOWwH5striJJI42kZQVjoMmpx0FDatgniNoVIKWzBokC7/bRZFpj78E65JX0EzfwLs2oATuq4Nr5qkCDHqeKhY65/sK9AZLxtBUUI744gZaMqOgEb2jtNntCBSVtHb5RDxqSiPpXdQEVfURqM5muJWIIYChAntgP5TkWKtMX8Klr12AkZbb8DsusJ9VBj0GPc9Bz5vJGARzta0dNF27nl4gfeDJx58d+wEV7qhU4M91tE7FTtOsY41QdlAkWq+NHddpJHEBTUucFV9oEEbr5rTD6DLC5+Nq8u1DRAEGvRDpyGE0YySg581kjH43qXEixjB6NLguYdBj0PMc9Lz5jDcfRSptRrBHZ9HUqUKMIPPbQaOP+rW0gQNCfm4nkJAF3fLJDtNk14NehIo5lGt7fhnM03JhraiGLs5vteSCQkQBBr0Q6chhNGMkoDeM4vq/xH6VZju0lGk7G7oiete6vOg4EcNrKgfkjRj0GPRGF/QC8mPRT6Vos4VN+LF9HKQ8rxosvRZQ9WTQC6ju8GtlAgL0hmgxJ2L49ZHwa2EMegx6YQx67Abv17dNmBfGoBe+D0AwgJ7veucqak910jroy7DGzEYif1H2ndQD3JlBj0FvGKA38mQMIVdWSpmyjoOmFNJWQyd5DHkJtP7teAPMV2bg5dwr+MU6QEe7dpU++Gh47AYvpFcsroQkPROJ1joYT7egbdZm5P1hm/dSOEbUzpH3y4iK54sHVYBBL3wfkBGBnkfJGJ5pLI7iidnelE50TzH5f8ZD0lIDE+KhjO2E6dQ4aM/IoV18iTaRFSHVY0gT1jirYC58Hbpo2sCRdBm6DzUYycoXu7C5bfuDMNKGPUeQUifMazOQeoJsZGjt9Eju7Zl6wXM2gx6DnuegN+JkDLJQmXIROnFDw3XaiJEMldTh9yQeZJgsWzEOpmqyRnmA4sJ8AXqeusFTTJvinnxIT/ZsGDGtmAnVeD1qsdJLKRwjfHGMuF9GWD5fzqDHz0C/CowE9DxKxvBIf8G/VIvET+mLtGU3onMmo402pgk7eTOwQ0wV0s9+FM2lx6AhwBM8Qm9ZvzxUecdXQ1KSBGudI8rSTB6j6ugjZIM1grxwp2epjOrTfVh6vFWdKZpD1Sysfs+gx6DnZdC7PkTaxCaoG5+H4sQk6PYvI4f2i1BMKUb0ax85drWKx1WYjncgLsaIuAfegjQ9FjJK1lCUUuzYiZWIK2+HjL7FyXL3kfVKBfJOR9Cu2U6k7tqClNPrkbL9KqITJkBijYBKSOOIphFDV4d4shvwzA0+i9zkt+Lu/Al4o9tmhapJaR1GmxzyyjTc75rCQfYDRsGB/lokremLJNPlQkh39Haor12qgvbKBCROHAOrREEbUR6DtL4C6vJL9DK9AXn2ZqiwF4q0BiBZTu2nn8fGAl+1U9LHfPF8HFgP1Qmqh7UTKt0SmJ9ZDWOMBvpcsouxlSJ1xUWKlaNv7DN34nhCFVZ2nXtoD1TRYfWeC4jG8oheQHTDqFTCV6BnPb4JKQN+znNgzy+FJTYSppIOFHyYDouQHiS5AdvEn+NF+QH8M9k9KavXQhX7IGSSCDJDjugFeoKX6JWWCixPIwP5up2Qbut6b9Hrzz4JclkHxVdeR+LGndCQ3ZSYNNRISRy2CSg4poE95yEUkLm8OdsJZfQlXrpuMizkkyrr7ol2GFZtJeusZ6G8cgC6RjKpL10GW74WpoQcPB9Rief6vuM3RVBa0U7EHdhK73/6W2C/CH1LUi9j+1Hp6AAtlEGPQc9N0HMzGcNaibih0iY+mAyNkFUrjOgJ3yQfOIhEpylyV3eIU7vWvfS73skaXSbMBX8sgqKJzJQzxqBWiCcTXiCP34DxfCRUfa7RX0u7xSHeSKNw6qhjYrya46BRxtsrkPLZ69D0vIFE02TBDd5GBqH3l8SiRvTJ6zocU6XWbeRN1SeFQ10uZO3m4Mv9s3BuXTLS+3Ood73m3WUw/bQG6j8egRrkeXXXUSg/y0LtvVrIm85CLfhf9TqfjEp/SpYwDXpKEFmNSaeW4eOYYqrbPmebhPZQIkiD8G28CqlTe58rfFvnw78KMOj5V+9AKs1j0HMzGcPx3hrgc34iGrHmVsQV5UAxMQJfVa3GStsWyu0mD71pWyElM3fLA0ao+syYuI7o9bwbHelC4nut+z3k8m4SzOlz3yEvUYqI/LQIsvxFUI8vhvpsJkwbXGIdhZG3ae0o6/UeJR8+yv62SyIJ/gR/voNI/WQfsJTuXxQBZVp/73ia6Wkgn8Ckq46lPTSbcVv+ZHzMtlf9PvYMegx6boKey/Mz6BQhmRxPXT942oS1AnEEemWFnbCQrYo9Zy706adh6RrOJzPOxDnkrfdqOxKdU7ddyRoi6DkhMbqcfPC2yXHhc1qX0UzQF2+B9gMyHu51DYFOSxpF/fR2iL8Qu9szN3ia6o27j3z2PqmGxjkaZivPQIptDwzWDOfUbU8Kh/BCdEDXBJTNfviW8nsc6p3XvJoEA5lLaykuTkUGCCm370ZckwaWeJcXrGvSx4nZMD7pgGAVjW7aaFTPuj2NytwCLdnGRO+NRMHtzpe48HJ1wm/XucI0DB/+VYBBz796B1JpHoOeS+UHn7oVQG+Az3nrBzC12WnNnRHqbZcwY3or3o1zvAchfIGVnIOSvENVDUl03mMUzUgzEHQMCXp9EoccX2oJ9Cjy8TYarRPfx7Qkx2qLQG3aw+RB2gf05pCxvHhO/4cx7SGor0yCbPoWmOOKB37HvxaBjBVj8a7wRZ9Bb9DHnUGPQc/LoGdB3j0ZqB0sbeLYGKjurYHsSRpy3/g6JUTQQuBpWthf2IMy2oyhW1cJaSF9S2tRIS6rnWLENsOW8wwMlKxx9skqTM/phPY8jWTJCYweWU35uIVQ1efTtXtgnFgKuZDG4XKN5YUvaBNFb4d49TnP3eBF9/d1nSh4jbJ3r1Uir4QWKp+cj+bZaXimVwrHAcreVUJtp/izOlowbKlAYq/y9yD6xQXIaHVN7iCH+hPZKJAQqI3fDfW1HJhfaEHKA1WU6qGnvFyVeP6FVwFlvPAzx/ka5EATdRRlskIYJfm4+2gkFnZGYk0psDypASnkfK+fNwbGpRS55nKueWPXSGYg/TkM7bow6IV2/w7WOl+Bnr1xK+QDfc6/FQ3ry/+FvJPpMOVUQfGbJOhW0nuwcBbMOy5CdSYdxinrYUueQJsw9sFE06s2Wo6iWfAMfUWld1P1GqREj4OdZl3ihPcQJWsoKzP6vId63k0fn38MxiR6H6evgaKRpogzyXz+xFyoog6jrcj5vqE1e7dtT8KX7znW7DmOq9BOm0v55qcda/eoTbIk8i0Vv1TTl/eB3vGf0FTyUsf7X9OSj/n07iv+8AjynF/Ew/dpu7XlDHoMep6D3iDJGO6lTfT/ERSnSe1j0GuRra8+rcN2gxdGzzoc0wwe70DzVWP4vsGgAINeMPSSb+o4EtDzZjKGb1o3yF2F2YTFtEbwQ8oup9OMaTNRll5NcMYzCv7sCwY9Bj3PQW+wJ9TdtAl/PuUDlMVu8AHQCWFUBQa9MOrsPk0dCegFu2rNmxbRKBu5E0TlQ15OMyC0Ppi/I/u3Vxn0GPS8C3r+fX5HXBq7wY9YQr6Bmwow6LkpVAieFs6gJ3SnsLlOtGYRPfv48LcCDHoMemENev7+wA1Vnq2xDpaoSbC1RiB13gi8poYqiH/vdwUY9PwuecAUGO6gFzAdEaYVYdBj0BsG6PkmgcFGC3iV5PNkicmC4RD5LNVvhWpdE5BdiNqNsX2+CXairb6Ytt4bgUzBc84IQ+t0aPZnIdXFHmWgz7Xt1CYkpjUh9fzb0A3isGmzVEK9YC/MCaugf/IGysrrqLydMCwfBMJsl2BYtx7q4+T9d0hPmyHcXI9CO4fj8uUwnVSgecUCaOcedmsti7BLzdVw2t22Cdr0OOOH6RvQj81m0POj2AFWFINegHVImFWHQY9Bz3PQ81kCg+DU/gTZhrzp9IJzcW7v94MpWAtsAF51bN83rUjET1uy8F+9zDgH+kQ7/afIG2ow0AP61ol2FU9Jo91h74u71AY8hO3+TwNH3E71oJ1nUzPI4+os7R4W5jrIT2pKEzRkCtrj29dPacJ5d21DfcQsvPH1HrKMEY7/v72zgYuqTPv/z7aCesKmspzUHsFexNWCNlEqHqF8ARVlClcxE/HRkNVEUDSU9XVXmzCVJA0ME8UXZNdtNEssX8BoA2037OXT+Nk2sdLGjWrUnm3I/+7+7/sAiig6I2eGM2d+p0+fUu5z39f1vc4cfnO/XJcrvjVkxvexF19buEuh1xbUtTEmhZ424uCrVlDoUeipK/REDdikAVmo7Pg4omTW9JCxyJslSps1r/pgNysZ3Y1xYTDaRRWM1Hkis3ptC0IvF+HZsiJGHaIGBcH/pFjWFFUwkgLPCz1L9EGk9U5FdepmVKaKUj5Nq0aIShBR5bKKRB0M4mRvzSmRu05kXq+OqM9Rl1bVpMLEpmbZ5L+ejLILxCdQPb0fHtxhwoG1P2OmzBi/Rxzz/10SMv0zYd/Uv/6Jair0RI3chAliJhAiKWjiEuTULUeUzOwuMtWXxaeiMk7YnLgPob2+ENneRU4opQORePTRSJTN+xDF0U1eT1UbYMoGMreJertSD4pcgibxj2F6FhxrG/NVnRd6F/j2WiZskxsrdtyKXyf6o+h3jZnxIxDqxEyor74o1fCbQk8Nit7ZB4Wed8ZNL1ZT6FHoOSn0nKyMIXjKhJuZ3eWsXC2SOoxHTeY02Gfvv0TVh3qhlXNSVLUYcALmb+fB2ruFGT0l6W993dsYkaj4FpEo+f2vw0RS4JlwLCtHTseFSJgBUeYnFwkOkdz4rqaVIB7BqPI/wLD3AMLn9IQ5WiZnPlyfUX5/swoTzbLJh8Z1Qk4zoWedLhKEioTFn33+ANJkH40Z45VEog0VJ84JvSWo6R2Jwn6bUZYqROG9FUiTlUGaJ4KOXg3/KR0uKOEjOZpF+aDqWfWJTJWroc5jfd1JOQs4FfaNaxCcNRDjHZn4Qakp2SD0mvvWUD2jsWKHv7ECpsZkq3p5o2nYDwo9DQfHzabV1tai/+ORuPVWJ7dxuNkedu9bBL773o7f//4FDB8+3Lccv4S37f4jLl+icP/9PbGlaImTQq8JmSss3Z4XeiKhsBA5eb1i4Nj0XYtVH3IMUphtRYwQTKEzeiLFuA72tWIWEGKZtFcBYj4Ry5dNhF7C7gz4x9ah+Oxg5J1buq1fYi1LFsJoeEGzShCnlYTBOUZRM9Yu9vGJ/X9RhgYx1LzCRLNs8ilibNuApuJTzrQ9LCpdbIZt9fF6sdhE6P2w2A+Wk8FIcpjhP6IOhWczUSnsqp77KcrGyT1xYlZPVgZpLvQSS2AcIZafm5TwkRzzRtbfd8lLMAnNCkP1NjGLqCQZPYw0pYRbC76dq57RtEzaxZnxfekz4ElfKfQ8SVt7Yx05cgTffPON9gzzAotKS0vx17/+FXPmzPECa7Vn4vXXX49HHnlEe4a1gUUUes5Cd0LoJdmfQ2nqISRlBSDvA1ncWpQha1L1oXpTHRKuy4J9WT7SRFWLTMN8VK+NgKG6oYrEH+cheIMZOYGZoh+RVV0RentFpYf5oo6iKICdmI/SfhaEh60FnhGzZauDUNr/YYzH44g7eTsiQ94V2d0bq0bMRsrucch0RCDc6IfAkZNFxvUiREXsurjCRLNs8kPXjcSbg2eKgtvzROZ2P1TvKEChQ9Sg3WYSCUCFsOoyFbZlS+CfNQnr/SfgwPhD+PU+E/K6ioMlYr+gVWaAlxU1ssRs48wO4jBHBxS+2QEpopZtzJ7BsAx9AdbopbCuPQPT7RXIPNu4z+4LZN7zFGxrK1EoioWfu6TIjReJR8Wyb+mESSg25sK6SXCrEXv1ei9CTVw+dozbi5H9L+GbURwQ2T3xfMUOUQIpqcOFmfGdfQTYznUCFHquM+MdJCAJdO/eHUePHsWJEyfQoUOTFQ7iIQEXCVDoOQvsMpUxZBfnZ/QuV2br8gcGZJFrGDrA0Jh0qemMXot21letuOA+2VbWwRUzgJavRekyIc5ShDjDtoZDD8767EK7q6vwcVpwixV1IQ/AEicGE7V1gwfUwsIi3S6Q13bT+3oMxdNjxyvLJ/fddx9uvPFGbRtM60hAAwTkTN6IESOUz4v874IFCzRgFU3wVgIUempEznYQ5qwikSJlLMziEEZL+/tt4nBG5sovEJw6XRzCuNI3NJFKZf0KpO0Q6UqWpYtDGH4uWlqL0uzlKK7xE/va6uAIHCJsi2jRNhc7V6+5KMtmGiBqPH4wFpXiYImtYCdyWqr8rd6oPcUkDgAAIABJREFU7MlDBIJ7DsOXX32Dn376SRnxjjvuwIMPPohdu3ahXbt2HrKCw5CAdxEYP348brjhBmXZ+8CBA/juu++8ywFaqykCFHqaCoePGiMOW9il6472MLBOkK4eArl0O23aDMyfPx9nz57F008/jQkTJiAkJERXftIZElCLwD//+U8MGzYMycnJeP3115Ul3IiICAwcOFCtIdiPjxGg0POxgNNdEvAkgcY9ei+//DLkxnz5CysnJwe5ubmK6ONFAiRwaQJbt25VhF5xcTERkUCrCFDotQofb3YvgdOo3H4Uxu5nYPWPQEyge0dj7+oTaBR6QUFBeOihh7Bw4UL0798fU6dOVYSfFHx9+8ps2bxIgASaEmhJ6DnsNlgtC7DALmojpcnMorxI4PIEKPScfkK0UgKtCCkTClAzPB/W5Q3LXzUbEN57NRxxi2FZ1R+Bbq+gfRyF8ZNg9jchs684PLG9ApXHIi5Ik+I01ss0rJ7+JDJDClE6zookmXKmYg0Srri0uxemm7JgeLPx5G4dqldORYzIN5jjRMUOWYjcIIqQ81KHwOVO3R46dEgRfHfffTdWrlyJ2267TZ1B2QsJ6IDA5YReWVooBtty8J/SBB14ShfcTYBCz1nCmimBVp877yXb+fJflZP74eFXv0N0Q1k0Z126unbypGykqDObK/IERtR3UT4Hxgnt1RV68gRuhBCUyqnh+moYgeUTRRWOhjFbMF62u2XKIfgNXwmHzLUnL6dOL8uG4lT0PR8hh6d+r+7RuMRdzqRX2bx5M1JTU/Hss8/ydKFq5NmRtxO43NKtNS0QPcR7jULP26PsGfsp9JzlfDmh59ESaELoDV2BmmP7YE+VtWcPwfSoBTi5D47FohyYKItmHlOASv+fYe86Gesjd2Hajs4ItltQ1ncl8gyrscAqkigf2AD73J1IKElFYccOsB95AGZZYsxWX7rMYTgD27HTwKAMmA2FMFf5icTHnbFgdQeR0HkVgnc2LVN2HGXbRUk3UVGjbEyz/hz19pQZ/GCvOQrHXfF46uxmrD7WGeFdr4dNzAoWbhKVNZqVb4speRLBR0R5NSWJtFR6WxHe5RAW/HhhHdxKMVtnxkRYUuXspkjs3D8VSAxA2kSZuFnMAF4g9F6EMVv4c86XMDEzKUrXQfiPXpj+6CeY92YQctaORUxkHw/MjDr78HlvO2eEXqN3cln3pZdeUpZzx4wZ471O03ISUIEAhZ4KENmFQoBC77IPghZLoI0VM2olMMVZ8djKCHyYKsqLYTJCs8fDKoRe2o4HYbLPR83aDsjsvRA/PliLin9PQU6yqJfbVdTDnfgkCkPSsWB4Z/iHBMO//BAc4r9lE+OFaPwrzOXhSLi5ELa+K9BuaQSOLrMiOF4IqM+XiKTNTyLlX1HApjcQ3iD07NV7YTks8viJyxDSA4bDn13Qn8UxGnduT8RPop/AsOPIE8mRg2U5tcNT8J+911+6JJsoW7bLkIWUjttESbnGvIQyB2EBopQqGOeDpuTvQwCMQkgqefhGiBnHnaLc2j2iDu5yKYTFMmzjjN7O9khq6ovw03xkmChdt1mUXAsSNYFXIzAWKOWMnmqvR1eEnhz0hx9+UJZz//a3vynLudy/p1oo2JGXEaDQ87KAadhcCj1ng+NEZYz6WrfuLoGWjjIh9FLeDEPmTRkoNUSg+Gvxd2I5Vwq9pA09kdZ9G2zLg8UsWC0+evcwTrQ/g9I5y5EX+FtUjrxRzKJZUThlFaxjMxCYWwjDpkKEZw9C8ahyFF8jKlrkdUBox9OImvUiMm0ZaDejGz78OhOhYsbMZv8OhQNikddP+lovws7Vwf3gASGwVlzQnyV4FcL/9yiCxYSb//DFKB7Xub69UiMX9UKveUk2UbasJjsWYq6vmdArQcLZQiS1EDOr3NMX+Scl+bKynH0wEd98MBHGRqG3ERh9gS9+YgbyVyhMFDOho6QjohKJEHp5i+tgDZyPNJ4RcPbT0WI7V4VeY0cHDx5UlnPvueceRfDdeuutrbaFHZCANxFoeY9eNQpNUfiNLQUflon3svGKG5e9yW3a6gYCFHrOQnVC6HmiBFpx9wKYYq0I3ZmLpO2jxdJkLmpSrYiJWARb8jYh5CoQNaICCYsfR+XSj3D3bbuwrUu+WJ5djiT7MzC9PQfVqflIKV+EvEeGwj7/HcSI0maVY15A+anbkDSnG7asrUNM3w5iBnAwFizpBkvEVJSOTIepSiwJJxaiOPIQEnqb4Zibi7xoURVkTBLSj5nw2Z5OSOhluaC/SeuGwJJSgeBoMWPWUYjTeUNQMyUWo4+MxP5VZ5Ay4FJlyxYLAZuFW0Tpsv+c22e3HIERtSisXQIxp3juKh0jZjAFA2tyBZKGvgXjtp0ojm6PGrFXL3TKcZh2FmK2LQt9J9Yi5eMlMDw947wvCRkwzH4GpZH5qBSl6Iw2cajlrl0wDq+DcdafkEeh5+ynQ3Wh19jhpk2bFMEn/5W5+HiRgK8QYHoVX4m0+/2k0HOWsWZLoDnrgDPtrKKObbI4xFBfKk3OikkRZVt96eS2jWXPDMb2ovrGpS6xT66/nDH7K8rGiT1+65Nww4bB+GnvqBbaN+lDVMyI6bULKV/X18GVM3xRtpVNZvic8Ydt2prA1c7oNbdbloCSe/fk7B7377V1VDm+JwhQ6HmCsm+MQaGnRpw1WQLt6hyz7RZl2kqOw19seXPUdRYzgxMR01JNNyeGcFgtSFt6GJAV3OqA8JmZSAp2rpybfetURJWPFTOQHyF0hJjN+0QuH/PyJgJqCT3p8/fff6/M7H3++eeK4OvTp+GgjkpA7DYrKgsXwBKYg7yEVjz0KtnDbnybAIWeb8dfTe8p9NSkyb5UJ+AQee3k5RC57bgTRXW8bu9QTaHXaGxVVZUi+O677z5F8N1yyy2q+GG32VCYcKeotfwZanLEHldeJNCGBCj02hC+zoam0NNZQPXijr1qL6wdg0TaFz/ERHfWi1s+54c7hF4jxI0bNyqCb9q0aart3yuOaYfMYAo9n3tQNegwhZ4Gg+KlJlHoOR04VsZQUNm/QM6USVhQFYIFax+HLbsE1ZGTUTyrj3MzbjUWmAYsFAc5PhQVL1qAX21GaJZI+fKmCdUTYmEetFmcir1ytQpL/IMikXP+udx79t1zEB5/CDEfvIMrTdAoM4di1tDtRUWcft700dCdQq+RkNy/J2vpytm9p556qlXgKPRahY83q0iAQk9FmD7eFYWesw8AK2OcI3UunYqSb07mt5sJ2+JykYuug1M0i4f2PJ/S5KI7jsPca7TIA1h/IEQmSo665xAyay9MlHzRbbLd7YtQ7ne+YohS6UKmb/n4SkJPVhsxI/zzhgTLTnnBRs4Q8ITQk3Z89913yuze3//+d+XQRlhYmDPmXdSGQu+qsPEmNxCg0HMDVB/tkkLP2cCzMkZ9ZYxtmTAuEnnwRO67z6TQE7NvgWF7kfDxNsTsaKnqRBiK9wxG5YwiVN8cgJod22FY9lfkncpA1Bw/5HwyEmXxqaiM2yzSt+xDaC8xa3gujYpI1vxoJMrmNa3EIYJWtQGmbCBTVvOQelCkUzGJfwzTRaLktQ158ZoIvbSqDCTtEA1Fjr6k1zJhmxyPvJNCmDpuxa8T/VH0u1ok7JyOpJAIkZfK2YeC7a5EwFNCr9EOuX9PJlzu3r27IvgMBud3dtprypAZ8xiKg7eIQxkmBBs4v3ul+PLn7iNAoec+tr7WM4XeZSPOyhgXVcYQ1SRKMQk9NnTGc8vEL0NjsMi5J0qqCSHl32LViQ4i194gmENkkmUotXplcufSECES7/8CZlGqDGKWT0k4Hb0a/lM6oLpJdQo5A2iObDZj6JDJm8Vqq5LaRc4CToV94xoEZw3EeEcmfhApXAyNQm//KJQ9ZkFURSHSqqYiSFTe+Kz7CpG0eQp+EMvP/sYKmK6zIKmxZJqvvQXc6K+nhV6jK3L/nhR86enpmDdvnhs9ZNck4B4CFHru4eqLvVLoORt1JxIm+0ZlDFGzdlHs+Rm9Rn6Cz4UVNJpWnfhCVMwYhrJZ76MyufbyQi+xBMYRQFkzoZc38lORi6+FYImKFqFZYaiWyZWrFsIYcRhpSqm0hqXbS1TesGXHIwb5DXn5ZDsh9CoiUFYzBHmjnFuCdvbR8eV2bSX0GpnLJMurVq1SZvdGjx7ty6Gg715GgELPywKmYXMp9JwNjhNCzycqYyQ8D1PxOIwuD8YrFaLCxrmceFaYezepoNGs6oS/SDgd+rvrkbcsGAuGvgDbqHWoXnYCptu3IkYs61rE31mjl8K69oz4uwpkipq4MlEyIEXiU7CtrURhZJNg7ZYziIBFLPuWTpiEYqOojrEpAoYasVev9yLUxOVjx7i9GNn/UpU3MpAiqm6kONJRvTcRwf4HkdQhA/bIzrBH59fXx+WlCoG2FnrSCbl/T87uHT16VBF8vXv3VsU3dkIC7iRAoedOur7VN4Wes/FmZQxnSbWy3WkUD41FcfIBpWYtagoQPKAWliYzfK0cgLd7kIAWhF6ju5WVlYrg69Gjh3JC15X9ex5ExqFIQCFAoccHQS0CFHpqkGRlDDUonu9DlD8zDTiEtA/GorJ3KmwFO0USW3WHYG+eIaAlodfocVFRkXJCd/r06Zg7d65nQHAUEnCRAIWei8DYvEUCFHp8OLRJQBy2EGctxKlYURHD+YOT2vTFh63SotBrDIc8pPHKK68oy7kJCQk+HCW6rkUCFHpajIp32kSh551xo9Uk4BUEtCz0JMDa2lplOffYsWPKci7373nFY+UTRlLo+USYPeIkhZ5HMHMQEvBNAloXeo1Ref/995Xl3F/+8peK4Lv55pt9M2D0WjMEKPQ0EwqvN4RCz+tDSAdIQLsEvEXoNRLcsGGDIvgyMjLw29/+VrtgaZnuCVDo6T7EHnPQ54Re9+734om4SNx55+0eg8yBSMBXCSxbvgFvv7MXwcHBXoVAHtLIz89XZve4f8+rQqcbYyn0dBPKNnfE54Ten//8Z+XYert27docvq8ZUFpaisjISNxwww2+5rrP+itTmTzzzDO45pprvI7Bt99+q8zuffnll4rge+ihh7zOBxrsvQQo9Lw3dlqz3OeEntYC4Cv2/Pjjj2IW9U6cOXPGV1ymnzohIL8cSsHXs2dP5YRu+/ZMqK2T0GraDQo9TYfHq4yj0POqcHmvsbLY/LRp0yCT1vIiAW8kIPfvyRO6M2fO5P49bwygl9lMoedlAdOwuRR6Gg6Onkx77bXX8N5772Ht2rV6cou++CABuX9vzZo1ynLuqFGjfJAAXfYEAQo9T1D2jTEo9Hwjzm3u5YwZM9C5c2elGgEvEvB2Av/4xz+U5dyvvvpKWc791a9+5e0u0X6NEaDQ01hAvNgcCj0vDp43mT548GBl6TYmJsabzKatJHBZAnL/nlzOvf/++xXBFxAQQGIkoAoBCj1VMLITQYBCj4+BRwj893//t7J0e9ddd3lkPA5CAp4ksH79ekXwPffcc8jKyvLk0BxLpwQo9HQa2DZwi0KvDaD72pDypK1ctj19+rSvuU5/fYyATLL86quvKrN7I0eO9DHv6a6aBCj01KTp231R6Pl2/D3ivTxpm56eDllmihcJ6J2A3L8nZ/eOHz+uCL4HH3xQ7y7TPzcQoNBzA1Qf7ZJCz0cD70m35UlbKfIKCgo8OSzHIoE2JSC3KkjBFxISopzQ5f69Ng2H1w1Ooed1IdOswRR6mg2NfgzjiVv9xJKeuE6gsLBQOaGbmZmJOXPmuN4B7/BJAhR6Phl2tzhNoecWrOy0KQF50lYu3UZHRxMMCfgsAXlIQ85uy9k97t/z2cfAaccp9JxGxYZXIEChx0fE7QTkSVu5dNulSxe3j8UBSEDLBE6ePKnM7p04cUIRfNy/p+Vota1tFHpty19Po1Po6SmaGvRFnrSVQu/UqVMatI4mkUDbEKioqFAEX2hoqCL4brrpprYxhKNqlgCFnmZD43WGUeh5Xci8y2A5kyf36MnEsrxIgAQuJLBu3TpF8M2ePZv79/hwXECAQo8PhFoEKPTUIsl+LkmAJ275YJDAlQnI/XuyHrSc3fv1r3995RvYQvcEKPR0H2KPOUih5zHUvjmQrG0rl27lYQxeJEACLROw2WzK7J78rxR8clmXl+8SoNDz3dir7TmFntpE2d8FBORJW7l0O2jQIJIhARJwgsC7776rCD55UEMmXP6v//ovJ+5iE70RoNDTW0Tbzh8KvbZj7xMjy5O2VVVVSgk0XiRAAs4TkPv3ZMJluawr9/D52hUdPRB79+5Hu3btfM11+ttA4O5ugXhr125069aNTFpBgEKvFfB46+UJ8MQtnxASaD0BmWRZJl2Wy7kjRoxofYde0sN1112HMz9U4dprr/USi2mm2gRi46YiLX02ZC5WXldPgELv6tnxzisQ4IlbPiIkoA6Bb775RlnOlXn45HKuLKum90sKvZ/O/IVCT++Bvox/g2MnY1paJoVeK58BCr1WAuTtLROQtW3lsu2rr75KTCRAAioQkPv35HLuQw89pAi+G2+8UYVetdkFhZ424+JJqyj01KFNoacOR/ZyCQLypG3Xrl2RlpZGPiRAAioSkKlYpOCbO3euUkNXjxeFnh6j6ppPFHqu8WqpNYWeOhzZyyUIyJO2M2fOxMCBA8mHBEjADQTkIY3169crs3vx8fFuGKHtuqTQazv2WhmZQk+dSFDoqcORvVyCAE/c8rEgAfcTkPv35Ozet99+qxzY0Mv+PQo99z87Wh+BQk+dCFHoqcORvTQjIGvbymVbu91ONiRAAh4gcODAAeXARu/evRXB5+379yj0PPDQaHwICj11AkShpw5H9tKMgKxtK5dt33vvPbIhARLwIAFZdlAKvnnz5uG5557z4MjqDkWhpy5Pb+yNQk+dqFHoqcORvTQjIE/aHjp0CGvWrCEbEiCBNiAgD2kUFRUps3veuH/PZaFnPwjzmEUwHwtAVPcA2I6dgcP+Eewj30DNEhcS7tqtsJQDUXHBMDgZt+rsWIRnHUXUxk9ROsrJm1poVrM+A6bfHQa6BiMQx1Fz6mfUHA7Cip1+mB27C/5ThT/LXfCndea4dHdNuQU1XU2ICnTpthYbU+ipw5FCTx2O7KUZAXnSNigoCNOmTSMbEiCBNiJw4sQJZXavtrZWEXwPPPBAG1ni+rCuCb0KJNw0CVuNY/Hh55morxJ8EEldxqNMCj0XhJF9zWjckh2Cz0Q/wc6abTUj8P4iBLdS6NVkP4kgIRgjC8pRNq69Mrpiz5QAbDlrQuF1M2HVrNCr521b1nqx24idQs/ZB/Dy7Sj01OHIXpoR4IlbPhIkoB0C5eXliuDr06ePIvhuuOEG7RjXgiUuCb3tU9FuxD50bSaC5AyTVcwwBVeJWbKltQgVeaYrqwKQuTMXoSVPIib7BAxGMXPW8TQqTwZj9cJuWDNtBcrt3TEqcQiS4gNgFn+udgTAYD8D/7gXUTn3NFJGFMAWImRg1UcwzMyHpW/ReaHX1wJT7HLx8xA4qmqR8Mf5wMRkmGv6oPATEyyxGbDURKBwTxhynm7adwYGl89HzrFHhahbg4RGLnKGcXcdokYdR4IQemUdgxAe0gE1R+qQtnMLog4kIWGOFQ5DgNgT7QfTpnwkHV6IlBI/RHU9jlKbGPdNEyoHSBvawxjSCcZTHwn7hC9rH0B1dsaV23YMg9FRB5w8CkdiLiqTTyNtaBZKDSEwHrPCuHgBYjYsQMqOozD2G4mYxFFIqTNfbNfuDCS9HYDwjidQbUxH5ab+l501pdBT52NKoacOR/bSjICsbSuXbjt16kQ2JEACGiEgk5hLwTd//nzN799zSeitT0K7iYcuEnqw18J+6i1E3fMC7IoIBNLuGYaXDOn4ZmMtwsUsHOTf9zWj3dPvIVrMyCVt6InRR8aem9ErHir+XBWHddv6AI67Yc9KQLq9/ueYPhA9cgPw/P4+yHtMzuiVI2ppJGbb4rDrg+mwz4jF6Jp0VPUtQN/cIEXAQfb3dr2YU/7/XN+3onrCb/DSyWZCD3Ww2+qEIK1AjBB6uwctxX+WfaQIS8X25Vbl7ysTF8PST5joXwHT07salpHfUn5WNjIf1R0XCluBaR+/g/AZDTbsaY+kAZdva1oajsc2BOGVb7fAMKaezZq+W5FcEowVf8tF1JpkPLgmGPsrRF8XzGrWj33OrnbCrgm7ELrsbWHnVsSElSB0TyUKI1v+cFDoqfPioNBThyN7aUJAnrSVy7Y//PADuZAACWiQgNy/t3HjRmV278knn9SghYBLQs++FVG3L0J5n3n44b1R52aJpEgrHDAB1llrG0RRg9DDBHy282fENAoTJF8k9F5fK/boidlA25Smwu8LZAqh+AKaCj3guR39UTxcCr03EJolfu6oF3qhjtOocbSHQSy/9mhJ6DURlZWT++FhUUho3J4D5wWQXBaOBUo/fwBpjUu3ySUXCb1zS7oNs5tStJaOqhdbu4evxGddzRfb8Ec/jBYzoZdrG6qI2SYiVdibG1KEqTvCsOKrF8XM42mxH9IPgTcXIVTyXLUNKR3lHscvlBnI5nZFLitH8UixJG07Dv/AEAReZiMkhZ46H00KPXU4spcmBORJW3nar6KiglxIgAQ0SuD48ePK7N7333+vCL77779fU5a6JPSE5Y6qDTCNWSGWakchLbETakpKxNKiXB4MQ+WEeJh2B2FBqh/yFlkRvmkbzPZUhIpZQGPiSphvXoEnco+i+9RtePFUEoZtDUBXYwDSCjNRnTIe621C1OxZibTQ9rDvnoPQ+AoEz0uE/5pVqO77InYMKkI/pa91KEmsQHJ8CRwjJyPqWBHKQnJRHVkAQ+xBhC8eAseiIpTXif3L2zNgnzXlgr6BWlgmJ4sl0J8RlToRMahAzgaxZLtxC1JgRnhYEWz9nkNh3D4kzTgE9FuMnfMOYuKA7crfl21LRKjhC+Q8moQFdRHI7GNFzg4/scT7Iowz4jH+QAeM+2M6DFmpeOmIsOHQEgROefaybUNXZiFd3DdN3GcX90kW6ywjYUnKQmXIFGQa3kKOfSKqV9Ui5q4XYOsaBEffTLG8K0TmBXYdR3F8EpKqgrFgVgCKV55B5ge5SKDQc/vnjkLP7Yh9bwCeuPW9mNNj7yVQVlamCL6+ffsqFTb8/f014YyrQu+80Y1LnfWHGbz2ksvO/h1g0EY42gQjZ/TUwU6hpw5H9tKEAE/c8nEgAe8jIPfvyQobCxcuxKxZs9rcgasXem1uOg1QiQCFnjogKfTU4chemhCQtW3l0u2AAQPIhQRIwMsIyM/u5s2bleXcJ554os2sp9BrM/SaGZhCT51QUOipw5G9NCEgT9r+5S9/wZ133kkuJEACXkjg66+/VpZz5YEquZzbq1cvj3tBoedx5JobkEJPnZBQ6KnDkb00EJC/GO6++25lgzcvEiAB7yYg9+/J5dyHH35YmeHz5P49Cj3vfnbUsJ5CTw2KAIWeOhzZSwMBnrjlo0AC+iMgD1jJGb5FixYpNaw9cVHoeYKytseg0FMnPhR66nBkLw0EZG1buWybn59PJiRAAjojIA9pbNmyRVnONZlMbvWOQs+teL2icwo9dcJEoacOR/bSQEDWtpVLt/LbPy8SIAH9EZD79+Ry7qlTp5TlXHft36PQ09+z46pHFHquErt0ewo9dTiylwYC8qTt7Nmz0b9/fzIhARLQMYH9+/crX+geeeQRRfD5+fmp6i2Fnqo4vbIzCj11wkahpw5H9tJAQJ60/fDDD2E0GsmEBEjABwjI7RpS8P3+979HRkaGah5Lofej/SCuvfZa1fpkR95FIDbuWUxLm42YmBjvMlxj1lLoaSwg3mwOT9x6c/RoOwm0joA8pLF161Zldk+N/XvRgwZgz979aNeuXesM491eS+Duu4Owa9dudOvWzWt90ILhFHpaiIJObJC1beWy7bvvvqsTj+gGCZCAKwS++uorZXbv9OnTiuDr2bOnK7ezLQmQgBsIUOi5AaqvdilP2spl27y8PF9FQL9JgAQEgX379imCLyIiQhF8119/PbmQAAm0EQEKvTYCr8dh5Yv93nvvVU7k8SIBEiAB+eVPvhcWL16s6v49kiUBEnCeAIWe86zY8goEeOKWjwgJkMClCMj9eyUlJcrsXlxcHCGRAAl4kACFngdh630onrjVe4TpHwlcPYEvv/xSmd07c+aMknD5l7/85dV3xjtJgAScJkCh5zQqNrwcAVnbVi7bfvfddwRFAiRAAi0SkPv35PaO//mf/1EEn0yjwosESMB9BCj03MfWp3qWJ22zsrJw4MABn/KbzpIACVwdAbl/Twq+559/HjNmzLi6TngXCZDAFQlQ6F0RERs4Q0CetD18+DBeeeUVZ5qzDQmQAAkoBGSS5T/84Q/K7N7w4cNJhQRIQGUCFHoqA/XV7nji1lcjT79JoPUE5P49Obv3f//3f4rg69GjR+s7ZQ8kQAIKAQo9PgiqEJC1beXS7eOPP65Kf+yEBEjA9wjs3btXEXyRkZHKCV3u3/O9Z4Aeq0+AQk99pj7Zo6xtK5duO3bs6JP+02kSIAH1CMitIHKVwGw2Y/r06ep1zJ5IwAcJUOj5YNDVdlmetO3evTtqa2vV7pr9kQAJ+DABeUhj27ZtynLusGHDfJgEXSeBqydAoXf17HhnAwGeuOWjQAIk4C4Cx44dU5Zzf/rpJ2U5l/v33EWa/eqVAIWeXiPrQb944taDsDkUCfgogT179ijLuVFRUYrgu/baa32UBN0mAdcIUOi5xoutL0FAftuWS7fPPvss+ZAACZCAWwnIFE5S8GVnZyM9Pd2tY7FzEtADAQo9PUSxjX2QJ23nzp2Lxx57rI0t4fAkQAK+QkAe0nj99deV2T3u3/OVqNPPqyFAoXc11HjPBQTkSduPP/4Yd9xxB8khGUcTAAAOgklEQVSQAAmQgMcI1NTUKLN7DodDEXzBwcEeG5sDkYC3EKDQ85ZIadROnrjVaGBoFgn4EIF33nlHEXxyVUGe0P3FL37hQ97TVRK4PAEKPT4hrSIga9vKZdvy8vJW9cObSYAESKC1BOT+PblneOnSpdy/11qYvF83BCj0dBPKtnFEvljlsu3q1avbxgCOSgIkQALNCMj9exaLRVnOjY2NJR8S8GkCFHo+Hf7WOy9P2sq8VlOmTGl9Z+yBBEiABFQicPToUWU5t66uTlnOlZkBeJGALxKg0PPFqKvos9wTM3/+fCW3FS8SIAES0BoBuX9PLufKetxS8F1zzTVaM5H2kIBbCVDouRWv/jvniVv9x5gekoAeCMjtJVLwLVu2DGlpaXpwiT6QgFMEKPScwsRGlyIga9vKZdtvv/2WgEiABEjAKwjIJMvbt29XZveGDh3qFTbTSBJoDQEKvdbQ8/F75UlbuWxbVlbm4yToPgmQgDcRkPv35Oze2bNnFcF33333eZP5tJUEXCJAoecSLjZuSkAuhXz66adYtWoVwZAACZCA1xF4++23FcE3cOBA5YQu9+95XQhpsBMEKPScgMQmlybAE7d8MkiABPRAQH5ZlSd0ly9fjmnTpunBJfpAAucIUOjxYXCJwMGDB/HFF18opYbkC3HhwoU8cesSQTYmARLQKgF5SOONN95QlnOHDBmiVTNpFwm4RIBCzyVcbCxTFZhMJvTu3VtZtg0ICFDyU8mi4sylx+eDBEjA2wnIL7JyOfdf//qXspzL/XveHlHaT6HHZ8AlAj/++COMRiPsdjuuvfZa/OMf/0CvXr2Qn5+PJ554wqW+2JgESIAEtEpg9+7dynLuoEGDFMHXrl07rZpKu0jgsgQo9PiAuEwgLCxMefE9/PDDSE5OxjfffKMsd/AiARIgAb0RePnllxXBt2LFCu7f01twfcQfCj0fCbSabmZkZEAmSo6IiMDgwYNx5MgR5c+8SIAESECvBOT+vZ07dypfcrl/T69R1qdfFHr6jKtbvdqxYwfy8vKUQxmzZ8/GuHHj3DoeOycBEiABLRD4+9//rszu/fvf/1YE37333qsFs2gDCXDpls+AugS+//573HbbbcreFbmPhRcJkAAJ+BKB0tJSRfBFR0crJ3R5kYCWCXBGz4XofP3118pMFjflAq+99hri4+Nx8803u0BQH03lLOaNN96oD2foBQlolMC+ffuwf/9+jVpXb9ahQ4ewZ88eZWWDl/oEunTpouwD5+/c1rGl0HOB36CB/dHxjhtFOpEgF+5iUz0ReL+yGkHd7sfLL7MaiJ7iSl+0R0Ce6p+blYJf/OIa7RlHizxCoOQPbyN7aQ5iYmI8Mp5eB6HQcyGyw4YNxaSJQxE7NMqFu9hUTwReyi3C0WP/RE7OS3pyi76QgOYIXHfddfjpzF+UNE68fJPA4NjJmJaWSaHXyvBT6LkAkELPBVg6bUqhp9PA0i3NEaDQ01xIPG4QhZ46yCn0XOBIoecCLJ02pdDTaWDpluYIUOhpLiQeN4hCTx3kFHoucKTQcwGWTptS6Ok0sHRLcwQo9DQXEo8bRKGnDnIKPRc4Uui5AEunTSn0dBpYuqU5AhR6mguJxw2i0FMHOYWeCxwp9FyApdOmFHo6DSzd0hwBCj3NhcTjBlHoqYOcQs8FjhR6LsDSaVMKPZ0Glm5pjgCFnuZC4nGDKPTUQU6h5wLHqxZ6uzPgH7sXpp0fojjahQGbNK3OjkV41lFEbfwUpcY5MAzYhfCCcpSOa+9ch3YrLOVAVFwwDKhFzqORSD85Fu9/nolw53pgK0GAQo+PAQl4hoDLQs9+EOYxi2A+FoCo7gGwHTsDh/0j2Ee+gZol3Zw3+oJ3pXO3XfB+HuXcPRe1slXAPKMAebutsAeGIXPxfGRGd7h0Z9UFCI8tQLX9DPyjV6JmW3/xXtffRaGnTkwp9FzgeHVC7zTy+j+M3xwQA/Wbhx/2jrq6D6TVjMD7ixAshV70YRRvP47AuCEId/LTbV8zGrdkh+AzIeyChSk1uy0oQxiSoju7QIBNKfT4DJCAZwi4JvQqkHDTJGw1jsWH4h0Xqph4EEldxqNMCr3lzgu95u9Kp7xt+n6+WqEnB2ro59igpfjPm0NaHNoS3xNPHB6L/ZsegA0RSOjr5Bd+p5zRTiMKPXViQaHnAserEno1BQjuVYHAkEPYfTAIz/9tJzIDxaDVWxH19ApU265HcHQIHOVHEbg4HwvqspAwxwqbfxBi+tah7EhnmHfmIslxXuiZjz2JmOwTiFpbiTyDGTETDsLY/WeUHXsAxRUTYR06CTkIQWjdYdj6Lcb66I8wacIKlNu7Y1TiECSlBKHwqSyU3jwRle+NhC07Ayklfojqehyltj4ofC0MefHi544OCOzaCYZjR+FIzUdlqvMvSxewelVTCj2vCheN9WICLgm97VPRbsQ+dJ16oairKbfA2tWE4KoMmJbWIjQEqKwKQKZ4p4aW1L9HDcZgBHY8jcqTwVi9sBvWTGvyrowPgFn8udoRAIOcPYt7EZVzTyNlRAFsIeIrc9VHMMzMh6Vv0fkv4n0tMMUuFz8X7/WqWiT8cT4wMRnmGvFu/cQES2wGLDURKNwThhz5O6Bp3zMrECq+0NcLvW4w95b3tYcxpBOMpz4SfYrxp9bCNCIL5TbxPp83HTO6WvBMM9/Cd4xGQnkYEgwVyLEOQdl7E5Uv+N52UeipEzEKPRc4Xo3Qq5zcDybkwhZdAH/xIjI8sxm21eJtI67ioT0x+shYZZbNMb0fHsz1w3Mfp6P6/pmwKi+sn5HWJR4v+U/AZzt/RkzjjF5Ig+jLnwfHpEWoTlwH+9wTSMkSL5VVI2FfJERayBSYDiRj8IYOeP6rPyFwwvmx5Af+3NhrxctPLAMrS8Kj3kLMdTPFN+B8FNonYfTbj2LL2UxU3jMML6HeTm98WbgQ4is2pdC7IiI2IAFVCLgk9NYnod3EQxcJPdhrYT/1FqLueQF25Z0KpMn3mSEd32ysRbh4p0L+fV8z2j39HqLFezBpwyXelVVxWLetD+C4G/asBKTb69+HmD4QPXID8Pz+Psh7TK64lCNqaSRm2+Kw64PpsM+IxeiadFT1LUDf3CDxPl0DyPe+8m5t+P9zfYsVlq71grFxRs+q9A9M+/gdhM9odp/83VHRCQl3NfctGQuxBvPtD2DU8MFISDTBFOqdM34Ueqp8lECh5wJHl4WeXQinLivgv0SIrptPw/K7F7Dd9jhe/zFXiL8LhZ4h+0ncmXVGfKDTYT0n9NqLb3TipSFfKjtxsdB7OR22Z1fANnUbbMuFBJMvtS8tCH9oBRyJ+WJWbw6e2OB3/iUhXgyvrxV79MQ3XNuUhpfZsuPoIQSofME1Cr3dw1diiyO1QYSORB6F3rmnhELPhQ8Mm5JAKwi4JPTsYoXk9kUo7yO2x7x3fnuM/EJbOGACrLPW1gu6RqGHZl+ekXyR0LvoXal80f0CmeJ9+ELDF996oQc8t6M/iodLofcGQrPEzx31Qi/UcRo1jvYwiK0zPVoSeg1f9pUv0c2WbuuFXgsCUd6383rxe6G5b0/jT4u74STqYF1TgJcOhOD1s/W/c7ztotBTJ2IUei5wdEno1RxEzowspJd3xoo9K5EWeAKFE6Zi/I4T6Dr8ORQuS6wXW2/fhrjFQ2DP3oqa6BdRvakOCWJWbXfHx/H8yDMwrzmOmE3bYLanIlR8YzWK2buCfqsRK/9fCLxXjQsxLFvcMysE1WtqkbYlBAseWQX/xCkIPrwKlsNA6OIt+O2RJAzbGoCuxgCk/WkJap4SM4W2MKz7YB7sY5LEknEEMvtYkbPDT/QxH7bf1P98xdrHYZnwAsrFfr51HxQiKdAFYDpsSqGnw6DSJU0ScEnoCQ8cVRtgGrNCLNWOQlpiJ9SUlKBUzNxVbgpD5YR4mHYHYUGqH/IWWRF+wTt1Jcw3r8ATuUfRXbxTXzzV5F1ZmInqlPFYL9+F8j0uZsbsu+cgNL4CwfMS4b9mFar7vogdg4rQr+H9XJJYgeT4EjhGTkbUsSKUheSiOrIAhtiDCBfveseiIpTXBWHa9gzYZ00537f4HWHJNiNp6SGc6h6H1zeOEzOC4zD+QAeM+2M6DFmpeOmIuG/fAuA34+rfz3sWIzg3qZlvy2CcMRp5XcciL+Qw0t7uj8pPuHSryYfcQ0ZR6LkA2iWh50S/TZduzy+J1i+f1i/dck+cExg92oRCz6O4OZgPE3BV6J1HVQe7rU7svfPO5UofDvlFrnNGT52ngULPBY6qCr1qi/jmthd2sRHXNHcJkuqPiaF6/RyYd4i0AIb+WLDW1HB6zAUj2dStBCj03IqXnZPAOQJXL/QIUS8EKPTUiSSFngscVRV6LozLptohQKGnnVjQEn0ToNDTd3yd8Y5CzxlKV25DoXdlRudaUOi5AEunTSn0dBpYuqU5AhR6mguJxw2i0FMHOYWeCxwp9FyApdOmFHo6DSzd0hwBCj3NhcTjBlHoqYOcQs8FjhR6LsDSaVMKPZ0Glm5pjgCFnuZC4nGDKPTUQU6h5wJHCj0XYOm0KYWeTgNLtzRHgEJPcyHxuEEUeuogp9BzgSOFnguwdNqUQk+ngaVbmiNAoae5kHjcIAo9dZBT6LnAkULPBVg6bUqhp9PA0i3NEaDQ01xIPG4QhZ46yCn0XOBIoecCLJ02pdDTaWDpluYIUOhpLiQeN4hCTx3kFHoucBwWOwR+1/8/BAV1ceEuNtUTgerDVjwQEo5ly0TRTF4kQAJuIxAQcBOSJ47ANddc47Yx2LG2Cbyz5328uCwXAwYM0LahGreOQs+FAJ08eRJFRUUu3MGmeiQwdepU+Pn56dE1+kQCmiFQWVmJiooKzdhDQzxPoFOnTnjqqac8P7DORqTQ01lA6Q4JkAAJkAAJkAAJNBKg0OOzQAIkQAIkQAIkQAI6JfD/AavHpHtXicn2AAAAAElFTkSuQmCC;" vertex="1" parent="1">
          <mxGeometry x="470" y="140" width="746.82" height="940" as="geometry" />
        </mxCell>
        <mxCell id="j0UZT5C_kKvuFqQEt79w-6" value="Modèle" style="text;html=1;align=center;verticalAlign=middle;whiteSpace=wrap;rounded=0;" vertex="1" parent="1">
          <mxGeometry x="920" y="200" width="60" height="30" as="geometry" />
        </mxCell>
        <mxCell id="j0UZT5C_kKvuFqQEt79w-7" value="Modèle" style="text;html=1;align=center;verticalAlign=middle;whiteSpace=wrap;rounded=0;" vertex="1" parent="1">
          <mxGeometry x="580" y="220" width="60" height="30" as="geometry" />
        </mxCell>
        <mxCell id="j0UZT5C_kKvuFqQEt79w-8" value="Modèle" style="text;html=1;align=center;verticalAlign=middle;whiteSpace=wrap;rounded=0;" vertex="1" parent="1">
          <mxGeometry x="1140" y="850" width="60" height="30" as="geometry" />
        </mxCell>
        <mxCell id="j0UZT5C_kKvuFqQEt79w-9" value="Modèle" style="text;html=1;align=center;verticalAlign=middle;whiteSpace=wrap;rounded=0;" vertex="1" parent="1">
          <mxGeometry x="1090" y="595" width="60" height="30" as="geometry" />
        </mxCell>
        <mxCell id="j0UZT5C_kKvuFqQEt79w-10" value="Controleur" style="text;html=1;align=center;verticalAlign=middle;whiteSpace=wrap;rounded=0;" vertex="1" parent="1">
          <mxGeometry x="600" y="380" width="60" height="30" as="geometry" />
        </mxCell>
        <mxCell id="j0UZT5C_kKvuFqQEt79w-11" value="Controleur" style="text;html=1;align=center;verticalAlign=middle;whiteSpace=wrap;rounded=0;" vertex="1" parent="1">
          <mxGeometry x="600" y="450" width="60" height="30" as="geometry" />
        </mxCell>
        <mxCell id="j0UZT5C_kKvuFqQEt79w-12" value="Controleur" style="text;html=1;align=center;verticalAlign=middle;whiteSpace=wrap;rounded=0;" vertex="1" parent="1">
          <mxGeometry x="600" y="520" width="60" height="30" as="geometry" />
        </mxCell>
        <mxCell id="j0UZT5C_kKvuFqQEt79w-13" value="Controleur" style="text;html=1;align=center;verticalAlign=middle;whiteSpace=wrap;rounded=0;" vertex="1" parent="1">
          <mxGeometry x="600" y="595" width="60" height="30" as="geometry" />
        </mxCell>
        <mxCell id="j0UZT5C_kKvuFqQEt79w-14" value="Controleur" style="text;html=1;align=center;verticalAlign=middle;whiteSpace=wrap;rounded=0;" vertex="1" parent="1">
          <mxGeometry x="1030" y="1020" width="60" height="30" as="geometry" />
        </mxCell>
        <mxCell id="j0UZT5C_kKvuFqQEt79w-15" value="Controleur" style="text;html=1;align=center;verticalAlign=middle;whiteSpace=wrap;rounded=0;" vertex="1" parent="1">
          <mxGeometry x="1060" y="950" width="60" height="30" as="geometry" />
        </mxCell>
        <mxCell id="j0UZT5C_kKvuFqQEt79w-16" value="Vue" style="text;html=1;align=center;verticalAlign=middle;whiteSpace=wrap;rounded=0;" vertex="1" parent="1">
          <mxGeometry x="600" y="710" width="60" height="30" as="geometry" />
        </mxCell>
      </root>
    </mxGraphModel>
  </diagram>
</mxfile>
